<?xml version="1.0" encoding="UTF-8"?> <svg xmlns="http://www.w3.org/2000/svg" width="32" height="32" viewBox="0 0 32 32" fill="none"> <path d="M10.7143 14.5343C9.11153 15.2341 7.46473 15.9532 5.95883 16.7827C5.17251 17.3584 6.21759 17.7657 7.19807 18.1477L7.20048 18.1486C7.35553 18.209 7.50888 18.2688 7.65313 18.3285C7.7738 18.3656 7.89647 18.4047 8.0208 18.4443C9.11127 18.7917 10.3271 19.1791 11.3858 18.5963C13.1249 17.5973 14.766 16.4424 16.4059 15.2883C16.9432 14.9102 17.4803 14.5322 18.0207 14.1598C18.0461 14.1436 18.0746 14.1251 18.1059 14.1049C18.5662 13.8064 19.6016 13.1353 19.2186 14.0601C18.3139 15.0495 17.3448 15.9255 16.3705 16.8061L16.3677 16.8087C15.7103 17.4027 15.0506 17.999 14.4066 18.6337C13.8457 19.0894 13.2633 20.0059 13.8913 20.6441C15.3361 21.6555 16.8035 22.6424 18.27 23.6288L18.2755 23.6325C18.7533 23.9538 19.2311 24.2751 19.7079 24.5973C20.516 25.2425 21.779 24.7205 21.9567 23.7123C22.0331 23.2638 22.1098 22.8153 22.1865 22.3668L22.1943 22.321C22.6327 19.7579 23.0713 17.1938 23.4587 14.6223C23.5113 14.2189 23.571 13.8156 23.6307 13.4121L23.6308 13.4113C23.7755 12.4335 23.9204 11.4545 23.9657 10.4714C23.849 9.49007 22.6591 9.70587 21.997 9.92653C18.5935 11.2216 15.2241 12.6127 11.8679 14.0283C11.4877 14.1967 11.1023 14.3649 10.7143 14.5343Z" fill="black"></path> </svg> 