<?xml version="1.0" encoding="UTF-8"?> <svg xmlns="http://www.w3.org/2000/svg" width="288" height="200" viewBox="0 0 288 200" fill="none"> <path d="M267.302 49.6472C230.208 17.6052 183.02 0 134.23 0C85.4407 0 38.2529 17.6052 1.1591 49.6472L0 50.532V51.9191C0 93.2683 13.9565 131.03 39.22 158.365C62.7466 183.805 95.3056 198.755 129.735 199.926C164.164 201.096 197.643 188.392 222.807 164.607C224.936 162.598 226.994 160.518 228.981 158.365C254.268 131.03 268.201 93.2683 268.224 51.9191V50.532L267.302 49.6472ZM134.1 194.07C85.442 194.07 44.7317 166.951 22.9217 124.884C32.5903 114.86 43.5363 106.182 55.4711 99.0797C63.0962 113.461 74.4371 125.483 88.2858 133.863C102.134 142.244 117.972 146.67 134.112 146.67C150.252 146.67 166.09 142.244 179.939 133.863C193.787 125.483 205.128 113.461 212.753 99.0797C224.673 106.183 235.603 114.861 245.255 124.884C223.493 166.951 182.782 194.07 134.1 194.07ZM150.375 115.151C150.801 115.653 151.227 116.155 151.605 116.681C152.156 115.983 152.647 115.239 153.072 114.457C153.126 115.412 152.895 116.362 152.409 117.183L153.119 118.188C153.521 118.714 153.876 118.331 154.42 118.188C154.207 118.618 153.568 119.216 153.923 119.694C154.278 120.173 154.893 120.89 155.366 121.512C156.289 122.756 157.093 124.167 158.087 125.315C158.607 123.283 158.607 121.152 158.087 119.121C157.683 117.044 157.024 115.028 156.123 113.118C154.782 109.933 152.403 107.309 149.382 105.68C146.377 103.695 142.143 103.958 138.784 104.365C139.868 103.863 140.991 103.455 142.143 103.145C142.83 102.887 143.564 102.781 144.296 102.834C144.268 102.184 144.324 101.533 144.461 100.897C145.029 101.615 145.289 102.547 146.33 102.356C146.791 102.3 147.249 102.22 147.702 102.117C148.246 101.997 148.222 101.495 148.412 101.017L148.625 101.926H151.771V100.443C152.267 101.017 152.575 101.734 153.048 102.308C153.923 102.954 154.373 102.308 155.011 101.686C154.987 102.072 154.94 102.455 154.87 102.834C155.509 102.878 156.142 102.982 156.762 103.145C157.423 103.461 158.123 103.686 158.844 103.815C157.366 102.206 155.785 100.696 154.113 99.2949C152.418 97.8777 150.416 96.8861 148.27 96.4012C147.264 96.0723 146.199 95.9746 145.151 96.1152C144.103 96.2559 143.1 96.6314 142.214 97.2143C140.367 98.4627 138.682 99.9411 137.199 101.615C137.553 100.33 138.004 99.0748 138.548 97.86C138.808 97.1904 139.092 96.5208 139.399 95.875C139.707 95.2293 140.298 94.7271 139.754 94.3445C138.575 93.6716 137.274 93.2464 135.928 93.0943C134.583 92.9423 133.221 93.0665 131.924 93.4596C130.852 93.7435 129.825 94.1782 128.873 94.751C128.35 95.0353 127.884 95.4166 127.501 95.875C127.319 96.0564 127.167 96.2664 127.051 96.4968C126.767 97.023 127.051 96.9751 127.595 97.1665C129.968 98.2958 131.936 100.143 133.225 102.452C132.066 101.973 131.096 101.16 129.961 100.61C128.907 100.105 127.794 99.7352 126.649 99.5101C124.245 98.9071 121.723 98.9898 119.363 99.7493C117.28 100.564 115.587 102.156 114.632 104.198C113.991 105.274 113.475 106.421 113.095 107.617C112.461 108.901 112.144 110.32 112.172 111.755C112.953 110.942 113.852 110.248 114.68 109.507C115.508 108.765 115.602 108.43 115.626 107.115C116.075 107.498 116.146 108.12 116.714 107.761L117.424 107.306C117.376 106.877 117.376 106.444 117.424 106.015L117.802 106.517C118.133 106.948 118.346 106.517 118.748 106.35C119.32 106.013 119.922 105.733 120.546 105.513C121.139 105.298 121.748 105.13 122.367 105.011C123.101 105.011 123.148 104.532 123.503 103.934C123.527 104.285 123.527 104.636 123.503 104.987C124.473 104.987 124.26 104.58 124.851 103.934C124.851 104.484 124.544 104.915 125.04 105.25C125.916 105.8 125.916 105.25 126.531 104.604V105.704C127.051 105.704 127.572 105.776 128.092 105.919C128.991 106.08 129.86 106.379 130.67 106.804C127.653 107.203 124.701 108.007 121.894 109.196C119.052 110.424 116.597 112.418 114.798 114.959C113.162 117.57 112.247 120.576 112.149 123.664C111.982 125.261 112.054 126.873 112.361 128.447C112.396 129.952 112.803 131.423 113.544 132.728C114.727 130.839 115.91 128.926 117.021 127.036C117.495 126.247 118.062 125.482 118.512 124.645C118.961 123.808 118.512 123.186 118.204 122.253C118.673 122.339 119.127 122.492 119.553 122.708L120.759 121.177C120.948 120.986 121.114 120.771 121.279 120.579C121.445 120.388 121.279 120.077 121.019 119.671C120.759 119.264 120.026 118.666 119.6 118.116C120.593 118.116 121.965 119.049 122.959 118.786C123.952 118.523 122.746 116.753 122.509 116.203C122.847 116.564 123.202 116.907 123.574 117.231C123.755 117.396 123.953 117.54 124.165 117.662L125.088 116.825C125.443 116.49 125.821 116.155 126.223 115.844C126.625 115.533 126.602 115.031 126.531 114.29C127.193 114.768 127.311 114.816 127.997 114.29L128.612 113.859C128.873 113.692 128.612 113.166 128.4 112.903C129.133 113.142 129.038 113.764 129.677 112.903C130.216 112.262 130.792 111.655 131.404 111.085C132.282 110.166 133.231 109.318 134.242 108.55C132.016 116.164 130.932 124.072 131.025 132.011C131.021 135.525 131.195 139.037 131.546 142.533C116.579 142.089 101.995 137.646 89.2773 129.657C76.5593 121.668 66.1604 110.416 59.1376 97.0469C82.1593 84.3031 107.984 77.6234 134.23 77.6234C160.477 77.6234 186.302 84.3031 209.323 97.0469C202.376 110.267 192.126 121.418 179.593 129.389C167.06 137.361 152.68 141.876 137.885 142.486C136.189 135.199 135.395 127.729 135.52 120.245C135.551 117.037 135.843 113.837 136.395 110.678C136.489 110.101 136.632 109.533 136.821 108.981C136.873 108.786 136.936 108.594 137.01 108.407L138.311 108.67C139.866 108.98 141.35 109.58 142.687 110.439C142.738 110.142 142.825 109.853 142.947 109.578C143.015 109.926 143.126 110.264 143.279 110.583C143.279 110.918 144.012 111.061 144.509 111.252L145.62 111.611C146.212 111.755 146.212 111.3 146.496 110.87C146.566 111.257 146.614 111.648 146.638 112.042L147.844 112.831C148.228 113.116 148.591 113.427 148.932 113.764C149.358 114.194 149.665 113.764 150.068 113.381C149.993 113.7 149.993 114.033 150.067 114.352C150.141 114.672 150.287 114.969 150.493 115.222L150.375 115.151ZM247.195 120.914C217.319 90.5902 176.753 73.5066 134.418 73.4214C92.0839 73.3361 51.4499 90.2563 21.4551 120.46L21.0057 120.914C11.0756 99.78 5.91275 76.6797 5.8901 53.2823C41.7693 22.7041 87.1854 5.93297 134.112 5.93297C181.039 5.93297 226.455 22.7041 262.334 53.2823C262.316 76.7058 257.144 99.832 247.195 120.986V120.914ZM56.4173 54.6933C49.7229 56.0086 47.7832 55.5781 46.6714 53.1149C45.5596 50.6516 46.8133 48.3319 50.0777 46.873C53.2636 45.5327 56.7989 45.2973 60.1311 46.2034L61.1956 40.6551C56.7681 39.4422 52.0566 39.8837 47.9251 41.8987C41.6565 44.7685 38.8416 50.6277 41.3017 56.1043C43.9984 62.083 48.6821 62.3461 56.1334 60.8873C62.6149 59.5959 64.4363 60.2655 65.4771 62.5374C66.518 64.8093 65.146 67.6313 61.716 69.2097C57.9758 70.8894 53.7384 71.0436 49.8885 69.6402L48.3509 75.1885C53.4696 76.8288 59.0124 76.4529 63.8686 74.1362C70.5156 71.099 73.5435 65.3833 70.9651 59.4045C68.3867 54.0715 63.8686 53.2584 56.4173 54.6933ZM153.758 47.2557L161.209 48.3319L167.951 61.7004L175.047 62.7287L167.643 48.2362C170.087 48.0829 172.398 47.0638 174.172 45.358C175.946 43.6522 177.068 41.3688 177.342 38.9093C178.312 32.2131 174.219 27.167 166.177 25.9952L150.872 23.7471L145.904 58.4719L151.936 59.3567L153.758 47.2557ZM156.123 30.1803L164.923 31.4717C169.37 32.1174 171.736 34.5329 171.215 38.2636C170.695 41.9944 167.572 43.7641 163.22 43.0466L154.396 41.7552L156.123 30.1803ZM205.539 58.4719L221.482 65.7659L223.848 60.6481L207.904 53.354L211.807 44.625L229.785 52.8518L232.15 47.734L208.495 36.9722L194.302 68.9706L199.861 71.5056L205.539 58.4719ZM118.512 23.5558L112.48 24.4407L115.366 44.4337C116.288 50.8429 113.473 54.5976 108.127 55.3868C102.781 56.176 98.9253 53.1866 98.0028 46.7535L95.1642 26.9996L89.1085 27.8845L91.9944 47.8296C93.461 57.8979 99.8952 62.1787 108.837 60.959C117.778 59.7393 122.841 53.5693 121.35 43.214L118.512 23.5558ZM91.6396 149.732C90.0317 148.888 88.2473 148.445 86.4355 148.44C84.0101 148.473 81.6656 149.327 79.7775 150.866C77.8893 152.406 76.5667 154.541 76.0215 156.931C75.4763 159.32 75.74 161.825 76.7703 164.045C77.8007 166.265 79.5382 168.072 81.7045 169.175C83.3074 170.013 85.0807 170.463 86.8849 170.49C89.2686 170.443 91.571 169.606 93.4381 168.107C95.3053 166.608 96.6339 164.531 97.2197 162.194C97.8055 159.858 97.6161 157.392 96.6806 155.175C95.7452 152.958 94.1153 151.113 92.0417 149.923L91.6396 149.732ZM92.3966 162.431C91.8675 163.568 91.0369 164.534 89.997 165.222C88.9571 165.91 87.7488 166.294 86.5065 166.329C85.6544 166.329 84.8108 166.158 84.0242 165.827C83.2376 165.496 82.5236 165.011 81.9233 164.4C81.323 163.788 80.8483 163.063 80.5266 162.265C80.2048 161.468 80.0424 160.614 80.0486 159.752C80.0529 158.602 80.3546 157.472 80.9239 156.476C81.4562 155.343 82.2883 154.382 83.3279 153.698C84.3676 153.014 85.5741 152.635 86.814 152.602C88.2163 152.606 89.5784 153.076 90.6899 153.941C91.8015 154.805 92.6007 156.015 92.9643 157.385C93.4082 159.079 93.2055 160.88 92.3966 162.431ZM59.1376 127.826C56.3348 127.845 53.6479 128.959 51.6389 130.935C49.5532 132.911 48.3067 135.629 48.1616 138.516C48.1137 139.945 48.3508 141.37 48.8588 142.706C49.3668 144.041 50.1353 145.259 51.1185 146.288C52.1828 147.494 53.499 148.446 54.9718 149.075C56.4445 149.703 58.0371 149.993 59.6343 149.923H60.0128L60.2494 145.881H59.8709C58.8153 145.906 57.7663 145.706 56.7923 145.294C55.8182 144.882 54.9409 144.267 54.2173 143.49C53.6501 142.86 53.2111 142.124 52.9254 141.323C52.6398 140.522 52.5131 139.672 52.5527 138.821C52.5922 137.97 52.7972 137.136 53.1559 136.365C53.5146 135.595 54.02 134.903 54.6431 134.331L54.8324 134.163C56.1286 132.875 57.8643 132.139 59.6816 132.106C60.5052 132.106 61.3201 132.276 62.0766 132.605C62.8331 132.934 63.5153 133.415 64.0815 134.02C64.7624 134.782 65.2867 135.673 65.6237 136.642C65.9608 137.611 66.1039 138.638 66.0448 139.664V140.07L70.2791 139.879V139.496C70.3252 137.968 70.0592 136.446 69.4975 135.027C68.9358 133.607 68.0906 132.32 67.0147 131.245C66.007 130.156 64.7867 129.289 63.4309 128.7C62.075 128.112 60.6131 127.814 59.1376 127.826ZM111.817 179.65L116.099 180.2L117.163 171.973L127.264 173.288L127.737 169.294L117.636 167.955L118.252 163.172L129.63 164.679L130.103 160.685L114.443 158.628L111.817 179.65ZM183.066 166.066L180.866 161.905L189.808 157.122L187.939 153.606L179.021 158.389L176.892 154.395L186.993 148.967L185.124 145.451L171.239 153.056L181.103 171.758L195.13 164.2L193.262 160.685L183.066 166.066ZM212.446 132.154L205.349 139.496L202.18 136.315L210.128 128.017L207.313 125.243L196.337 136.698L211.381 151.454L222.357 139.927L219.519 137.152L211.476 145.547L208.164 142.27L215.261 134.928L212.446 132.154ZM159.127 166.377L149.027 168.17L148.199 163.387L159.506 161.378L158.82 157.385L143.326 160.231L146.969 181.108L151.227 180.343L149.784 172.188L159.813 170.394L159.127 166.377Z" fill="black"></path> <path d="M277.403 6.00178C275.308 6.00178 273.26 6.62955 271.517 7.80576C269.775 8.98197 268.417 10.6538 267.614 12.6102C266.811 14.5665 266.6 16.7195 267.007 18.7971C267.414 20.8748 268.421 22.7839 269.901 24.2832C271.38 25.7825 273.266 26.8048 275.321 27.2209C277.375 27.637 279.505 27.4282 281.442 26.621C283.378 25.8137 285.035 24.4442 286.203 22.6855C287.37 20.9267 287.995 18.8576 288 16.7396C288 13.8959 286.884 11.1683 284.898 9.15527C282.911 7.14221 280.215 6.00811 277.403 6.00178ZM277.403 24.2729C275.916 24.2776 274.462 23.8358 273.225 23.0035C271.988 22.1712 271.023 20.9861 270.453 19.5984C269.884 18.2108 269.735 16.6833 270.025 15.2099C270.316 13.7364 271.033 12.3834 272.085 11.3227C273.138 10.262 274.478 9.54142 275.936 9.25238C277.395 8.96335 278.905 9.11892 280.276 9.69935C281.647 10.2798 282.816 11.2589 283.635 12.5124C284.454 13.7659 284.887 15.2372 284.878 16.7396C284.865 18.7378 284.073 20.6503 282.673 22.061C281.273 23.4717 279.379 24.2666 277.403 24.2729Z" fill="#0D0802"></path> <path d="M281.873 14.8743C281.806 13.9507 281.381 13.0913 280.691 12.4828C279.836 11.8305 278.779 11.5083 277.71 11.574H273.358V21.3792H276.456V18.5333H277.261L278.869 21.3792H282.275L280.359 18.0071C280.88 17.6841 281.299 17.2179 281.567 16.6631C281.835 16.1084 281.941 15.4879 281.873 14.8743ZM278.514 15.7113C278.37 15.8377 278.2 15.931 278.016 15.9847C277.832 16.0383 277.639 16.0511 277.45 16.0222H276.385V13.9894H277.355C277.737 13.9562 278.118 14.0484 278.443 14.2525C278.548 14.3449 278.631 14.4589 278.689 14.5868C278.746 14.7147 278.775 14.8535 278.775 14.9938C278.785 15.1254 278.768 15.2577 278.723 15.3816C278.678 15.5055 278.607 15.618 278.514 15.7113Z" fill="#0D0802"></path> </svg> 