<?xml version="1.0" encoding="UTF-8"?> <svg xmlns="http://www.w3.org/2000/svg" width="365" height="193" viewBox="0 0 365 193" fill="none"> <path d="M116.566 168.022H116.954C117.661 168.022 118.34 168.581 119.102 169.63C119.857 170.307 120.69 170.888 121.584 171.363C123.261 172.761 124.079 173.711 124.065 174.158V174.661C124.065 175.248 123.594 175.626 122.679 175.78C121.424 175.272 120.259 174.564 119.227 173.683C117.633 172.816 116.774 172.285 116.649 171.922H116.94C116.275 173.474 115.904 175.138 115.845 176.828C115.844 179.288 116.232 181.732 116.995 184.068L117.286 184.837L117.494 185.004H117.675C119.352 184.605 120.976 184.004 122.512 183.215C122.963 183.107 123.396 182.938 123.802 182.712L124.079 183.006C123.173 184.307 122.148 185.519 121.015 186.626C120.517 187.153 119.913 187.567 119.244 187.842C118.575 188.116 117.856 188.245 117.134 188.219C116.497 188.212 115.876 188.021 115.343 187.669C114.81 187.318 114.387 186.82 114.126 186.234C113.629 185.448 113.312 184.56 113.197 183.635C112.581 181.759 112.222 179.808 112.13 177.834V177.75C112.268 173.837 113.045 170.981 114.459 169.182C115.016 168.573 115.756 168.165 116.566 168.022Z" fill="#231F20"></path> <path d="M150.708 170.776C152.032 170.7 153.347 171.047 154.464 171.768C154.935 171.936 155.324 172.551 155.629 173.613L155.753 175.207C155.337 178.216 154.478 181.147 153.203 183.9C152.643 185.416 151.684 186.749 150.43 187.758C149.363 188.82 147.45 189.309 144.691 189.156H144.497C141.337 188.848 139.549 188.499 139.133 188.093C137.109 187.073 136.111 186.039 136.152 184.99C135.915 184.317 135.793 183.608 135.792 182.894L135.889 182.796L135.82 182.307C136.034 179.353 137.376 176.597 139.563 174.619C139.673 174.619 139.881 174.438 140.186 174.074C141.599 173.097 143.127 172.299 144.733 171.698C145.434 171.51 146.156 171.416 146.882 171.419L147.408 171.545C147.436 171.377 148.531 171.097 150.708 170.776ZM146.618 174.032C145.346 174.842 144.157 175.779 143.07 176.828C141.482 178.595 140.568 180.874 140.491 183.257C140.674 183.654 140.976 183.984 141.353 184.199C141.731 184.415 142.167 184.506 142.598 184.459C142.598 184.585 142.945 184.683 143.652 184.739H144.511L145.981 184.865H146.244C148.115 184.935 149.723 182.852 151.04 178.645L151.65 175.961V174.815V174.955C150.686 174.96 149.725 175.063 148.781 175.262C148.014 175.221 147.245 175.282 146.494 175.444V174.969L146.369 174.536V174.34H146.438C146.438 174.074 146.494 174.032 146.618 174.032Z" fill="#231F20"></path> <path d="M175.063 171.642C175.588 171.59 176.118 171.673 176.603 171.883C177.088 172.093 177.512 172.424 177.835 172.844V173.152C177.6 173.655 176.241 174.186 173.774 174.759C172.563 175.083 171.331 175.321 170.087 175.472H170.156V178.058C171.062 177.783 171.989 177.587 172.928 177.471C174.148 177.611 174.8 177.904 174.869 178.365C174.382 179.195 173.59 179.798 172.665 180.043C171.8 180.513 170.863 180.834 169.892 180.993L169.213 186.584V186.654L169.13 187.297V187.758C168.853 190.302 168.382 191.574 167.744 191.546H167.453C166.968 191.392 166.69 189.966 166.635 187.255L166.552 184.459L166.635 182.055C167.176 176.115 167.591 173.152 167.855 173.166L168.589 172.355L169.158 172.215H169.255C169.74 172.215 169.976 172.341 169.962 172.537C170.804 172.408 171.637 172.226 172.457 171.992C173.315 171.804 174.186 171.687 175.063 171.642Z" fill="#231F20"></path> <path d="M197.949 172.453C198.474 172.403 199.003 172.487 199.487 172.697C199.972 172.907 200.396 173.237 200.721 173.655V173.963C200.486 174.466 199.141 174.997 196.66 175.57C195.453 175.894 194.226 176.132 192.986 176.283V178.91C193.893 178.637 194.82 178.44 195.759 178.323C196.965 178.463 197.616 178.757 197.686 179.218C197.199 180.048 196.407 180.65 195.482 180.895C194.617 181.368 193.68 181.689 192.709 181.846L192.016 187.436H192.085L191.988 188.079V188.541C191.711 191.084 191.254 192.356 190.602 192.328H190.311C189.84 192.175 189.563 190.749 189.493 188.051L189.41 185.172L189.493 182.768C190.048 176.833 190.454 173.869 190.713 173.879L191.462 173.068L192.016 172.928H192.127C192.598 172.928 192.834 173.054 192.834 173.25C193.672 173.121 194.501 172.939 195.315 172.705C196.185 172.549 197.066 172.464 197.949 172.453Z" fill="#231F20"></path> <path d="M216.51 171.656C217.009 171.656 217.3 172.271 217.37 173.459C219.469 172.815 221.649 172.472 223.843 172.439H224.051L224.398 172.327L224.744 172.886C222.619 173.904 220.387 174.678 218.09 175.193L217.813 175.262V175.877C217.599 176.609 217.441 177.357 217.342 178.114L217.411 178.198L217.314 178.715V179.12H217.065C218.519 178.86 219.986 178.673 221.459 178.561H221.639C222.831 178.673 223.483 178.896 223.566 179.204V179.623C223.566 180.057 222.706 180.504 221.043 181.021C219.753 181.362 218.426 181.541 217.092 181.552L216.053 187.856H215.734C216.641 187.54 217.53 187.171 218.395 186.752C219.421 186.402 220.489 186.19 221.57 186.123H221.916C222.239 186.122 222.555 186.208 222.833 186.373C223.111 186.538 223.34 186.775 223.497 187.059V187.297C223.497 187.79 222.572 188.378 220.724 189.058L217.869 190.455C216.813 191.101 215.662 191.573 214.459 191.853C213.183 191.462 212.573 190.833 212.601 189.952V189.058C212.601 188.275 212.92 186.262 213.474 182.936V182.852L213.558 182.461L213.96 178.156H214.084C213.683 177.944 213.344 177.63 213.101 177.245C212.858 176.86 212.719 176.417 212.698 175.961C212.698 174.787 213.447 174.004 214.833 173.613C215.055 173.248 215.245 172.865 215.401 172.467C215.501 172.247 215.655 172.056 215.849 171.914C216.044 171.772 216.271 171.683 216.51 171.656Z" fill="#231F20"></path> <path d="M240.145 172.495H240.214C240.713 172.495 241.004 173.11 241.073 174.298C243.173 173.651 245.352 173.303 247.547 173.264L247.755 173.334L248.102 173.222L248.448 173.781C246.323 174.799 244.091 175.572 241.794 176.087H241.517V176.716C241.303 177.448 241.145 178.196 241.046 178.952V179.036L240.949 179.553V179.959H240.699C242.152 179.685 243.619 179.498 245.093 179.4H245.371C246.563 179.511 247.214 179.735 247.298 180.043V180.448C247.298 180.895 246.438 181.342 244.775 181.846C243.486 182.191 242.158 182.365 240.824 182.363L239.826 188.694H239.507C240.417 188.379 241.306 188.005 242.169 187.576C243.196 187.236 244.263 187.029 245.343 186.961H245.69C246.012 186.96 246.329 187.047 246.607 187.212C246.885 187.376 247.114 187.613 247.27 187.898V188.079C247.27 188.564 246.346 189.151 244.497 189.84L241.642 191.168C240.586 191.814 239.435 192.286 238.232 192.566C236.957 192.175 236.347 191.546 236.374 190.665V189.757C236.374 188.988 236.693 186.961 237.248 183.649V183.565L237.331 183.173L237.733 178.868H237.858C237.455 178.655 237.114 178.339 236.871 177.952C236.628 177.564 236.49 177.119 236.471 176.66C236.471 175.5 237.22 174.717 238.606 174.326C238.828 173.961 239.018 173.578 239.174 173.18C239.276 173.001 239.416 172.846 239.583 172.728C239.751 172.609 239.943 172.53 240.145 172.495Z" fill="#231F20"></path> <path d="M361.521 21.4875C354.146 19.4748 346.827 16.9449 339.341 15.9665C333.261 15.1119 327.074 15.4632 321.127 17.0008C314.681 18.8458 308.901 22.955 302.677 25.7644C297.354 28.1545 291.989 30.8521 286.347 32.0401C280.29 33.326 275.493 27.4976 276.284 21.18C276.602 18.5802 276.755 15.9665 277.018 13.3528C277.392 9.73278 275.632 7.76202 272.361 6.50409C267.259 4.57526 262.408 5.90308 258.166 8.43292C248.463 14.2753 238.995 20.7467 229.292 26.7009C225.849 28.9146 222.116 30.6317 218.202 31.8025C211.645 33.6055 206.71 28.8673 207.348 22.1584C207.722 18.3007 207.972 14.4291 208.027 10.5574C208.097 4.40754 204.091 1.08101 198.435 3.17756C184.656 8.23724 170.984 13.5438 157.417 19.0974C149.96 22.1304 142.89 26.1977 135.391 29.091C129.513 31.3413 127.074 28.8673 128.016 22.5777C128.46 19.4468 128.751 16.302 128.973 14.3033C128.973 11.8852 128.973 10.6413 128.973 9.39734C129.084 2.64643 127.753 0.661698 121.21 0.312273C112.699 -0.134992 104.132 0.00477831 95.5793 0.0886404C91.9606 0.106529 88.3494 0.419705 84.7808 1.0251C80.9685 1.80577 77.1978 2.78075 73.4833 3.9463C67.7306 5.59559 61.7839 6.86749 56.2807 9.18768C41.1157 15.5612 26.1448 22.368 11.1046 29.049C6.7797 30.9779 3.25876 36.974 3.3558 41.6283C3.48055 47.2191 3.77166 52.4326 3.42511 58.0653C2.27457 76.9343 0.652719 95.8033 0.139827 114.686C-0.317617 130.955 0.472514 147.253 0.722029 163.606C0.722029 167.198 2.27457 168.148 5.37964 166.066C10.1759 162.865 14.6949 159.259 19.3941 155.918C27.7112 150.034 35.6264 143.661 44.3456 138.517C63.1803 127.41 83.8538 119.834 105.366 116.154C109.206 115.483 110.827 117.3 109.608 121.144C108.998 123.114 108.083 124.987 107.376 126.93C104.603 134.603 108.928 141.215 116.871 141.788C122.326 142.233 127.784 140.964 132.494 138.154C136.514 135.805 140.603 133.597 144.512 131.165C150.265 127.447 155.976 123.659 161.548 119.662C166.843 115.874 172.014 111.933 177.254 108.061C183.062 103.77 189.924 100.527 196.148 96.8795C196.647 98.2772 195.413 99.6749 194.346 100.835C188.995 106.3 183.908 125.616 197.326 123.995C203.821 123.393 210.142 121.538 215.942 118.53C225.923 112.939 235.252 105.951 244.581 99.2137C246.98 97.3916 249.232 95.382 251.318 93.2035C252.427 92.0994 253.508 90.9532 254.673 89.9189C255.483 88.973 256.415 88.141 257.445 87.445C257.815 87.2551 258.242 87.2115 258.642 87.3227C259.042 87.4339 259.386 87.6919 259.608 88.046C259.725 88.3722 259.768 88.7211 259.732 89.0663C259.43 91.3791 258.967 93.6677 258.346 95.9151C257.731 98.1884 257.927 100.608 258.901 102.75C259.899 104.581 261.673 106.705 263.919 106.37C267.59 105.958 271.168 104.938 274.509 103.351C290.714 94.769 303.592 82.3714 314.445 67.975C322.081 57.6885 331.213 48.6225 341.532 41.0832C348.213 36.2891 355.324 32.11 362.131 27.4976C363.275 26.4128 364.243 25.1535 365 23.7657C363.963 22.8304 362.79 22.062 361.521 21.4875ZM105.588 113.736C104.451 113.931 103.314 114.085 102.205 114.225C88.6664 115.801 75.4384 119.415 62.9621 124.945C57.251 127.573 51.7756 130.704 46.3278 133.835C38.2047 138.475 29.8321 142.766 22.3189 148.357C16.885 152.41 13.8493 157.302 6.68266 158.979C6.37659 159.1 6.04563 159.143 5.71916 159.104C5.3927 159.065 5.08084 158.946 4.8113 158.756C4.50162 158.359 4.34853 157.862 4.38158 157.358C3.34908 141.67 3.12699 125.939 3.71621 110.228C3.81324 107.572 3.95186 104.916 4.10434 102.247C4.4093 96.9354 4.82516 91.6241 5.01923 86.2989C5.28261 79.1147 5.47667 71.9026 5.9757 64.6764C6.32225 59.5748 7.3619 54.6409 8.08272 49.6092C8.70651 45.5699 8.62333 39.993 11.2987 36.6945C13.057 34.8892 15.2717 33.6034 17.7029 32.9766C22.7814 31.2978 27.6955 29.1502 32.3827 26.5611C37.1789 23.7657 45.2604 23.5001 49.2388 19.5027C54.7836 16.5536 60.0788 13.3249 65.8731 10.9208C67.5605 10.2388 69.2871 9.66001 71.0436 9.18768C82.0799 3.73492 94.511 1.83209 106.655 3.73664C108.839 4.03039 110.983 4.57435 113.045 5.35798C118.036 7.38464 122.749 11.1305 122.097 17.0428C121.071 26.1558 121.806 35.3247 121.806 44.4657C121.806 53.6066 119.976 62.6358 119.741 71.7907C119.574 78.3739 119.242 84.9431 118.812 91.5263C118.465 96.7817 120.531 102.61 117.62 107.502C115.208 111.569 110.398 112.995 105.588 113.792V113.736ZM166.178 111.108C151.623 120.808 137.068 135.26 118.618 135.442C103.37 135.596 115.956 118.25 119.865 112.548C123.483 107.306 122.277 102.037 122.555 96.0129C122.873 88.8707 123.483 81.7703 123.483 74.6281C123.483 64.956 124.357 55.4656 124.592 45.8214C124.814 37.2396 128.751 34.9333 135.918 33.0744C139.236 32.1717 142.465 30.9646 145.565 29.4683C151.54 26.6729 157.182 23.2206 163.281 20.6908C174.648 15.9805 186.153 11.5778 197.714 7.37067C201.873 5.84717 204.368 8.16736 204.118 12.6121C203.023 32.1799 201.831 51.7477 200.819 71.3854C200.583 75.6624 200.916 79.9533 200.999 84.2443C201.065 85.6066 200.734 86.9584 200.046 88.1331C199.359 89.3079 198.346 90.2542 197.132 90.8554C186.68 97.4526 176.45 104.343 166.178 111.164V111.108ZM249.433 89.0244C239.064 97.2988 229.305 106.985 217.121 112.338C211.216 114.938 196.161 121.297 193.999 110.843C192.544 103.854 198.712 98.4869 202.025 93.2315C204.354 89.4996 204.631 84.8453 204.797 80.4565L206.087 51.7477C206.364 45.5559 203.536 33.8431 212.408 34.7377C218.737 35.4159 225.104 33.8652 230.428 30.3489C237.359 25.9042 243.833 20.8166 250.861 16.6235C255.744 13.6746 260.986 11.3771 266.455 9.78869C270.919 8.53076 273.206 10.9628 272.929 15.7429C272.167 28.5459 271.155 41.3348 270.157 54.1238C269.768 59.3372 269.145 64.5367 268.937 69.7501C268.784 73.5798 267.412 75.7183 263.877 77.7729C258.693 80.8199 254.243 85.2646 249.433 89.0803V89.0244ZM352.386 28.0287C344.609 33.8431 336.278 39.0007 329.042 45.4301C322.416 51.3284 316.954 58.5685 310.952 65.1936C298.476 79.0029 288.967 96.1527 268.84 99.4373C261.59 100.625 260.523 91.0511 262.921 86.0473C265.125 81.4209 270.143 80.4565 272.416 75.7742C274.689 71.0919 274.717 65.9903 274.745 61.1403C274.745 56.8353 271.972 33.5636 279.333 35.5903C289.799 38.3857 298.449 33.8711 306.586 28.4061C320.836 18.8318 335.807 16.7772 351.831 22.7454C352.898 23.1367 354.534 24.2409 354.479 24.8839C354.202 26.1619 353.454 27.286 352.386 28.0287Z" fill="black"></path> <path d="M230.774 65.8503C230.774 71.8604 230.608 77.0319 230.857 82.1615C230.968 84.5096 230.954 86.3546 228.293 87.0535C225.118 87.8362 221.667 86.4664 221.362 83.8946C220.758 80.0877 220.581 76.2244 220.835 72.3776C221.57 64.201 222.637 56.0384 223.857 47.9178C224.522 43.4731 229.402 38.7209 233.935 38.651C238.65 38.6029 243.353 39.1475 247.935 40.2724C252.232 41.3206 253.12 43.6828 251.636 47.8619C249.89 52.7818 247.034 56.8631 242.072 59.1413C240.491 59.8542 239.008 60.7487 237.192 61.7131C241.788 65.5787 246.993 68.6401 252.593 70.7702C253.854 71.2734 254.741 72.713 255.795 73.7194C254.298 74.2785 252.704 75.5084 251.331 75.2988C245.003 74.2792 239.017 71.7171 233.893 67.8351C233.158 67.3179 232.396 66.8846 230.774 65.8503ZM231.911 57.4641C238.093 54.4031 241.85 50.6293 242.82 44.6052C238.662 42.0754 235.57 42.8162 234.032 47.0792C232.895 50.0423 232.687 53.3828 231.911 57.3942V57.4641Z" fill="black"></path> <path d="M65.6923 42.8581C62.3931 45.5836 60.0643 51.9711 62.3931 56.5137C64.7103 60.8817 67.6063 64.9115 71.0014 68.492C76.6432 74.6698 77.8215 81.8121 76.2412 89.4575C74.9936 95.5934 69.0191 99.2414 61.3812 99.0597C53.7433 98.878 46.84 97.3545 43.3607 89.4855C41.3646 84.9289 42.9448 82.5808 47.852 82.4969C51.4976 82.4969 55.3651 81.7841 55.2404 87.5007C55.2404 88.6748 56.5157 89.9327 57.3335 91.0509C59.5237 94.0699 61.9911 93.7205 63.5298 90.2402C66.219 84.2161 63.9595 75.774 58.9831 70.2111C55.3329 66.3458 52.2096 62.0074 49.6956 57.3104C45.634 49.0919 52.6898 37.0996 61.6446 36.5405C66.1826 36.2025 70.7407 36.2492 75.2709 36.6803C75.9769 36.739 76.662 36.9511 77.2791 37.3022C77.8961 37.6532 78.4304 38.1348 78.8453 38.7138C79.2602 39.2929 79.5458 39.9556 79.6826 40.6565C79.8193 41.3575 79.8039 42.0799 79.6374 42.7743C79.0136 46.1567 76.1164 46.3104 73.3718 45.5697C71.0291 44.9407 68.7835 43.9763 65.6923 42.8581Z" fill="black"></path> <path d="M157.736 74.7816C163.821 70.2251 165.831 64.1591 166.843 57.5759C167.453 53.6484 167.785 49.6649 168.742 45.8352C169.057 45.1272 169.534 44.5047 170.134 44.0188C170.734 43.5328 171.44 43.1973 172.194 43.0398C178.847 42.5227 180.511 44.4375 179.471 50.9508C178.085 59.5048 177.711 68.5199 171.459 75.3966C168.426 78.8535 164.915 81.8521 161.035 84.3C153.868 88.5909 145.246 83.8248 145.787 75.5923C146.396 66.7309 148.351 57.9393 150.056 49.1757C150.4 48.4354 150.921 47.7926 151.572 47.3048C152.222 46.817 152.983 46.4994 153.785 46.3803C156.359 46.4836 158.902 46.9832 161.326 47.8619C161.561 47.8619 161.409 49.7488 161.243 50.6573C160.009 57.9393 158.72 65.1934 157.486 72.4614C157.484 73.2417 157.568 74.0198 157.736 74.7816Z" fill="black"></path> <path d="M299.917 42.4109L298.254 53.7043C302.413 53.0753 306.169 52.3066 309.995 51.9711C311.144 52.0862 312.262 52.413 313.294 52.9356C312.435 53.7322 311.756 54.8923 310.688 55.2837C306.53 56.8072 302.371 58.0791 297.644 59.6305C297.644 62.6915 297.644 66.1159 297.644 69.5263C297.644 70.1273 297.325 71.2175 297.062 71.2315C294.831 71.571 292.565 71.604 290.325 71.3293C289.161 71.1057 287.553 69.5123 287.553 68.5339C287.733 63.6559 288.329 58.75 288.939 53.9279C289.424 49.609 289.812 45.2761 290.699 41.0132C291.032 39.4337 292.377 37.0856 293.763 36.82C295.856 36.3728 298.795 35.5761 300.777 37.8404C301.399 38.3297 302.165 38.5954 302.953 38.5951C305.199 38.7209 307.444 38.7768 309.69 38.7069C312.754 38.6091 313.433 39.8531 312.601 42.3969L299.917 42.4109Z" fill="black"></path> </svg> 