<?xml version="1.0" encoding="UTF-8"?> <svg xmlns="http://www.w3.org/2000/svg" width="501" height="597" viewBox="0 0 501 597" fill="none"> <path d="M498.501 185.03L496.09 184.692C496.09 183.284 496.004 182.158 496.09 181.018C496.416 177.288 492.997 175.261 491.834 172.193C490.785 169.919 489.435 167.794 487.82 165.873C486.104 163.565 484.189 161.397 482.331 159.188C481.451 158.118 480.501 157.09 479.296 155.711C479.073 154.642 478.701 153.609 478.189 152.643C477.007 150.994 475.719 149.424 474.331 147.942C472.998 146.407 471.579 144.93 470.26 143.381C470.033 143.114 470.161 142.607 470.005 142.255C469.658 141.259 469.181 140.313 468.586 139.44C467.764 138.385 466.374 137.681 465.75 136.625C463.679 132.769 462.913 128.18 458.317 125.83C456.317 124.788 455.126 122.325 453.438 120.622C452.768 120.067 451.976 119.676 451.126 119.482C448.686 118.693 445.991 118.44 444.885 115.513C444.602 115.12 444.227 114.803 443.791 114.59C443.356 114.376 442.874 114.272 442.388 114.288C438.53 114.921 437.807 111.783 436.233 109.728C436.093 109.458 436.02 109.158 436.02 108.855C436.02 108.552 436.093 108.252 436.233 107.982C437.041 106.575 438.034 105.28 438.857 104.083C438.093 103.032 437.233 102.052 436.289 101.156C434.686 99.8891 432.757 97.7778 431.197 97.9608C428.275 98.2845 426.701 96.5533 424.559 95.6384C422.417 94.7235 419.921 93.7664 417.552 92.9782C415.89 92.4363 414.187 92.0268 412.46 91.7537C410.928 91.5003 408.928 90.881 407.878 91.5285C407.258 91.9896 406.496 92.2246 405.721 92.1939C404.946 92.1631 404.205 91.8685 403.623 91.3596C402.403 90.6277 401.113 89.8535 400.489 92.0915C398.375 91.4159 396.233 89.755 394.262 92.3026C394.124 92.3753 393.971 92.4133 393.815 92.4133C393.659 92.4133 393.506 92.3753 393.368 92.3026C391.354 90.4588 388.645 91.2047 386.418 90.501C382.84 89.5063 379.18 88.828 375.482 88.4742C372.773 88.1082 372.645 89.2624 372.517 91.0077C372.538 91.6999 372.629 92.3883 372.787 93.0627C369.652 93.4286 366.674 93.6257 363.78 94.1887C361.865 94.5546 360.092 95.6806 358.177 96.0184C355.052 96.4996 351.904 96.819 348.745 96.9755C347.75 96.9045 346.769 96.7107 345.823 96.3985C346.603 95.2725 347.241 93.3301 348.192 93.1612C351.766 92.57 355.539 93.1612 358.83 91.0218C359.723 90.4447 361.156 90.5714 361.922 89.9098C364.22 87.9534 368.149 87.4889 368.305 83.4775C368.455 82.7122 368.836 82.0102 369.397 81.4647C371.425 79.072 371.198 77.6504 368.518 75.9614L367.397 77.1718L366.745 76.8762C366.943 75.8769 367.156 74.8776 367.354 73.8923L367.993 74.6383L387.269 68.1356C387.652 65.5317 387.496 63.4204 388.304 61.7455C390.177 57.8326 390.177 57.5229 385.34 55.3835C385.992 53.8096 386.56 52.2028 387.042 50.5698C387.44 49.493 387.44 48.3108 387.042 47.234C386.602 46.5443 385.07 46.291 383.992 46.2206C379.638 45.9672 375.283 45.8406 370.915 45.6998C370.523 45.7259 370.143 45.8467 369.808 46.0517C368.603 46.7715 367.201 47.1013 365.798 46.9953C364.396 46.8894 363.061 46.353 361.979 45.4605L370.39 43.7574C370.39 43.7574 370.929 44.2641 371.439 44.7145C372.502 43.7708 373.428 42.6862 374.191 41.4913C374.432 40.9565 373.411 39.8445 372.673 38.437L379.879 36.1569C380.262 37.5644 380.617 38.803 380.957 40.0557C381.99 37.9594 382.629 35.6938 382.844 33.37C383.056 30.1327 384.191 28.6407 387.553 28.0074C388.191 27.8158 388.805 27.5513 389.382 27.2191C390.404 29.6541 398.205 30.6535 403.779 29.6401C405.467 30.3262 407.235 30.7991 409.042 31.0476C409.68 31.1602 410.332 31.1461 410.971 31.2446C415.226 31.8217 419.382 33.5389 423.736 31.9906C424.375 31.7795 425.311 32.4129 426.119 32.624C426.998 32.9471 427.912 33.1645 428.843 33.2715C432.162 33.2715 435.509 33.0462 438.771 33.2715C442.913 33.5811 445.169 32.2158 446.119 28.3452C446.304 27.4511 446.698 26.6124 447.268 25.8961C449.14 23.813 447.849 21.6735 447.367 19.6889C446.893 18.473 446.253 17.327 445.466 16.2828L444.601 17.4932C441.858 15.9409 439.015 14.5679 436.091 13.3833C432.687 12.215 429.495 10.5683 425.353 11.5254C421.68 12.3699 417.637 9.70967 413.297 12.2573L416.658 5.54343C416.29 4.86782 415.552 4.13591 415.552 3.41808C415.552 1.13791 414.034 -0.41036 411.807 0.0963456C410.176 0.462299 408.148 0.701577 407.098 1.75721C404.715 4.23444 401.68 5.64195 398.616 7.16207C395.552 8.68218 391.226 9.56891 389.553 13.4396C389.453 13.6648 389.056 13.8055 388.772 13.9041C386.021 14.8752 383.297 15.9168 380.503 16.7191C379.085 17.1413 377.51 16.9302 376.248 17.5354C373.752 18.76 371.454 20.3505 368.631 22.0395C368.631 22.1521 368.716 22.7292 368.759 23.264L363.085 23.6018L363.922 26.1776L360.645 25.0656C360.645 25.8679 360.546 26.4732 360.518 27.1065C358.886 27.8103 357.184 29.2319 355.752 29.0208C352.291 28.4859 349.454 28.2466 348.291 32.2862C348.206 32.5536 347.681 32.7225 347.341 32.8914C345.512 33.619 343.748 34.4946 342.064 35.5094C338.674 38.0148 335.454 40.5624 330.532 40.8298L333.369 42.4484L325.923 43.4619C325.489 44.5291 324.896 45.5255 324.164 46.4176C322.05 48.2474 318.192 47.4873 317.072 50.8372C314.504 50.3446 314.235 52.0899 314.235 53.1315L308.561 56.9318L310.263 58.663C309.099 58.8243 307.969 59.1712 306.916 59.6905C305.576 60.7809 304.354 62.0074 303.271 63.35C301.214 65.6584 299.256 68.023 297.015 70.655L294.902 70.3876L295.441 75.4687C293.313 75.5391 290.42 78.889 289.555 82.647L293.654 84.5331C286.562 83.21 286.562 88.1504 285.654 92.7952C284.865 92.2843 284.22 91.5818 283.782 90.7543C283.087 89.6002 282.704 88.1223 281.711 87.3481C280.221 86.1799 279.838 88.7557 279.214 88.6712C276.165 88.0941 273.541 87.7282 271.839 91.1344C271.441 91.9226 269.427 92.3589 269.456 92.8937C269.583 95.7088 268.505 96.5392 265.739 95.9621C265.314 95.8636 264.094 97.0459 264.193 97.3697C265.243 100.874 259.796 102.226 261.243 105.815C260.902 105.986 260.546 106.128 260.179 106.237C257.101 106.955 255.924 108.756 257.087 112.008C256.08 111.656 255.328 111.107 254.945 111.29C250.945 113.162 250.08 109.038 248.704 107.532C247.328 106.026 246.406 104.464 244.534 103.52C244.032 103.172 243.591 102.744 243.229 102.254C242.321 101.283 241.428 100.297 240.534 99.3261L239.712 99.8891C239.612 99.312 239.712 98.4816 239.357 98.186C236.095 95.7792 235.627 90.5714 230.577 89.938C230.123 89.938 229.768 89.0372 229.371 88.5305C227.712 86.5318 226.081 84.519 224.393 82.5485C222.18 79.9446 219.925 77.3829 217.698 74.7931C217.159 74.1738 216.776 73.3856 216.095 72.9352C213.84 71.5277 211.471 70.3594 209.102 69.0505C210.35 65.8976 201.202 58.0718 196.237 56.7629V53.4974C194.251 56.3969 192.62 56.5658 191.032 54.0323C190.791 53.6523 189.741 53.8212 189.33 53.4693C188.754 52.8913 188.276 52.2261 187.911 51.4988C187.678 51.0481 187.489 50.5769 187.344 50.0912C186.932 50.2742 186.393 50.3446 186.124 50.6543C184.422 52.6529 183.287 51.0484 182.025 50.1475C181.334 49.6522 180.547 49.3068 179.713 49.1341C178.904 48.9652 177.443 49.4438 177.259 49.1341C175.216 45.5309 171.585 47.5718 168.748 46.7273C167.826 46.4458 166.678 46.868 165.727 46.6147C161.472 45.4887 157.359 43.7997 153.047 43.1944C149.43 42.7159 145.614 43.5463 141.884 43.7856C138.976 43.9545 136.082 44.0952 133.175 44.236C133.075 44.236 132.99 44.1234 132.891 44.1093L127.997 43.3211C127.997 43.0818 127.997 42.181 128.111 41.1958H117.87C115.615 40.5765 111.828 39.6334 108.111 38.4793C105.274 37.6066 103.97 39.2252 102.438 40.9424C101.554 41.9513 100.381 42.6682 99.076 42.9974C96.0924 43.6425 93.4086 45.2512 91.445 47.5718L96.3668 48.0222C95.1896 49.4297 94.4378 51.0343 93.53 51.1047C90.1684 51.3862 88.8493 53.3567 88.7925 55.8198C89.6294 57.3822 90.4521 58.9445 91.0903 60.155C93.6577 58.8882 96.4945 57.72 98.9909 56.3125C101.487 54.9049 105.076 54.7642 107.43 52.0899C109.232 50.0068 116.764 51.4425 118.778 53.4974C119.568 54.5397 120.626 55.3516 121.842 55.848C125.123 56.4963 128.437 56.9662 131.77 57.2555C132.67 57.3931 133.59 57.2244 134.38 56.7769C136.238 55.3694 136.962 56.5517 137.813 57.4807C139.804 57.3963 141.796 57.6001 143.728 58.0859C145.716 58.7751 147.663 59.5787 149.557 60.4928C146.72 60.6195 143.316 61.5906 140.508 60.6898C139.122 60.1956 137.647 60.0002 136.179 60.1167C134.712 60.2332 133.286 60.6589 131.997 61.3654C129.614 62.7729 128.863 61.661 127.742 60.8447C126.394 61.0615 125.082 61.4592 123.841 62.027C122.506 62.8067 121.393 63.9112 120.608 65.2361C119.6 67.3896 121.501 67.7696 123.09 68.783C125.118 70.0779 126.622 68.4312 127.884 68.783C130.863 69.529 133.558 68.3749 136.253 68.3326C137.294 68.3963 138.326 68.5709 139.331 68.8534L138.082 73.456L141.033 74.1175L141.217 75.0042C139.472 75.5954 137.728 76.2288 135.955 76.7777C135.525 76.8932 135.127 77.1042 134.792 77.3946C134.457 77.685 134.192 78.0473 134.019 78.4541C133.845 78.8608 133.767 79.3014 133.79 79.7426C133.814 80.1837 133.938 80.6137 134.153 81.0003C134.536 81.887 136.636 82.4078 137.997 82.4922C139.463 82.324 140.897 81.9447 142.252 81.3662C142.252 82.1826 142.338 82.7737 142.408 83.759L147.401 81.9011L148.224 84.9272L150.564 82.45C157.855 80.8736 164.607 80.3106 171.302 85.7295C172.72 88.0801 176.053 89.7268 179.897 90.7262L180.096 91.5707L171.897 93.4427C171.897 93.879 171.514 95.1035 171.897 95.554C174.564 98.2142 177.415 100.691 181.301 101.677C183.358 102.197 185.344 102.986 187.344 103.647C188.069 103.972 188.825 104.226 189.599 104.407C192.322 104.703 195.585 102.69 197.556 106.209C197.641 106.364 198.152 106.321 198.464 106.293C204.975 105.829 210.379 108.616 216.152 111.557L213.967 113.134L216.492 113.725C216.691 117.033 216.861 119.988 217.031 122.874C215.031 122.1 213.513 121.551 212.024 120.903C210.633 120.482 209.331 119.814 208.18 118.933C204.577 115.273 199.925 113.612 195.117 115.738C192.847 116.751 190.223 117.145 188.365 114.471C188.085 114.174 187.743 113.942 187.364 113.788C186.984 113.635 186.576 113.566 186.167 113.584C182.146 113.802 178.14 114.235 174.167 114.879C168.805 115.893 163.543 117.413 158.195 118.553C157.084 118.717 155.952 118.439 155.047 117.779C150.933 114.527 146.068 113.838 141.118 114.288C137.175 114.654 133.345 116.357 129.387 116.667C124.338 117.061 119.969 119.341 115.203 120.537C111.138 121.755 107.177 123.294 103.36 125.14C102.409 125.548 101.941 126.857 100.92 127.293C98.3242 128.476 95.5442 129.278 92.9485 130.46C87.9685 132.762 82.5677 134.031 77.0764 134.19C75.8511 134.359 74.6652 134.74 73.573 135.316C71.9843 135.992 70.4525 136.808 68.8922 137.554C68.1404 137.639 67.9419 138.666 67.3461 138.962C64.9207 140.243 61.6725 139.665 59.7293 142.227C58.7475 143.109 57.6443 143.849 56.4527 144.423L51.928 145.915C52.3961 146.619 52.7081 147.083 53.3464 148.012C49.0912 146.323 47.1196 149.588 44.3395 150.827C44.1647 150.977 44.0295 151.167 43.9454 151.38C43.8614 151.593 43.8311 151.824 43.8572 152.052C44.3111 154.867 42.8643 154.867 40.7367 154.107C38.9779 153.459 39.1907 153.684 37.8999 155.148C36.1847 157.363 34.0974 159.267 31.7298 160.778C26.4817 163.593 20.5811 165.254 16.1273 169.364C14.9642 170.42 13.8862 171.546 12.7656 172.643L13.1486 173.389L8.89338 172.742L10.099 174.501C7.092 175.909 4.21262 177.021 1.58856 178.569C-0.723454 179.977 -0.439772 181.243 1.97153 182.623C2.42542 182.89 2.56726 183.692 3.02115 183.946C4.06078 184.453 5.13141 184.895 6.22676 185.269C7.13455 183.144 8.68062 184.396 9.97137 184.396L13.8295 184.607C13.836 183.667 13.8929 182.727 13.9997 181.792C14.411 179.385 16.3684 178.738 18.34 177.57C21.347 175.853 24.0137 173.544 27.3611 172.292C29.7088 171.302 31.9203 170.02 33.9425 168.477C35.4886 167.408 36.3396 165.339 38.8644 165.662C39.2814 165.651 39.6891 165.538 40.0507 165.331C40.4122 165.125 40.7163 164.832 40.9353 164.48C41.8998 162.003 44.7934 161.777 46.1409 160.173C47.4884 158.568 51.8145 158.765 50.3961 155.641L57.4882 152.558L56.396 150.166L61.0058 150.588C61.0909 149.743 61.1477 149.025 61.176 148.716C62.9065 148.42 64.793 148.716 65.5589 147.871C67.5163 145.844 69.6298 145.056 71.2326 145.338L79.2608 138.807L79.5019 139.961L85.4309 143.86C84.8635 144.226 83.8423 144.803 82.9203 145.478C81.7572 146.323 79.7714 147.196 79.6863 148.167C79.3743 151.981 75.7857 153.544 73.7857 155.725C71.7858 157.907 69.417 159.948 67.1334 162.073C66.0538 162.982 65.0786 164.006 64.2256 165.127C62.5519 167.562 62.481 171.278 58.2967 171.7C57.7577 171.7 57.3321 172.883 56.8783 173.502C56.4222 174.298 55.9153 175.065 55.3606 175.796C54.1123 177.035 53.0485 178.119 55.5875 179.188C56.24 179.456 56.6088 180.371 56.6939 180.455C58.9984 180.613 61.3112 180.613 63.6157 180.455C65.1802 180.131 66.6618 179.494 67.9702 178.583C68.9405 177.806 69.7786 176.88 70.4525 175.839C72.3967 173.605 74.6967 171.703 77.2608 170.209C81.2749 167.478 86.0124 164.804 88.0266 159.737C88.6081 158.329 90.6506 157.485 91.5159 156.077C94.0516 152.195 97.334 148.847 101.175 146.224C103.104 144.817 105.785 143.691 106.707 141.791C108.125 138.793 111.161 137.906 113.218 135.851C114.125 134.936 115.53 134.444 116.48 133.655C118.148 132.139 119.729 130.532 121.217 128.842C122.035 127.757 122.779 126.619 123.444 125.435L122.381 124.141C123.798 124.221 125.219 124.221 126.636 124.141C127.998 124.151 129.34 123.817 130.536 123.169C131.732 122.188 133.202 121.593 134.749 121.464C136.296 121.336 137.845 121.68 139.189 122.452L142.267 120.284L143.004 121.326C140.167 123.183 137.189 125.055 134.253 126.871C134.102 126.907 133.944 126.909 133.792 126.878C133.64 126.846 133.497 126.781 133.373 126.688C131.047 125.281 129.799 126.885 128.48 128.293C128.182 128.616 127.799 129.053 127.416 129.095C123.246 129.475 121.742 133.318 118.905 135.302C117.232 136.456 115.714 137.808 114.154 139.088C112.324 140.594 109.558 141.791 108.891 143.677C107.7 146.999 104.523 147.111 102.324 149.307C102.324 150.095 102.438 151.292 102.494 152.361C101.607 152.784 100.793 153.345 100.083 154.022C99.5182 155.034 99.0709 156.105 98.7498 157.217C99.3455 160.933 99.7285 161.144 103.601 160.525C104.705 160.259 105.851 160.202 106.977 160.356C108.236 160.743 109.594 160.665 110.799 160.134C112.004 159.603 112.974 158.657 113.53 157.471C113.938 156.929 114.494 156.514 115.132 156.274C116.409 155.669 118.04 155.486 119.019 154.599C122.934 151.038 127.529 147.759 130.267 143.438C133.671 138.173 139.657 137.442 144.054 134.106C145.657 132.881 147.983 132.586 149.969 131.84C150.139 131.84 150.224 131.502 150.394 131.403C152.635 130.094 154.905 128.799 157.642 127.181C157.642 128.588 157.415 129.405 157.642 129.63C160.706 132.163 159.061 132.755 156.224 133.472C155.146 133.754 153.387 135.724 153.699 136.287C154.805 138.793 153.146 139.609 151.543 140.623C151.401 140.707 151.373 140.96 151.288 141.143L152.352 142.283L150.749 143.17C152.862 145.633 153.841 149.293 158.663 148.153C161.699 145.873 165.997 145.788 170.351 145.985C170.153 143.508 170.238 143.508 172.89 143.17C174.004 142.912 175.088 142.539 176.124 142.058C174.493 139.834 176.72 140.003 177.84 139.44C178.59 139.074 179.315 138.66 180.011 138.202C182.72 136.4 185.415 134.57 188.138 132.769C188.237 132.769 188.507 132.881 188.705 132.952C189.06 134.588 189.99 136.045 191.33 137.062C193.698 138.469 196.393 139.877 198.975 139.877C201.102 139.877 200.606 141.664 201.812 141.96C203.429 142.382 205.102 143.367 206.648 143.184C211.911 142.607 214.62 145.999 217.23 148.659C213.372 150.067 209.528 151.474 205.57 152.699C203.405 153.409 201.123 153.7 198.847 153.558C194.89 153.135 191.471 154.388 187.996 155.781C184.152 157.33 180.266 158.779 175.982 160.44L174.465 162.974C172.649 161.397 166.635 164.142 165.486 166.366C164.592 166.493 164.068 166.366 163.642 166.648C162.124 167.562 160.607 169.463 159.231 169.378C154.891 169.068 154.068 174.079 150.323 174.276C148.522 178.499 142.621 177.429 140.536 181.314C140.536 181.455 139.699 181.117 139.373 181.314C137.543 182.158 134.99 182.637 134.097 184.058C132.168 187.155 128.622 187.718 126.153 189.886C122.735 192.884 118.65 195.178 115.161 198.105C112.097 200.653 109.969 204.101 107.459 206.916C104.338 210.477 102.395 215.362 97.5299 217.473C96.764 217.797 96.3101 218.88 95.7427 219.528C94.4945 221.132 93.374 222.821 92.0123 224.342C91.374 225.059 89.757 225.327 89.5726 226.031C88.3528 230.535 84.4805 232.378 80.9771 234.673C78.5564 236.148 76.2941 237.864 74.2254 239.796C72.2113 241.809 70.7787 244.356 68.9631 246.566C67.9296 247.798 66.7749 248.925 65.5164 249.93C62.8781 252.041 60.1548 254.04 57.4882 256.109C57.2612 256.278 57.247 256.672 57.0768 256.94C55.4173 259.557 51.9422 260.852 51.4032 264.273C51.3528 264.366 51.2822 264.448 51.1964 264.511C51.1105 264.574 51.0116 264.618 50.9067 264.639C48.0699 264.948 46.8784 266.328 45.3607 268.861C42.141 274.224 37.4886 278.714 33.7156 283.851C32.6519 285.553 32.0192 287.484 31.8717 289.481C31.7724 290.143 33.0773 291.072 33.8858 291.691C34.0276 291.79 35.0205 290.931 35.517 290.41C36.0134 289.889 35.8858 289.242 36.2404 289.129C39.3467 288.046 39.9424 285.062 41.6445 282.88C42.8502 281.332 43.2189 278.292 45.8005 278.84L50.3677 274.294C50.3677 274.21 50.5663 273.267 50.8074 272.098C51.517 272.313 52.2054 272.591 52.8641 272.929C54.4102 273.97 55.0059 275.814 57.9704 275.237C60.5094 274.73 61.4739 273.267 62.7788 271.915C64.1877 270.242 65.504 268.494 66.722 266.68C68.1404 264.751 69.8709 262.964 71.2893 261.049C74.7077 256.278 77.431 251.197 82.509 247.425C86.2394 244.68 88.8351 240.486 91.9414 236.939L93.3598 237.544C93.3082 238.28 93.1506 239.006 92.8917 239.697C92.2818 240.88 91.3315 241.879 90.7641 243.076C89.5301 245.609 88.4663 248.213 87.1046 251.338C86.8635 251.014 87.1046 251.492 87.4592 251.83C90.296 254.392 92.1683 253.998 94.2676 251.056C95.6527 249.336 97.2011 247.753 98.8916 246.327L99.6576 246.749C98.9342 247.931 98.2391 249.128 97.459 250.296C96.9626 251.056 95.8278 251.83 95.9271 252.478C96.5229 256.362 93.3456 259.023 92.5797 262.485C92.2818 263.893 91.2322 264.793 92.9201 265.976C94.608 267.158 95.913 267.538 97.1753 265.793C98.2391 264.385 99.2604 262.978 100.182 261.5C101.7 259.093 102.48 259.037 104.31 261.317L105.856 263.273L116.012 255.546L115.218 255.25C115.501 253.843 115.359 252.182 116.168 251.253C118.026 249.114 119.388 247.115 118.168 244.582L122.338 237.136L121.061 236.882C121.969 234.912 122.735 233.124 123.615 231.379C123.856 230.929 124.551 230.281 124.863 230.366C125.473 230.52 126.437 231.154 126.395 231.534C126.254 232.613 125.928 233.661 125.43 234.63C124.664 236.348 123.785 237.994 122.593 240.359L127.402 239.74C127.402 240.486 127.487 241.077 127.572 242.639C129.6 240.472 130.735 238.107 132.423 237.657C136.565 236.516 138.097 233.054 140.182 230.323C142.267 227.593 143.699 224.173 147.274 222.526C147.742 222.301 147.884 221.386 148.111 220.78C148.337 220.175 148.323 219.021 148.834 218.571C152.139 215.573 153.089 210.717 157.344 208.437C157.639 208.329 157.912 208.172 158.153 207.972C160.99 204.524 163.642 201.019 166.465 197.627C167.256 196.754 168.222 196.054 169.302 195.572C169.557 195.445 170.876 196.543 170.791 196.768C170.309 198.176 169.911 200.034 168.833 200.611C167.06 201.54 166.365 202.807 167.642 203.82C168.706 204.693 171.458 205.227 172.224 204.496C175.188 201.92 179.443 200.653 181.046 196.642C181.174 196.318 182.124 196.219 182.72 196.149C185.557 195.811 187.259 193.728 189.088 191.926C190.592 190.519 191.84 188.745 193.344 186.972C193.344 189.59 192.805 192.053 193.486 194.136C194.166 196.219 197.244 196.036 201.046 193.7C200.535 195.614 200.563 197.148 199.797 198.105C195.897 203.004 194.776 209.464 189.755 213.841C187.358 215.925 186.351 219.472 184.564 222.287C183.642 223.694 181.628 224.933 181.486 226.368C181.457 227.251 181.113 228.095 180.515 228.749C179.918 229.404 179.106 229.827 178.223 229.943C177.836 228.17 177.453 226.382 177.074 224.581L176.082 224.243C174.919 225.914 173.966 227.72 173.245 229.62C171.699 236.038 170.408 242.541 169.131 249.086L166.848 248.466C166.323 250.015 165.912 251.281 165.429 252.562C164.598 255.234 163.589 257.849 162.408 260.388C161.472 262.175 160.096 264.456 158.408 264.991C157.609 265.233 156.906 265.718 156.397 266.377C155.888 267.035 155.6 267.835 155.571 268.664C154.972 273.754 152.478 278.437 148.579 281.796C146.741 283.285 145.471 285.35 144.976 287.651C144.182 290.255 143.401 292.859 142.437 295.407C142.04 296.406 140.65 297.194 140.565 298.222C140.139 302.909 137.529 306.54 134.891 310.228C133.699 311.945 132.607 313.733 131.487 315.492C131.104 316.083 130.806 316.717 130.451 317.322L127.487 322.234C127.388 322.234 126.664 322.333 126.494 322.699C125.345 325.148 124.38 327.667 123.402 330.173C122.763 331.819 122.21 333.48 121.501 335.493L124.451 337.435C122.749 341.503 121.019 345.655 119.288 349.821C119.13 350.858 118.84 351.87 118.423 352.833C117.799 354.494 117.147 356.155 116.65 357.858C116.324 358.984 116.565 360.392 115.983 361.335C113.799 364.882 118.239 365.937 118.82 368.457C120.235 368.602 121.661 368.602 123.076 368.457L120.65 366.289L125.416 362.376C122.962 361.63 125.785 360.744 125.614 359.927C125.14 358.757 124.474 357.673 123.643 356.718L126.48 357.211C126.636 355.564 126.295 353.171 127.005 352.833C130.324 351.243 129.118 349.455 127.756 347.654C131.033 347.654 130.707 346.063 129.799 344.079C133.898 343.389 128.749 340.926 130.962 339.73C131.495 340.041 132.067 340.283 132.664 340.447C133.997 340.687 135.77 341.306 136.607 340.743C137.444 340.18 137.146 338.322 137.288 337.027C137.373 336.253 137.203 334.803 137.288 334.789C140.678 334.254 139.841 331.411 140.692 329.652C141.84 329.195 142.911 328.568 143.869 327.794C147.898 324.979 149.259 321.08 149.912 316.421C150.281 313.817 150.763 310.495 153.983 309.032C153.404 310.598 152.972 312.214 152.692 313.859C152.238 318.729 152.011 323.613 151.671 328.821L156.55 327.977C157.032 328.61 157.415 329.595 158.153 330.004C158.89 330.412 160.663 330.75 160.876 330.426C162.054 328.544 163.106 326.589 164.025 324.571C164.493 323.585 164.564 322.276 165.302 321.629C165.713 321.277 167.131 321.953 168.138 322.248C168.72 322.448 169.288 322.683 169.841 322.952C171.117 320.221 172.337 317.73 173.429 315.182C173.614 314.76 173.188 314.127 173.188 313.578C173.188 311.551 172.422 308.877 173.458 307.638C173.976 307.114 174.279 306.417 174.308 305.683C174.336 304.95 174.089 304.232 173.614 303.669C172.309 302.093 172.961 301.389 173.84 300.038C174.493 299.052 174.209 297.448 174.223 296.125C174.223 295.548 173.727 294.914 173.855 294.408C174.72 291.114 175.599 287.82 176.692 284.555C177.627 281.196 178.793 277.904 180.181 274.702C182.294 270.241 180.294 264.695 185.018 260.726C187.046 259.037 187.259 255.096 187.982 252.168C188.663 249.353 188.805 246.538 189.4 243.723C189.907 242.55 190.581 241.455 191.4 240.472C191.769 243.892 192.266 246.707 192.308 249.536C192.308 252.942 192.053 256.348 191.869 259.74C191.898 262.63 191.675 265.517 191.202 268.369C190.906 269.252 190.847 270.197 191.031 271.11C191.215 272.024 191.636 272.873 192.251 273.576C191.542 274.379 190.507 274.984 190.493 275.674C190.493 277.32 191.486 279.22 190.918 280.558C190.223 282.247 191.4 283.823 190.72 285.104C187.769 290.565 191.088 295.407 192.039 300.699C193.139 300.008 194.077 299.092 194.79 298.011C198.067 293 196.748 287.243 197.414 281.838C197.953 277.348 197.641 272.774 197.982 268.256C198.563 260.726 199.301 253.224 200.124 245.736C200.451 244.273 200.955 242.855 201.627 241.513C201.783 241.077 202.251 240.373 202.109 240.232C199.769 237.868 201.471 235.405 201.939 233.054C202.748 228.944 203.84 224.876 204.776 220.78L205.655 220.879C205.851 221.328 205.985 221.802 206.053 222.287C206.223 227.41 205.897 232.575 206.648 237.6C207.4 242.625 206.265 247.551 208.592 252.21C208.817 252.978 208.87 253.785 208.748 254.575C208.748 256.081 208.62 257.573 208.634 259.079C208.747 260.06 208.804 261.047 208.804 262.035C208.421 265.61 207.911 269.185 207.386 273.126C208.804 272.732 210.223 272.774 210.634 272.183C212.053 269.903 213.187 267.411 214.464 265.033C215.088 263.879 215.797 262.767 216.464 261.655L217.272 262.161C215.4 265.3 216.223 268.059 218.393 270.606C223.017 265.863 222.194 260.078 222.152 254.195L224.293 252.52L222.662 251.112C223.714 248.529 224.6 245.882 225.315 243.188C225.839 240.598 225.57 237.882 225.882 235.236C226.265 231.928 226.988 228.663 227.3 225.383C227.612 222.427 226.875 219.162 227.939 216.53C229.542 212.532 228.747 208.648 228.861 204.721C229.068 203.226 229.651 201.807 230.555 200.594C231.46 199.382 232.658 198.415 234.038 197.782C237.3 196.374 240.421 194.713 243.967 192.94C241.329 190.829 241.314 189.055 243.485 187.479C246.96 184.973 248.506 185.297 250.874 187.929C252.293 189.491 254.463 190.392 256.293 191.603C256.86 191.969 257.357 193.01 257.91 193.587C258.917 194.544 260.151 195.347 261.229 196.205C262.734 197.636 264.618 198.613 266.661 199.02C268.763 199.098 270.82 198.402 272.434 197.064C274.108 195.839 275.541 194.333 277.243 193.165C277.845 192.7 278.568 192.412 279.328 192.335C280.217 192.392 281.081 192.652 281.853 193.095C283.73 193.917 285.775 194.288 287.824 194.178C288.913 194.006 290.024 194.04 291.101 194.277C293.214 194.981 294.462 197.81 294.973 199.752C296.675 206.283 297.129 213.124 300.193 219.317C300.648 220.319 300.758 221.442 300.505 222.512C299.214 227.593 300.292 231.703 305.299 234.616C309.469 228.775 307.271 222.568 306.717 216.473C307.299 216.051 307.951 215.53 308.646 215.066C309.341 214.601 310.263 214.137 310.845 213.813C310.667 213.224 310.577 212.613 310.575 211.998C310.575 211.772 311.71 211.477 311.724 211.505C312.816 213.546 314.93 215.727 314.561 217.642C314.15 220.232 313.71 222.835 314.93 224.933C315.937 226.828 316.491 228.928 316.547 231.069C317.001 235.672 318.15 240.12 321.582 243.653C319.015 245.159 318.745 253.28 321.171 256.714C318.916 258.769 318.916 258.769 321.284 261.641C320.826 261.982 320.394 262.359 319.994 262.767C322.277 265.99 320.533 269.452 320.745 272.788C320.932 274.147 321.265 275.483 321.738 276.771C323.55 278.172 325.213 279.752 326.703 281.487C327.398 282.444 326.845 284.175 327.001 285.54C327.27 287.792 328.277 290.157 327.852 292.254C326.93 296.772 329.61 299.292 332.66 301.487C333.667 302.233 335.752 301.966 337.185 301.586C337.724 301.445 337.837 299.714 338.192 298.546L339.61 297.898C339.256 295.773 338.192 293.549 338.844 292.395C340.915 289.003 338.078 285.132 340.476 281.881C340.844 281.388 340.022 279.952 339.596 279.066C338.646 276.997 338.589 275.139 340.688 273.745C340.149 273.084 339.412 272.591 339.369 272.056C339.071 268.073 340.788 264.202 339.681 260.078C339.085 257.925 339.681 255.448 339.681 253.111C339.766 252.027 339.596 250.938 339.185 249.93C336.901 245.905 338.291 241.33 336.958 237.262C336.561 236.024 336.093 234.799 335.44 232.927C336.447 233.462 336.859 233.533 336.859 233.73C338.972 236.699 341.114 239.627 343.1 242.724C345.936 247.242 345.185 251.774 341.298 254.575L343.256 263.555C342.5 263.81 341.818 264.245 341.27 264.822C340.476 265.891 342.688 273.52 343.468 274.182L341.71 282.401L344.631 284.259L342.036 285.667C344.121 288.299 343.454 298.898 341.142 300.854C341.483 302.642 341.823 304.401 342.234 306.484C340.15 312.574 339.691 319.096 340.901 325.415C341.412 328.54 343.951 331.341 345.965 334.972L350.149 329.511L347.809 328.399L348.83 327.4L350.56 326.921L349.709 326.597C350.22 324.148 350.731 321.699 351.241 319.292C353.851 319.391 356.149 322.445 358.191 319.138C358.447 317.35 359.61 315.562 359.61 313.803C359.454 309.271 358.773 304.767 358.333 300.572C358.981 299.156 359.435 297.661 359.681 296.125C359.681 293.633 359.95 290.72 358.745 288.777C357.539 286.835 357.61 285.723 358.943 284.33L357.043 281.923C363.78 281.444 359.184 275.068 362.716 273.013C362.05 272.084 361.014 271.31 360.915 270.438C360.546 266.905 361.837 263.273 359.752 259.839C358.825 257.964 358.061 256.015 357.468 254.012C357.142 253.196 356.262 252.084 356.532 251.633C358.348 248.706 357.567 246.679 353.95 245.102L356.986 244.455L353.553 239.838L354.078 240.021C353.794 237.882 353.511 235.799 353.17 233.209C351.667 231.379 349.851 229.127 347.88 226.72C349.823 226.073 350.716 225.524 349.071 223.905C347.988 222.644 347.117 221.218 346.49 219.683C345.795 218.275 345.312 216.699 344.731 215.207C343.866 212.997 342.944 210.886 340.249 210.126C339.851 210.013 339.78 208.845 339.568 208.169C339.369 207.235 339.069 206.324 338.674 205.453C336.433 201.695 334.093 197.993 331.781 194.277C332.944 194.112 334.13 194.263 335.213 194.713C339.199 196.276 343.142 197.937 347.156 199.428C352.504 201.413 357.865 203.341 363.284 205.059C365.723 205.861 368.404 206.902 370.801 206.593C372.872 206.325 373.638 207.212 373.766 208.31C374.262 211.364 376.716 211.463 378.914 212.448C382.858 214.193 387.155 215.784 388.333 220.71C388.929 222.678 389.664 224.601 390.531 226.467C391.354 228.48 392.248 230.478 393.07 232.491C395.013 237.206 396.148 242.456 399.056 246.566C402.389 251.239 403.41 256.531 405.637 261.472C407.226 265.005 408.602 269.1 411.396 271.493C414.19 273.886 418.488 274.21 422.743 275.716C422.602 272.901 422.517 270.958 422.389 268.383L423.807 267.44C423.141 261.584 422.772 255.757 417.325 251.957C417.921 251.422 418.744 251.07 418.744 250.549C418.942 249.297 419.41 248.354 420.275 248.579C421.141 248.804 422.346 249.663 422.275 250.057C421.509 254.392 424.715 257.348 426.204 260.866C427.16 262.53 428.317 264.071 429.651 265.455C429.325 265.652 428.573 265.877 428.417 266.3C427.708 268.129 430.403 273.619 432.318 274.533C434.233 275.448 436.218 279.671 435.367 281.177C434.828 282.162 434.133 283.077 433.566 283.992L439.013 285.019C439.761 284.758 440.482 284.428 441.169 284.034C441.779 283.612 442.743 282.81 442.587 282.43C442.176 281.022 442.119 278.981 441.594 278.207C440.076 276.11 440.857 274.688 441.438 272.718C441.849 271.31 440.984 269.565 440.701 267.974C440.799 267.113 440.656 266.241 440.289 265.455C440.119 265.089 439.24 265.033 439.112 264.681C437.892 261.528 437.041 258.206 435.552 255.194C434.658 253.393 435.013 250.043 431.197 250.845C431.424 249.437 431.594 248.41 431.651 248.03L427.311 244.004L429.481 242.301L426.516 240.894C426.814 238.276 427.126 235.686 427.367 233.096C427.495 231.689 428.105 229.704 427.367 228.986C426.175 227.77 425.267 226.309 424.705 224.706C424.144 223.104 423.944 221.398 424.119 219.711C424.431 215.277 419.864 212.462 420.488 208.085C420.488 207.888 420.119 207.451 419.892 207.437C416.871 207.099 417.51 204.918 417.595 203.018C416.43 202.789 415.384 202.159 414.642 201.24C413.9 200.321 413.509 199.171 413.538 197.993C413.283 194.291 413.084 189.829 407.212 189.843C408.006 188.436 410.999 187.028 406.957 186.409C406.651 186.38 406.365 186.245 406.148 186.029C404.503 183.777 402.73 181.581 401.297 179.203C400.638 177.854 400.13 176.438 399.779 174.98C398.799 173.953 397.731 173.011 396.588 172.165C393.439 170.18 391.496 166.282 386.744 166.662C385.553 166.76 384.304 164.621 382.943 164.41C380.106 163.945 377.141 163.931 375.681 160.834C375.567 160.595 374.943 160.497 374.546 160.454C369.44 160.032 365.454 156.879 362.418 153.755C358.957 150.194 354.461 149.771 350.546 148.125C347.61 146.858 343.88 146.717 340.617 145.422C339.284 145.196 337.922 145.196 336.589 145.422H329.327C330.376 140.285 335.667 141.96 338.348 139.356L335.71 137.047L347.979 136.231C348.773 136.696 349.738 137.639 350.348 137.512C352.028 136.909 353.648 136.151 355.184 135.246H363.284C363.284 135.795 363.355 136.653 363.44 137.962C365.794 137.047 367.241 134.627 369.908 136.245C371.737 137.181 373.731 137.759 375.78 137.948C376.73 138.131 378.035 137.23 378.773 137.596C379.715 138.162 380.841 138.343 381.915 138.101C382.989 137.86 383.927 137.215 384.531 136.301C386.347 133.402 389.326 133.332 391.964 132.403C392.974 131.977 394.109 131.947 395.141 132.318C396.765 133.547 398.288 134.903 399.694 136.372L401.453 134.401C403.496 132.023 403.921 132.149 405.311 134.838C406.09 136.092 407.045 137.229 408.148 138.216C409.368 139.482 410.772 140.594 411.907 141.932C414.034 144.423 415.651 147.463 418.162 149.434C420.673 151.404 424.077 152.108 424.616 155.838C424.728 156.239 424.993 156.582 425.353 156.795C427.807 158.414 430.275 160.004 431.906 161.017L441.835 156.795C441.651 155.894 441.353 154.416 441.069 152.952L437.651 152.446L439.069 149.954L437.169 147.618C438.062 147.379 438.814 147.407 439.126 147.787C442.232 151.545 445.381 155.303 448.289 159.216C449.707 161.2 450.615 163.621 452.062 165.62C455.509 170.363 459.154 174.98 462.714 179.695C465.906 183.918 469.026 188.14 472.331 192.25C473.443 193.205 474.685 194.001 476.019 194.615C476.496 196.087 477.134 197.502 477.92 198.837C479.338 200.85 481.196 202.497 482.615 204.467C484.459 207.029 489.395 208.437 491.224 206.1C493.891 202.708 497.182 202.68 500.827 202.792V201.554C499.962 196.135 496.643 190.941 498.501 185.03ZM165.756 78.0586C168.805 77.5378 171.429 77.6504 173.344 76.651C176.635 74.9761 177.457 77.2703 179.188 79.4661C174.351 82.83 170.521 79.8179 165.756 78.1149V78.0586ZM136.565 201.103C135.302 202.032 134.621 203.707 133.387 205.467C132.934 200.611 135.884 198.091 138.721 195.121C139.784 198.091 138.579 199.597 136.565 201.103ZM148.834 208.24L147.756 207.578L153.075 199.865L154.295 200.653L148.834 208.24ZM178.762 176.514L178.039 179.005H177.585L177.202 176.88C176.387 176.979 175.563 176.979 174.748 176.88C173.989 176.59 173.27 176.207 172.606 175.74C173.259 175.233 174.025 174.234 174.564 174.333C177.117 174.572 179.628 175.121 182.152 175.571C182.152 175.81 182.152 176.064 182.152 176.303L178.762 176.514ZM191.315 168.59C188.947 170.391 186.308 168.984 183.769 168.843C183.429 168.843 182.748 167.717 182.862 167.562C183.386 166.845 184.053 165.944 184.819 165.761C186.898 165.407 188.996 165.173 191.103 165.057C191.315 165.212 192.521 165.676 192.521 166.155C192.493 166.626 192.366 167.085 192.148 167.504C191.931 167.924 191.628 168.293 191.259 168.59H191.315ZM160.706 297.068C160.227 298.698 159.565 300.27 158.734 301.755C158.162 303.036 157.688 304.358 157.316 305.71C156.593 308.722 156.025 311.748 155.387 314.774L154.224 314.648C154.224 312.776 154.224 310.904 154.224 309.018H154.337C154.293 308.992 154.255 308.959 154.224 308.919C153.274 308.173 152.196 307.511 153.855 306.203C154.516 305.332 154.866 304.267 154.848 303.176C155.245 299.39 155.798 295.702 158.649 292.775C158.72 292.697 158.773 292.606 158.804 292.506C158.836 292.407 158.846 292.301 158.834 292.198C157.316 288.806 161.515 286.652 160.919 283.429C160.919 283.274 161.983 282.908 162.621 282.627C161.897 287.651 161.429 292.381 160.649 297.068H160.706ZM172.465 269.368C170.209 265.511 172.635 263.203 172.989 260.571L173.826 260.712L172.465 269.368ZM210.223 240.697L208.989 240.894C208.421 236.179 207.854 231.449 207.272 226.678L211.343 225.51C211.343 229.029 210.904 232.378 211.485 235.545C211.652 236.444 211.626 237.367 211.408 238.255C211.191 239.143 210.787 239.975 210.223 240.697ZM220.01 177.021C218.067 179.751 216.364 182.651 214.336 185.353C213.911 185.959 212.776 186.085 211.599 186.592C212.379 184.27 212.932 182.566 213.499 180.863L211.514 179.709C213.201 176.782 214.776 174.079 216.478 171.025C217.045 171.335 217.386 171.574 217.755 171.729C220.393 172.77 222.095 174.065 220.01 177.007V177.021ZM219.896 109.601C219.003 110.516 218.308 111.248 217.599 111.994C217.301 107.067 221.655 106.082 227.272 109.179C226.232 109.986 224.969 110.459 223.651 110.535C222.333 110.61 221.023 110.284 219.896 109.601ZM240.974 161.946C239.478 162.727 237.939 163.422 236.364 164.03C234.795 164.36 233.201 164.562 231.598 164.635L231.471 163.509L241.981 158.54L243.839 160.891C242.818 161.243 241.839 161.538 240.917 161.946H240.974ZM283.413 105.364C282.377 105.941 282.448 108.348 281.923 109.897C281.472 111.215 280.937 112.503 280.321 113.753C279.611 115.161 278.76 116.568 278.151 117.61C276.732 119.552 275.498 121.185 274.335 122.86C273.668 123.845 273.498 124.633 271.824 123.549C269.924 122.311 267.385 121.987 264.293 121.002C265.019 120.831 265.702 120.515 266.301 120.074C266.901 119.633 267.403 119.076 267.779 118.436C268.154 117.796 268.394 117.087 268.485 116.353C268.576 115.618 268.515 114.872 268.307 114.161L270.037 115.02C270.775 113.612 271.456 112.5 271.995 111.318C272.517 109.864 273.153 108.452 273.895 107.096C274.732 105.857 275.966 104.083 277.115 104.013C280.335 103.802 280.335 101.634 280.888 99.312C281.895 100.241 282.86 100.973 283.64 101.86C284.576 102.972 285.867 103.971 283.356 105.364H283.413ZM316.547 116.104C313.965 118.102 312.675 121.903 308.419 121.565C308.212 121.576 308.008 121.627 307.821 121.717C307.633 121.806 307.466 121.932 307.327 122.086C306.079 123.493 304.902 124.901 303.696 126.308L302.618 125.633C302.831 124.478 302.122 122.818 304.675 123.057C305.115 123.057 305.639 122.48 306.093 122.128C307.512 121.016 308.93 119.904 310.348 118.764C311.412 117.905 312.434 116.99 313.724 115.949C315.143 117.483 315.696 115.583 316.987 114.541C316.831 115.048 316.859 115.822 316.49 116.104H316.547ZM353.497 191.209C353.213 192.489 352.958 193.728 352.603 195.431L338.419 189.28C338.518 189.013 338.617 188.731 338.731 188.464L353.497 191.209ZM337.412 157.034C339.781 157.808 342.05 158.878 344.362 159.849C344.163 160.398 343.951 160.947 343.738 161.496C341.015 160.708 338.32 159.399 335.554 159.258C331.866 159.075 329.298 155.796 325.242 156.542C323.369 156.893 321.157 155.514 319.086 154.909L319.214 153.783C321.603 153.576 324.008 153.609 326.391 153.881C330.105 154.718 333.766 155.77 337.355 157.034H337.412ZM329.809 80.2402C328.291 81.0284 327.809 83.6182 326.717 85.2932C326.022 86.3629 325.015 87.2355 324.221 88.249C322.277 90.7403 321.469 88.4601 320.05 87.5311C321.667 85.6591 326.277 86.2644 323.412 82.1826C325.369 81.6899 327.469 81.3099 327.27 78.6497C327.27 78.4104 328.433 78.1008 329.086 77.8052C327.88 75.1309 329.894 74.3005 332.235 73.2871C332.164 76.1021 333.185 78.5653 329.809 80.2402ZM332.646 102.366C333.313 98.8335 335.483 98.1438 337.837 97.5808C338.107 98.6646 338.107 98.6646 332.703 102.423L332.646 102.366ZM375.907 103.774L373.525 103.478C372.106 106.631 369.851 107.49 366.05 106.293C364.754 105.807 363.333 105.764 362.01 106.169C360.687 106.574 359.538 107.405 358.745 108.531C358.459 108.827 358.095 109.036 357.695 109.136C354.66 110.248 354.192 111.346 355.44 114.598L345.511 122.226C344.277 119.144 348.915 116.076 345 113.781C346.178 111.811 346.873 109.404 348.518 108.151C350.433 106.744 351.355 103.661 355.17 104.492C357.468 104.998 360.546 103.943 362.745 102.704C366.432 100.621 370.574 101.142 374.361 99.8891C374.678 99.9175 374.983 100.022 375.25 100.194C375.517 100.365 375.738 100.599 375.893 100.874C376.037 101.849 376.046 102.839 375.922 103.816L375.907 103.774ZM394.418 102.859L388.957 102.549V101.353L391.694 99.9454L394.531 101.986L394.418 102.859ZM409.084 113.683C408.332 113.852 407.113 111.895 406.077 110.868C405.042 109.84 404.148 109.122 402.701 107.813L405.793 105.153C405.949 109.136 408.857 110.91 412.885 110.178L413.439 110.84C412.077 111.937 410.729 113.373 409.141 113.725L409.084 113.683Z" fill="black"></path> <path d="M371.666 586.579C371.198 586.861 370.702 587.114 370.177 587.382L368.56 588.113L366.986 588.761L365.567 589.338C364.674 589.676 363.44 590.126 361.823 590.675C360.206 591.224 358.418 591.829 356.461 592.449C354.504 593.068 352.475 593.701 350.376 594.307C348.277 594.912 346.348 595.447 344.532 595.883C342.971 596.285 341.39 596.605 339.795 596.84C338.904 597.053 337.976 597.053 337.086 596.84C336.986 596.742 336.859 596.573 336.66 596.319C336.448 596.067 336.249 595.804 336.064 595.531L335.483 594.729L335.128 594.18L334.958 593.898C334.863 593.725 334.777 593.546 334.703 593.363L334.32 592.533C334.192 592.252 334.064 591.984 333.965 591.731C333.866 591.477 333.781 591.294 333.738 591.196C333.696 591.097 333.738 590.858 333.738 590.365C333.738 589.873 333.554 589.31 333.44 588.705C333.327 588.099 333.227 587.48 333.142 586.875C333.056 586.411 333.032 585.938 333.071 585.467L333.242 584.75L333.511 583.68C333.61 583.314 333.696 582.948 333.781 582.61C333.866 582.272 333.937 582.033 333.993 581.906C334.217 581.734 334.413 581.53 334.575 581.301L335.015 580.654C335.148 580.423 335.305 580.206 335.483 580.006C335.684 579.788 335.918 579.603 336.178 579.457C336.377 579.353 336.593 579.282 336.816 579.246L337.653 579.148L338.476 579.063C338.674 579.054 338.87 579.016 339.057 578.951L343.426 580.597C343.653 580.893 343.837 581.104 343.965 581.245C344.096 581.379 344.238 581.501 344.39 581.611L344.887 581.906C345.071 582.005 345.312 582.16 345.61 582.357C346.264 582.824 346.826 583.406 347.27 584.074C347.709 584.749 348.135 585.411 348.518 586.073L348.929 586.748C349.058 586.977 349.2 587.198 349.355 587.41L349.525 587.691L349.752 588.268C349.837 588.508 349.936 588.733 350.036 588.972C350.135 589.211 350.263 589.493 350.419 589.831C350.419 589.831 350.419 589.985 350.419 590.14C350.419 590.295 350.419 590.478 350.419 590.661C350.419 590.844 350.419 591.027 350.334 591.182C350.344 591.275 350.344 591.37 350.334 591.463C350.339 591.491 350.339 591.52 350.334 591.548V591.646L350.433 591.745L361.454 587.987L361.894 588.099L364.135 587.128L366.007 586.298C366.645 586.016 367.17 585.763 367.581 585.566L368.617 585.031C369.076 584.791 369.55 584.579 370.035 584.398C370.489 584.22 370.967 584.116 371.454 584.088C371.624 584.063 371.799 584.088 371.955 584.161C372.112 584.233 372.243 584.35 372.333 584.496C372.458 584.667 372.547 584.861 372.593 585.066C372.64 585.272 372.643 585.485 372.603 585.693C372.519 585.898 372.392 586.083 372.231 586.236C372.069 586.389 371.877 586.506 371.666 586.579ZM347.908 590.154C347.876 590.029 347.833 589.907 347.78 589.788C347.78 589.605 347.639 589.422 347.553 589.211C347.468 589 347.397 588.817 347.341 588.648C347.295 588.528 347.243 588.411 347.185 588.296L346.844 587.733C346.759 587.607 346.575 587.382 346.305 587.058L345.483 586.044L344.66 585.045C344.39 584.735 344.22 584.51 344.121 584.398C343.549 584.383 342.996 584.186 342.546 583.835C342.022 583.455 341.468 583.089 340.915 582.737C340.34 582.384 339.706 582.136 339.043 582.005C338.237 581.907 337.423 582.096 336.745 582.54C336.28 582.81 335.913 583.219 335.695 583.708C335.459 584.238 335.32 584.805 335.284 585.383C335.255 586.027 335.288 586.673 335.383 587.311C335.492 587.976 335.638 588.634 335.823 589.282C335.986 589.89 336.189 590.488 336.433 591.069C336.625 591.522 336.843 591.964 337.086 592.392C337.385 592.928 337.732 593.437 338.121 593.912C338.347 594.199 338.661 594.406 339.015 594.504C339.386 594.601 339.777 594.601 340.149 594.504L341.88 593.983C342.405 593.856 342.901 593.743 343.298 593.673L344.646 593.406C345.094 593.298 345.534 593.162 345.965 592.998C346.455 592.788 346.929 592.544 347.383 592.266C347.28 592.096 347.214 591.907 347.19 591.711C347.165 591.514 347.183 591.315 347.241 591.126C347.394 590.745 347.643 590.411 347.965 590.154H347.908Z" fill="#231F20"></path> <path d="M337.142 570.843L337.227 570.942L349.199 567.62C349.278 567.545 349.369 567.484 349.468 567.437C349.638 567.334 349.738 567.292 349.766 567.31C350.134 567.203 350.494 567.071 350.844 566.916C351.133 566.778 351.438 566.674 351.752 566.607C352.007 566.534 352.277 566.534 352.532 566.607C352.809 566.743 353.033 566.966 353.17 567.24C353.341 567.474 353.435 567.754 353.44 568.042C353.44 568.211 353.199 568.394 352.816 568.605C352.413 568.827 351.991 569.011 351.553 569.154C351.099 569.309 350.631 569.45 350.135 569.577L348.717 569.971C348.273 570.102 347.838 570.257 347.412 570.435C346.966 570.63 346.479 570.712 345.993 570.674C345.513 570.638 345.03 570.701 344.575 570.857C343.27 571.294 341.965 571.702 340.632 572.04L336.632 573.067C335.284 573.405 333.951 573.771 332.603 574.165C331.28 574.554 329.982 575.024 328.717 575.573L327.866 574.052C327.16 574.476 326.314 574.607 325.511 574.418C324.675 574.207 323.889 573.834 323.199 573.321C322.461 572.76 321.79 572.118 321.199 571.406C320.668 570.748 320.193 570.047 319.781 569.309C319.213 568.424 319.014 567.353 319.228 566.325C319.359 565.837 319.594 565.382 319.917 564.991C320.24 564.601 320.643 564.283 321.1 564.059C321.944 563.598 322.888 563.347 323.852 563.327C324.918 563.29 325.986 563.385 327.029 563.609C328.093 563.833 329.137 564.143 330.149 564.538C331.056 564.892 331.933 565.316 332.774 565.804C332.949 565.938 333.115 566.084 333.27 566.241L333.979 566.888C334.216 567.102 334.467 567.3 334.731 567.479C334.912 567.629 335.135 567.722 335.369 567.747C335.426 567.559 335.507 567.379 335.61 567.212C335.693 567.032 335.788 566.858 335.894 566.691C336.782 565.37 337.574 563.987 338.263 562.553C338.944 561.146 339.596 559.654 340.22 558.19C340.844 556.726 341.454 555.22 342.05 553.742C342.646 552.264 343.312 550.786 344.022 549.365L344.206 549.055C344.288 548.918 344.378 548.787 344.475 548.661L344.702 548.323C344.74 548.26 344.788 548.202 344.844 548.154C344.909 548.126 344.979 548.111 345.05 548.111C345.121 548.111 345.191 548.126 345.256 548.154C345.437 548.221 345.608 548.311 345.766 548.422C345.931 548.537 346.088 548.664 346.234 548.802C346.34 548.91 346.435 549.027 346.518 549.154C346.603 549.294 346.518 549.702 346.277 550.378C346.036 551.054 345.667 551.856 345.213 552.841C344.759 553.826 344.206 554.938 343.61 556.149C343.014 557.359 342.376 558.612 341.724 559.879C341.071 561.146 340.461 562.384 339.866 563.609C339.27 564.833 338.731 565.945 338.277 566.959C337.823 567.972 337.483 568.802 337.242 569.492C337 570.182 337.029 570.646 337.142 570.843ZM333.653 571.857C333.959 571.673 334.225 571.428 334.433 571.139C334.547 570.981 334.609 570.791 334.609 570.597C334.609 570.403 334.547 570.213 334.433 570.055C334.123 569.571 333.712 569.158 333.227 568.845C332.585 568.392 331.901 568.001 331.185 567.676C330.375 567.3 329.541 566.975 328.689 566.705C327.852 566.433 326.999 566.212 326.135 566.044C325.373 565.907 324.599 565.841 323.823 565.847C323.234 565.82 322.647 565.946 322.121 566.213C321.895 566.32 321.711 566.498 321.596 566.719C321.513 566.914 321.483 567.128 321.511 567.339C321.528 567.563 321.586 567.782 321.682 567.986C321.781 568.211 321.894 568.408 321.994 568.605C322.387 569.299 322.912 569.911 323.54 570.407C324.14 570.867 324.765 571.295 325.412 571.688C326.036 572.063 326.589 572.415 327.072 572.744C327.495 573.002 327.819 573.394 327.994 573.855C328.447 573.623 328.922 573.434 329.412 573.292C329.908 573.152 330.391 572.997 330.83 572.87L332.249 572.42C332.736 572.283 333.207 572.094 333.653 571.857Z" fill="#231F20"></path> <path d="M332.561 553.714C331.546 554.281 330.458 554.707 329.327 554.981C328.261 555.232 327.181 555.42 326.093 555.544C325.015 555.656 323.923 555.755 322.831 555.825C321.72 555.913 320.617 556.068 319.526 556.29L319.611 556.43V556.585C319.835 556.775 320.083 556.936 320.348 557.064C320.628 557.192 320.918 557.301 321.214 557.387C321.511 557.486 321.795 557.556 322.093 557.627L322.873 557.796C322.864 558.054 322.784 558.304 322.642 558.52C322.499 558.736 322.3 558.909 322.065 559.02C321.73 559.204 321.362 559.318 320.981 559.357C320.601 559.396 320.217 559.358 319.852 559.245C319.034 559.003 318.269 558.612 317.597 558.091C316.878 557.56 316.226 556.945 315.653 556.261C315.146 555.694 314.699 555.076 314.32 554.418C313.728 553.371 313.334 552.227 313.157 551.04C313.009 549.994 313.086 548.929 313.384 547.915C313.707 546.911 314.239 545.986 314.944 545.198C315.759 544.314 316.718 543.571 317.781 543.003C318.719 542.505 319.708 542.109 320.731 541.82C321.884 541.476 323.066 541.236 324.263 541.103C325.51 540.952 326.768 540.915 328.022 540.99C329.239 541.055 330.443 541.263 331.61 541.609C332.696 541.915 333.725 542.39 334.66 543.017C335.566 543.647 336.313 544.475 336.844 545.438C337.313 546.227 337.522 547.143 337.44 548.056C337.344 548.879 337.036 549.664 336.547 550.336C336.032 551.062 335.405 551.703 334.688 552.236C334.022 552.786 333.31 553.281 332.561 553.714ZM331.596 551.265C332.121 550.983 332.632 550.688 333.128 550.392C333.59 550.109 334.007 549.758 334.362 549.351C334.678 548.972 334.884 548.514 334.958 548.028C335.008 547.414 334.853 546.801 334.518 546.282C334.114 545.546 333.516 544.933 332.788 544.509C331.996 544.058 331.14 543.731 330.249 543.538C329.266 543.325 328.262 543.221 327.256 543.228C326.221 543.219 325.187 543.29 324.164 543.439C323.204 543.576 322.256 543.783 321.327 544.058C320.564 544.269 319.827 544.562 319.128 544.931C318.608 545.227 318.11 545.561 317.639 545.93C317.051 546.383 316.513 546.897 316.036 547.465C315.574 548.004 315.217 548.624 314.987 549.294C314.879 549.606 314.84 549.936 314.872 550.264C314.903 550.592 315.006 550.909 315.171 551.194L317.058 554.643C317.177 554.796 317.333 554.917 317.511 554.995C317.698 555.092 317.899 555.159 318.107 555.192C318.073 554.94 318.073 554.684 318.107 554.432C318.113 554.307 318.153 554.186 318.223 554.081C318.293 553.977 318.39 553.894 318.504 553.841C318.828 553.657 319.196 553.564 319.568 553.573C319.943 553.586 320.317 553.618 320.689 553.672L321.809 553.826C322.177 553.874 322.551 553.835 322.901 553.714L323.171 553.545C323.263 553.484 323.363 553.437 323.469 553.404C323.469 553.404 323.625 553.475 323.767 553.615C323.908 553.756 324.022 553.826 324.065 553.826C324.651 553.831 325.235 553.746 325.795 553.573C326.476 553.39 327.213 553.151 327.937 552.883C328.66 552.616 329.355 552.32 330.05 552.025C330.745 551.729 331.227 551.476 331.596 551.265Z" fill="#231F20"></path> <path d="M339.554 530.236C339.071 530.49 338.561 530.729 338.022 530.954C337.468 531.194 336.93 531.405 336.376 531.616L334.759 532.193L333.341 532.686C332.447 532.981 331.185 533.375 329.54 533.854C327.894 534.332 326.093 534.839 324.093 535.374C322.093 535.909 320.05 536.43 317.937 536.922C315.823 537.415 313.852 537.865 312.022 538.231C310.442 538.555 308.847 538.8 307.242 538.963C306.338 539.115 305.411 539.058 304.533 538.794C304.448 538.696 304.32 538.513 304.136 538.259C303.951 538.006 303.767 537.739 303.583 537.443L303.044 536.613C302.888 536.359 302.774 536.162 302.717 536.05L302.632 535.909V535.754C302.632 535.655 302.505 535.487 302.391 535.219L302.065 534.375C301.937 534.079 301.838 533.798 301.739 533.544C301.663 533.365 301.597 533.181 301.54 532.995C301.611 532.995 301.611 532.657 301.54 532.165C301.469 531.672 301.398 531.109 301.313 530.49C301.228 529.871 301.171 529.251 301.115 528.66C301.043 528.194 301.043 527.719 301.115 527.253C301.166 527.009 301.232 526.77 301.313 526.535C301.412 526.197 301.526 525.845 301.639 525.479C301.753 525.113 301.852 524.761 301.966 524.423C302.079 524.086 302.15 523.86 302.193 523.734C302.43 523.569 302.64 523.37 302.817 523.143C302.973 522.946 303.129 522.734 303.271 522.523C303.429 522.307 303.599 522.101 303.781 521.904C303.991 521.691 304.235 521.515 304.505 521.383C304.709 521.3 304.924 521.243 305.143 521.214H306.817C307.013 521.214 307.208 521.19 307.398 521.144L311.653 522.988C311.806 523.222 311.971 523.448 312.15 523.663C312.273 523.805 312.411 523.932 312.561 524.043C312.712 524.166 312.873 524.274 313.043 524.367C313.214 524.48 313.455 524.635 313.738 524.86C314.369 525.355 314.903 525.961 315.313 526.647C315.724 527.337 316.107 528.055 316.462 528.702L316.831 529.392C316.958 529.631 317.086 529.856 317.228 530.082L317.313 530.222V530.363C317.313 530.518 317.441 530.701 317.511 530.954L317.767 531.672L318.093 532.545C318.106 532.648 318.106 532.752 318.093 532.855C318.093 533.009 318.093 533.192 318.022 533.375C317.951 533.558 317.951 533.741 317.923 533.896C317.894 534.051 317.923 534.135 317.923 534.163C317.92 534.196 317.92 534.229 317.923 534.262C317.923 534.262 317.923 534.332 317.923 534.346L318.008 534.459L329.199 531.236L329.639 531.377L331.923 530.504L333.837 529.758C334.49 529.505 335.029 529.293 335.44 529.096C335.852 528.899 336.036 528.843 336.504 528.618C336.966 528.405 337.44 528.217 337.922 528.055C338.379 527.899 338.858 527.818 339.341 527.816C339.51 527.795 339.682 527.826 339.834 527.904C339.986 527.981 340.111 528.103 340.192 528.252C340.313 528.429 340.396 528.63 340.435 528.841C340.474 529.051 340.468 529.268 340.419 529.476C340.235 529.827 339.926 530.098 339.554 530.236ZM315.639 532.657C315.639 532.587 315.639 532.474 315.54 532.292C315.441 532.109 315.412 531.926 315.341 531.714C315.27 531.503 315.199 531.306 315.143 531.123C315.086 530.94 315.043 530.828 315.015 530.771L314.859 530.49L314.703 530.194L313.412 528.449L312.646 527.407L312.136 526.732C311.567 526.685 311.026 526.464 310.59 526.098C310.079 525.695 309.554 525.301 309.015 524.916C308.459 524.538 307.839 524.262 307.185 524.1C306.382 523.957 305.554 524.112 304.859 524.536C304.379 524.778 303.99 525.168 303.753 525.648C303.491 526.163 303.328 526.721 303.271 527.295C303.2 527.94 303.2 528.592 303.271 529.237C303.356 529.913 303.469 530.574 303.611 531.222C303.746 531.833 303.922 532.435 304.136 533.023C304.306 533.504 304.504 533.974 304.732 534.431C305 534.979 305.318 535.502 305.682 535.993C305.894 536.292 306.197 536.514 306.547 536.627C306.92 536.72 307.309 536.72 307.682 536.627C308.107 536.528 308.703 536.416 309.441 536.289C310.178 536.162 310.462 536.106 310.93 536.05C311.398 535.993 311.838 535.923 312.278 535.838C312.76 535.761 313.234 535.643 313.696 535.487C314.186 535.311 314.661 535.094 315.114 534.839C315.019 534.664 314.961 534.47 314.947 534.271C314.932 534.072 314.96 533.872 315.029 533.685C315.14 533.296 315.35 532.942 315.639 532.657Z" fill="#231F20"></path> <path d="M321.043 511.7C320.375 512.027 319.67 512.278 318.944 512.446C318.192 512.614 317.441 512.755 316.66 512.882L314.32 513.206C313.54 513.318 312.802 513.445 312.079 513.614L311.285 513.811L309.866 514.121L308.164 514.472C307.568 514.599 307.029 514.712 306.519 514.796L305.285 515.007C305.115 515.03 304.944 515.03 304.774 515.007L303.356 515.232L298.859 515.936L297.441 516.161C296.859 516.161 296.249 516.316 295.583 516.429C294.93 516.529 294.271 516.58 293.611 516.584C292.98 516.568 292.353 516.488 291.739 516.344C291.122 516.175 290.56 515.85 290.108 515.401C290.299 515.048 290.378 514.646 290.335 514.247C290.267 513.856 290.267 513.456 290.335 513.065C290.524 512.133 290.943 511.263 291.554 510.531C292.152 509.814 292.806 509.146 293.512 508.533L295.54 507.379L298.661 505.619L302.32 503.564L305.966 501.523L309.086 499.764L311.129 498.624L312.079 498.131L312.604 497.892C312.79 497.81 312.985 497.749 313.185 497.709C313.372 497.667 313.566 497.667 313.753 497.709C313.952 497.797 314.109 497.959 314.192 498.159C314.256 498.271 314.289 498.397 314.289 498.525C314.289 498.653 314.256 498.779 314.192 498.891C314.082 499.105 313.939 499.299 313.767 499.468C313.653 499.581 313.469 499.736 313.228 499.933C312.987 500.13 312.76 500.341 312.519 500.538L311.838 501.073L311.441 501.368L310.278 502.058C309.724 502.382 309.129 502.734 308.49 503.086L306.675 504.085C306.107 504.395 305.71 504.606 305.469 504.718L306.547 506.224C306.944 506.806 307.341 507.411 307.739 508.04C308.136 508.673 308.519 509.321 308.873 509.954C309.213 510.541 309.516 511.147 309.781 511.77H310.164L310.774 511.686L311.412 511.615L311.824 511.545C312.552 511.515 313.278 511.43 313.994 511.291C314.802 511.151 315.611 510.968 316.433 510.757C317.256 510.545 318.05 510.306 318.816 510.039C319.582 509.771 320.235 509.504 320.873 509.236C321.1 509.279 321.323 509.341 321.54 509.419C321.757 509.481 321.97 509.556 322.178 509.645L322.263 509.785C322.372 509.993 322.411 510.23 322.377 510.461C322.337 510.656 322.243 510.836 322.107 510.982C321.975 511.138 321.816 511.272 321.639 511.376L321.043 511.7ZM292.235 514.712C293.377 514.809 294.526 514.809 295.668 514.712C296.902 514.585 298.164 514.416 299.441 514.191C300.717 513.966 301.966 513.726 303.185 513.445L306.547 512.727L303.285 506.295L302.845 506.154L302.703 506.224L302.377 506.365L302.008 506.534L301.696 506.689C300.401 507.336 299.152 507.998 297.952 508.673C296.732 509.349 295.498 510.081 294.249 510.813C294.02 511.107 293.838 511.435 293.71 511.784C293.554 512.15 293.427 512.516 293.285 512.868C293.143 513.22 293.001 513.572 292.845 513.909C292.699 514.215 292.491 514.488 292.235 514.712Z" fill="#231F20"></path> <path d="M301.455 501.397C300.21 501.565 298.953 501.636 297.696 501.608C296.434 501.608 295.171 501.495 293.895 501.397C292.61 501.312 291.321 501.312 290.037 501.397L284.789 499.567C284.688 499.451 284.602 499.323 284.533 499.187L284.207 498.61C284.056 498.279 283.924 497.941 283.81 497.596C283.717 497.29 283.67 496.973 283.668 496.653C283.685 496.356 283.783 496.069 283.952 495.823C284.176 495.535 284.468 495.308 284.803 495.161L285.129 495.006C285.33 494.91 285.546 494.848 285.767 494.823C285.854 494.8 285.947 494.807 286.029 494.843C286.112 494.879 286.179 494.942 286.221 495.021C286.311 495.169 286.35 495.341 286.335 495.513C286.335 495.654 286.335 495.809 286.335 495.95C286.335 496.09 286.335 496.245 286.264 496.386C286.25 496.538 286.285 496.691 286.363 496.822C286.612 497.317 287.001 497.728 287.484 498.004C288.04 498.321 288.63 498.576 289.243 498.765C289.943 498.97 290.66 499.121 291.384 499.215C292.113 499.325 292.847 499.396 293.583 499.426H297.115L296.604 498.399C296.047 497.256 295.432 496.143 294.76 495.063C294.079 493.965 293.342 492.881 292.618 491.811C291.895 490.742 291.129 489.686 290.363 488.645C289.597 487.603 288.86 486.59 288.15 485.576L287.782 485.154L287.157 484.408C286.945 484.155 286.76 483.901 286.576 483.662C286.461 483.52 286.357 483.369 286.264 483.211C286.264 483.211 286.179 483.057 286.079 482.86C285.98 482.663 285.895 482.522 285.838 482.437C285.778 482.273 285.736 482.103 285.711 481.931C285.69 481.697 285.69 481.461 285.711 481.227C285.719 481.007 285.772 480.792 285.867 480.594C285.906 480.504 285.972 480.427 286.055 480.375C286.139 480.322 286.236 480.295 286.335 480.298C286.693 480.281 287.048 480.369 287.356 480.551C287.717 480.741 288.051 480.978 288.349 481.255C288.661 481.522 288.946 481.819 289.2 482.142C289.423 482.407 289.631 482.684 289.824 482.972C289.909 483.085 290.094 483.366 290.391 483.831L291.356 485.323C291.682 485.872 292.008 486.364 292.306 486.829C292.604 487.293 292.789 487.575 292.874 487.687L293.654 488.743L294.874 490.362C295.299 490.925 295.696 491.459 296.093 491.966C296.491 492.473 296.76 492.811 296.93 492.994C297.1 493.177 297.171 493.43 297.327 493.444C297.485 493.451 297.641 493.417 297.781 493.346C298.003 493.241 298.198 493.087 298.349 492.895L298.817 492.262C298.973 492.051 299.143 491.825 299.327 491.614C299.511 491.404 299.738 491.236 299.994 491.122C300.7 490.771 301.497 490.643 302.278 490.756C303.097 490.872 303.889 491.129 304.618 491.516C305.368 491.918 306.056 492.425 306.661 493.022C307.238 493.561 307.717 494.194 308.079 494.894C308.384 495.474 308.558 496.113 308.59 496.766C308.595 497.267 308.446 497.758 308.164 498.173C307.854 498.612 307.465 498.989 307.015 499.285C306.472 499.65 305.904 499.974 305.313 500.256C304.101 500.849 302.796 501.234 301.455 501.397ZM309.568 484.703L309.171 484.901C309.031 484.958 308.883 484.992 308.731 484.999C308.668 485.008 308.603 484.998 308.545 484.971C308.487 484.943 308.438 484.899 308.405 484.844C306.377 485.604 304.349 486.252 302.292 486.871C300.217 487.46 298.11 487.93 295.98 488.279C295.364 488.248 294.766 488.07 294.235 487.758C293.745 487.364 293.36 486.856 293.115 486.28C293.641 486.021 294.199 485.832 294.774 485.717C295.356 485.59 295.952 485.492 296.562 485.407L298.377 485.196C298.959 485.127 299.534 485.005 300.093 484.83C301.682 484.352 303.271 483.901 304.845 483.423C306.423 482.99 307.96 482.425 309.441 481.734C309.769 481.679 310.105 481.679 310.434 481.734C310.597 481.761 310.752 481.826 310.885 481.924C311.018 482.022 311.126 482.149 311.2 482.297C311.289 482.513 311.289 482.756 311.2 482.972C311.134 483.198 311.023 483.409 310.873 483.592C310.705 483.786 310.515 483.961 310.306 484.112C310.112 484.249 309.908 484.371 309.696 484.478L309.568 484.703ZM305.767 496.667C305.752 496.39 305.684 496.118 305.568 495.865C305.352 495.431 305.07 495.032 304.732 494.683C304.388 494.311 303.985 493.997 303.54 493.754C303.103 493.511 302.62 493.363 302.122 493.317C301.633 493.269 301.14 493.362 300.703 493.585C300.292 493.782 300.065 494.021 300.022 494.331C299.959 494.633 299.959 494.944 300.022 495.246C300.022 495.555 300.15 495.851 300.221 496.132C300.254 496.252 300.256 496.379 300.226 496.499C300.196 496.62 300.136 496.731 300.051 496.822L301.058 498.891C301.058 498.99 301.299 499.004 301.625 498.891C301.951 498.779 302.306 498.722 302.703 498.61C303.083 498.502 303.457 498.375 303.824 498.23L304.462 497.976L304.973 497.709L305.483 497.456C305.65 497.224 305.748 496.951 305.767 496.667Z" fill="#231F20"></path> <path d="M303.356 476.202C302.677 476.511 301.963 476.733 301.228 476.864C300.476 477.004 299.71 477.131 298.93 477.216L296.576 477.455C295.81 477.525 295.058 477.638 294.32 477.779L293.526 477.933L292.108 478.187L290.391 478.482L288.746 478.736L287.498 478.905C287.172 478.905 287.001 478.905 286.987 478.905L281.044 479.608L279.626 479.777C279.044 479.777 278.42 479.876 277.753 479.96C277.1 480.044 276.44 480.072 275.782 480.045C275.152 480.014 274.529 479.91 273.924 479.735C273.315 479.547 272.766 479.202 272.335 478.736C272.541 478.393 272.631 477.993 272.59 477.596C272.568 477.194 272.602 476.792 272.69 476.399C272.923 475.485 273.376 474.64 274.009 473.936C274.64 473.239 275.323 472.59 276.051 471.994L278.122 470.938L281.314 469.291L285.044 467.391L288.774 465.477L291.966 463.844L294.037 462.774L295.015 462.324L295.54 462.113L296.136 461.944C296.322 461.895 296.517 461.895 296.703 461.944C296.894 462.036 297.041 462.197 297.115 462.394C297.178 462.509 297.211 462.637 297.211 462.767C297.211 462.898 297.178 463.026 297.115 463.14C296.995 463.351 296.841 463.541 296.661 463.703L296.108 464.154L295.37 464.717L294.675 465.238C294.545 465.336 294.407 465.426 294.264 465.505L293.072 466.152L291.242 467.11L289.399 468.039L287.98 468.714L289.001 470.262C289.37 470.854 289.753 471.459 290.122 472.12C290.491 472.782 290.845 473.415 291.186 474.077C291.494 474.676 291.769 475.291 292.008 475.921H294.065C294.796 475.914 295.526 475.858 296.249 475.752C297.058 475.639 297.866 475.484 298.703 475.315C299.54 475.146 300.334 474.921 301.115 474.682C301.822 474.476 302.518 474.231 303.2 473.95L303.852 474.161L304.49 474.415L304.561 474.569C304.667 474.773 304.702 475.006 304.661 475.231C304.604 475.423 304.508 475.6 304.377 475.752C304.227 475.897 304.06 476.025 303.881 476.132C303.707 476.164 303.532 476.188 303.356 476.202ZM274.392 478.102C275.531 478.231 276.68 478.26 277.824 478.187C279.073 478.116 280.335 477.99 281.611 477.821C282.888 477.652 284.165 477.441 285.399 477.216L288.774 476.624L285.767 470.122L285.328 469.953H285.186L284.845 470.079L284.491 470.234L284.165 470.375C282.86 470.966 281.583 471.585 280.349 472.219C279.115 472.852 277.853 473.514 276.562 474.218C276.324 474.503 276.128 474.821 275.98 475.161C275.824 475.526 275.668 475.878 275.526 476.23C275.385 476.582 275.214 476.934 275.044 477.258C274.891 477.583 274.668 477.871 274.392 478.102Z" fill="#231F20"></path> <path d="M295.881 461.001C293.909 461.128 291.937 461.226 289.966 461.282C287.994 461.339 286.051 461.282 284.108 461.282C283.825 461.254 283.54 461.254 283.257 461.282L282.392 461.437C282.094 461.437 281.81 461.522 281.541 461.55C281.259 461.563 280.977 461.535 280.704 461.465L271.115 461.916C270.871 461.732 270.57 461.638 270.264 461.648C269.86 461.649 269.457 461.682 269.059 461.747L267.64 461.986C267.173 462.074 266.696 462.102 266.222 462.071C265.813 462.062 265.412 461.951 265.059 461.747C264.683 461.517 264.402 461.163 264.264 460.748V460.621C264.308 460.475 264.365 460.334 264.434 460.199C264.493 460.052 264.565 459.911 264.647 459.776H264.761L264.945 459.706L266.59 459.439L266.888 459.326L267.2 459.213L267.995 458.566L268.902 458.017L271.739 456.356L272.633 455.807C273.342 455.286 273.952 454.822 274.491 454.4L276.278 452.992C276.931 452.514 277.555 452.035 278.151 451.585L279.753 450.36C280.236 449.994 280.562 449.727 280.732 449.572L281.427 448.981L282.448 448.08C282.817 447.756 283.2 447.418 283.569 447.052C283.938 446.686 284.278 446.349 284.576 446.011C284.839 445.732 285.076 445.431 285.285 445.11C285.455 444.843 285.512 444.646 285.455 444.505C285.399 444.364 284.959 444.069 284.278 443.984C283.444 443.895 282.606 443.863 281.767 443.886C280.775 443.886 279.682 443.886 278.505 444.012C277.328 444.139 276.236 444.125 275.186 444.153C274.136 444.181 273.229 444.153 272.434 444.153C271.89 444.181 271.348 444.07 270.86 443.829L270.278 443.928L269.371 444.083L268.477 444.209H266.633C266.08 444.209 265.512 444.209 264.945 444.139C264.428 444.103 263.915 444.018 263.413 443.886C262.959 443.745 262.69 443.562 262.591 443.323C262.427 443.001 262.358 442.64 262.392 442.281C262.392 442.084 262.732 441.901 263.243 441.718C263.626 441.565 264.026 441.456 264.434 441.394C264.806 441.35 265.181 441.327 265.555 441.324H266.647C267.016 441.324 267.427 441.324 267.867 441.324L274.051 441.085C274.551 441.32 275.103 441.422 275.654 441.38C276.448 441.38 277.413 441.38 278.491 441.268C279.569 441.155 280.775 441.056 282.023 440.916C283.271 440.775 284.463 440.648 285.597 440.55C286.732 440.451 287.753 440.381 288.633 440.339C289.269 440.289 289.909 440.331 290.533 440.465L290.831 441.239C290.945 441.497 291.008 441.774 291.016 442.056C291.017 442.244 290.946 442.425 290.817 442.563C290.65 442.74 290.447 442.879 290.221 442.971L289.214 443.407C289.199 443.877 289.057 444.334 288.803 444.73C288.476 445.294 288.091 445.822 287.654 446.306C287.186 446.855 286.647 447.418 286.051 447.995C285.455 448.573 284.86 449.107 284.278 449.614L282.604 451.022L281.328 452.007L280.392 452.739C279.895 453.147 279.356 453.569 278.775 454.02L277.172 455.286C276.675 455.68 276.363 455.934 276.236 456.018C276.033 456.187 275.82 456.342 275.597 456.483L274.434 457.257L273.285 458.003L272.619 458.439L272.179 458.791C272.05 458.876 271.931 458.975 271.824 459.087C271.824 459.087 271.824 459.087 271.824 459.157C271.815 459.189 271.815 459.223 271.824 459.256C271.83 459.285 271.844 459.312 271.864 459.334C271.884 459.356 271.909 459.373 271.938 459.382L272.675 459.298L275.342 459.087L276.76 459.016C277.2 459.016 277.569 459.016 277.867 459.016C278.165 459.016 278.307 459.016 278.321 459.016L288.519 458.313C288.915 458.362 289.315 458.362 289.711 458.313L291.427 458.214L293.356 458.059C293.975 458.025 294.595 458.025 295.214 458.059C295.692 458.07 296.168 458.131 296.632 458.242C296.796 458.269 296.95 458.335 297.084 458.432C297.217 458.53 297.325 458.658 297.398 458.805C297.447 458.906 297.473 459.017 297.473 459.129C297.473 459.241 297.447 459.352 297.398 459.453C297.281 459.681 297.122 459.886 296.93 460.058C296.742 460.237 296.532 460.393 296.306 460.522L295.881 461.001Z" fill="#231F20"></path> <path d="M283.257 433.414C283.149 433.43 283.039 433.43 282.931 433.414L282.448 432.865C281.143 433.281 279.812 433.61 278.463 433.85C277.044 434.103 275.626 434.3 274.207 434.441C272.789 434.582 271.371 434.709 269.952 434.793L265.853 435.032C265.565 435.06 265.275 435.06 264.988 435.032L264.066 434.906L263.144 434.821C262.857 434.806 262.57 434.835 262.293 434.906L262.066 434.976H261.825C261.825 435.426 261.896 435.792 261.896 436.088C261.902 436.354 261.849 436.619 261.739 436.862C261.628 437.07 261.467 437.249 261.271 437.383C261.011 437.549 260.723 437.668 260.42 437.735C260.273 437.782 260.116 437.794 259.964 437.769C259.811 437.745 259.666 437.685 259.541 437.594C259.302 437.407 259.112 437.166 258.988 436.89C258.845 436.593 258.736 436.282 258.662 435.961C258.591 435.638 258.534 435.356 258.463 435.131C257.904 433.018 257.576 430.852 257.484 428.67C257.391 426.779 257.68 424.889 258.335 423.111C259.004 421.413 260.104 419.915 261.527 418.761C265.133 416.12 269.644 414.998 274.08 415.637C276.224 416.097 278.254 416.978 280.051 418.227C280.785 418.703 281.401 419.338 281.853 420.084C282.31 420.832 282.677 421.63 282.945 422.463C283.22 423.326 283.443 424.205 283.611 425.095C283.796 426.01 283.994 426.897 284.207 427.741C284.346 428.275 284.512 428.801 284.704 429.318C284.891 429.847 285.024 430.394 285.101 430.951C285.175 431.425 285.121 431.911 284.945 432.358C284.823 432.593 284.646 432.795 284.429 432.947C284.211 433.099 283.96 433.196 283.697 433.231L283.257 433.414ZM265.739 432.372C267.243 432.372 268.704 432.259 270.151 432.119C271.597 431.978 273.073 431.809 274.576 431.612L279.583 430.908L280.037 430.838L280.718 430.711L281.385 430.57L281.824 430.486L279.838 422.745C279.59 421.686 278.959 420.755 278.065 420.127C277.139 419.495 276.099 419.046 275.002 418.804C273.854 418.536 272.676 418.422 271.498 418.466C270.461 418.486 269.429 418.618 268.42 418.86C266.925 419.216 265.491 419.79 264.165 420.563C263.025 421.208 262.053 422.109 261.328 423.195C260.629 424.284 260.206 425.526 260.094 426.812C259.978 428.39 260.137 429.975 260.562 431.499L260.775 432.288C262.591 432.372 264.25 432.4 265.739 432.372Z" fill="#231F20"></path> <path d="M280.207 411.808C279.483 411.98 278.739 412.061 277.995 412.048C277.229 412.048 276.463 412.048 275.668 411.949L273.314 411.752C272.56 411.673 271.802 411.635 271.044 411.639H265.385L264.137 411.569C263.964 411.574 263.791 411.55 263.626 411.499L262.137 411.386L257.598 411.048L256.108 410.922C255.541 410.922 254.917 410.809 254.236 410.767C253.581 410.727 252.93 410.628 252.293 410.471C251.678 410.318 251.084 410.096 250.52 409.81C249.936 409.522 249.444 409.079 249.101 408.529C249.367 408.223 249.535 407.846 249.584 407.445C249.627 407.049 249.737 406.664 249.91 406.305C250.313 405.449 250.916 404.701 251.669 404.123C252.431 403.542 253.237 403.02 254.08 402.561L256.307 401.913L259.768 400.9L263.867 399.746L273.583 396.931L274.633 396.677L275.186 396.565C275.388 396.537 275.594 396.537 275.796 396.565C275.987 396.564 276.174 396.618 276.335 396.72C276.422 396.78 276.495 396.858 276.551 396.947C276.607 397.037 276.645 397.136 276.661 397.24C276.698 397.363 276.704 397.494 276.676 397.619C276.649 397.745 276.59 397.861 276.505 397.958C276.349 398.144 276.162 398.301 275.952 398.423L275.328 398.761L274.491 399.183L273.697 399.549C273.551 399.626 273.399 399.692 273.243 399.746L271.952 400.154C271.342 400.351 270.69 400.548 269.98 400.745L267.995 401.308L266.661 401.646C266.874 402.139 267.101 402.716 267.356 403.363C267.612 404.011 267.867 404.686 268.108 405.404C268.349 406.122 268.562 406.812 268.775 407.529C268.962 408.173 269.114 408.826 269.229 409.486H270.236L270.874 409.556H271.285C272.003 409.68 272.728 409.76 273.456 409.796C274.278 409.796 275.101 409.796 275.952 409.796C276.803 409.796 277.626 409.725 278.448 409.641C279.271 409.556 279.994 409.458 280.633 409.331C280.839 409.425 281.038 409.533 281.228 409.655L281.81 410.021V410.176C281.883 410.4 281.883 410.641 281.81 410.865C281.723 411.045 281.591 411.2 281.427 411.316C281.258 411.432 281.071 411.523 280.874 411.583C280.658 411.674 280.435 411.749 280.207 411.808ZM251.413 408.191C252.504 408.539 253.624 408.784 254.761 408.923C256.009 409.092 257.271 409.218 258.562 409.289C259.853 409.359 261.13 409.401 262.378 409.415H265.825L264.122 402.378L263.739 402.139H263.229L262.846 402.223L262.491 402.308C261.073 402.631 259.725 402.997 258.392 403.377C257.059 403.757 255.683 404.18 254.293 404.63C253.997 404.857 253.742 405.133 253.541 405.446C253.314 405.77 253.087 406.08 252.874 406.403C252.672 406.722 252.449 407.028 252.208 407.318C252.021 407.671 251.748 407.971 251.413 408.191Z" fill="#231F20"></path> <path d="M269.215 360.561C268.517 360.684 267.808 360.722 267.101 360.673C266.363 360.673 265.683 360.547 264.888 360.434L262.69 360.04C261.952 359.885 261.271 359.772 260.576 359.688C259.881 359.604 259.158 359.533 258.165 359.392L255.144 359.027C254.094 358.914 253.087 358.844 252.137 358.801C251.365 358.751 250.591 358.78 249.825 358.886L249.328 358.984L248.874 359.083L249.073 359.378C249.135 359.486 249.212 359.586 249.3 359.674L253.754 364.206C254.023 364.488 254.35 364.825 254.733 365.191C255.116 365.557 255.47 365.966 255.811 366.374C256.152 366.754 256.465 367.158 256.747 367.584C256.993 367.929 257.162 368.323 257.243 368.738C257.248 368.823 257.248 368.907 257.243 368.992C257.243 369.104 257.243 369.189 257.243 369.231L256.86 369.85L255.584 371.68C255.442 371.88 255.291 372.073 255.13 372.257C254.931 372.51 254.747 372.792 254.548 373.088C254.35 373.383 254.151 373.679 253.938 373.974C253.716 374.262 253.474 374.535 253.215 374.791C252.961 375.025 252.68 375.228 252.378 375.396C252.428 375.454 252.485 375.506 252.548 375.551C252.615 375.596 252.686 375.634 252.761 375.663L253.328 375.762L254.222 375.903L255.158 376.029L255.825 376.114C255.825 376.114 256.236 376.114 256.86 376.184L259.144 376.367L262.066 376.663C263.115 376.789 264.08 376.93 264.903 377.127C265.678 377.272 266.438 377.489 267.172 377.775C267.796 378.009 268.137 378.291 268.193 378.619C268.193 378.971 268.193 379.196 267.895 379.309C267.584 379.441 267.285 379.602 267.002 379.787H266.846C266.173 379.887 265.49 379.887 264.817 379.787C264.097 379.71 263.382 379.593 262.676 379.435L260.548 378.929C259.881 378.754 259.204 378.622 258.52 378.535C256.463 378.295 254.42 378.141 252.378 378.056C250.335 377.972 248.279 377.972 246.165 378.056L245.768 375.804L249.13 374.228C249.229 373.949 249.4 373.702 249.626 373.51C249.928 373.224 250.25 372.961 250.591 372.722L251.754 371.835C252.15 371.538 252.511 371.198 252.832 370.821C253.135 370.466 253.384 370.067 253.569 369.639C253.757 369.194 253.802 368.703 253.697 368.232V368.077C252.855 366.684 251.845 365.399 250.69 364.248C249.513 363.08 248.335 361.968 247.13 360.927C246.924 360.745 246.689 360.597 246.435 360.49L245.598 360.152L244.804 359.843C244.579 359.749 244.376 359.61 244.208 359.435C244.131 359.27 244.064 359.101 244.009 358.928C243.871 358.623 243.715 358.327 243.541 358.041C243.489 357.921 243.422 357.808 243.343 357.703C243.226 357.599 243.098 357.51 242.96 357.436C242.824 357.365 242.7 357.275 242.591 357.169C242.52 356.943 242.492 356.789 242.477 356.732C242.408 356.393 242.408 356.044 242.477 355.705C242.501 355.535 242.581 355.379 242.704 355.259C242.827 355.139 242.987 355.063 243.158 355.043C243.626 354.95 244.109 354.95 244.577 355.043C245.057 355.127 245.531 355.244 245.995 355.395L247.414 355.831C247.846 355.967 248.294 356.052 248.747 356.085L250.605 356.226L253.442 356.423L256.279 356.634L258.137 356.76C258.276 356.82 258.425 356.854 258.576 356.859L259.626 357L261.044 357.183L262.534 357.38L263.825 357.535L264.605 357.633L265.739 357.774L267.158 357.971L268.761 358.238L270.278 359.308L270.122 360.321L269.81 360.42C269.617 360.488 269.418 360.535 269.215 360.561Z" fill="#231F20"></path> <path d="M267.413 350.131C266.674 350.222 265.926 350.222 265.186 350.131C264.434 350.032 263.669 349.892 262.888 349.723C262.108 349.554 261.357 349.385 260.591 349.216C259.852 349.036 259.104 348.895 258.349 348.794C258.222 348.794 257.952 348.794 257.541 348.695L256.123 348.47L254.406 348.203L252.761 347.921L251.513 347.682L251.03 347.555L249.612 347.232L245.158 346.303L243.74 345.979C243.172 345.838 242.563 345.697 241.91 345.571C241.265 345.448 240.633 345.264 240.024 345.022C239.433 344.791 238.871 344.494 238.35 344.135C237.846 343.77 237.441 343.286 237.173 342.727C237.476 342.46 237.689 342.106 237.783 341.714C237.896 341.334 238.058 340.969 238.265 340.63C238.785 339.833 239.49 339.172 240.321 338.702C241.142 338.246 241.995 337.851 242.875 337.52L245.172 337.168L248.733 336.633L252.889 336.028L260.591 334.874L262.888 334.522L263.966 334.409H264.534C264.736 334.387 264.941 334.387 265.144 334.409C265.329 334.443 265.504 334.521 265.654 334.634C265.808 334.783 265.899 334.984 265.91 335.197C265.931 335.324 265.918 335.455 265.873 335.575C265.829 335.696 265.753 335.804 265.654 335.887C265.478 336.055 265.271 336.189 265.044 336.281L264.378 336.534L263.484 336.83L262.661 337.097L262.193 337.238L260.846 337.463L258.818 337.787L256.761 338.069C256.127 338.162 255.655 338.219 255.342 338.238C255.484 338.758 255.64 339.349 255.811 340.025C255.981 340.701 256.137 341.433 256.279 342.15C256.42 342.868 256.534 343.558 256.647 344.346C256.724 344.982 256.767 345.62 256.775 346.26L257.158 346.345L257.768 346.486L258.392 346.64L258.789 346.725C259.482 346.945 260.188 347.123 260.903 347.26C261.711 347.4 262.534 347.527 263.371 347.626C264.208 347.724 265.044 347.766 265.867 347.795C266.604 347.838 267.343 347.838 268.08 347.795L268.633 348.217C268.815 348.349 268.985 348.495 269.144 348.653V348.808C269.169 349.042 269.119 349.279 269.002 349.484C268.893 349.646 268.747 349.781 268.576 349.878C268.387 349.968 268.187 350.035 267.98 350.075L267.413 350.131ZM239.371 342.699C240.406 343.185 241.484 343.576 242.591 343.868C243.797 344.191 245.031 344.487 246.307 344.726C247.584 344.965 248.832 345.177 250.08 345.374C251.328 345.571 252.449 345.725 253.47 345.88L252.747 338.716L252.378 338.435H251.116C249.697 338.589 248.279 338.758 246.86 338.955C245.442 339.152 244.024 339.392 242.605 339.645C242.282 339.839 241.99 340.081 241.74 340.363L240.96 341.236C240.704 341.517 240.449 341.784 240.18 342.052C239.956 342.318 239.681 342.538 239.371 342.699Z" fill="#231F20"></path> <path d="M254.108 333.677C253.041 333.674 251.979 333.513 250.96 333.199C249.738 332.833 248.552 332.362 247.414 331.791C246.187 331.175 245.01 330.465 243.896 329.666C242.791 328.899 241.765 328.027 240.832 327.062C239.984 326.183 239.255 325.199 238.662 324.134C238.131 323.225 237.833 322.2 237.797 321.15C237.809 320.843 237.867 320.54 237.967 320.25C238.083 319.875 238.245 319.515 238.449 319.18C238.64 318.843 238.884 318.539 239.173 318.279C239.291 318.159 239.432 318.064 239.588 317.999C239.744 317.933 239.911 317.899 240.08 317.899C240.577 317.899 240.875 318.026 240.988 318.307C241.088 318.578 241.141 318.863 241.144 319.152C241.161 319.368 241.127 319.584 241.045 319.785C240.973 319.949 240.893 320.108 240.804 320.264C240.703 320.431 240.613 320.605 240.534 320.784C240.44 321.007 240.401 321.248 240.421 321.488C240.416 321.804 240.484 322.117 240.619 322.403C240.742 322.662 240.884 322.911 241.045 323.149C241.201 323.374 241.357 323.628 241.513 323.867C241.675 324.132 241.79 324.422 241.853 324.725C242.739 325.642 243.687 326.498 244.69 327.287C245.651 328.062 246.687 328.741 247.782 329.314C248.863 329.878 250.005 330.317 251.186 330.623C252.411 330.924 253.67 331.061 254.931 331.031C255.851 331.012 256.765 330.885 257.654 330.651C258.487 330.426 259.274 330.059 259.981 329.567C260.655 329.082 261.204 328.446 261.583 327.709C262.01 326.834 262.206 325.865 262.151 324.894C262.12 323.777 261.982 322.664 261.739 321.573C261.482 320.469 261.339 319.341 261.314 318.209V317.744C261.3 317.496 261.3 317.247 261.314 316.998V315.745C261.446 315.614 261.606 315.513 261.782 315.45C261.947 315.397 262.119 315.368 262.293 315.365C262.508 315.348 262.725 315.379 262.927 315.457C263.128 315.535 263.309 315.658 263.456 315.816C263.761 316.173 263.975 316.598 264.08 317.054C264.231 317.602 264.326 318.163 264.364 318.729C264.364 319.335 264.449 319.926 264.477 320.503C264.505 321.08 264.576 321.615 264.647 322.107C264.682 322.499 264.824 322.874 265.059 323.191V325.317C265.135 326.64 264.82 327.956 264.151 329.103C263.516 330.128 262.652 330.995 261.626 331.636C260.529 332.293 259.331 332.769 258.08 333.044C256.782 333.394 255.451 333.606 254.108 333.677Z" fill="#231F20"></path> <path d="M260.676 314.183C259.73 313.977 258.784 313.737 257.839 313.465L255.002 312.621C254.094 312.325 253.172 312.072 252.279 311.861L249.768 311.382C248.747 311.204 247.683 310.993 246.577 310.749C245.47 310.51 244.421 310.256 243.414 310.003C242.586 309.802 241.782 309.514 241.017 309.144C240.662 308.975 240.463 308.778 240.421 308.567C240.383 308.31 240.383 308.05 240.421 307.793C240.432 307.531 240.475 307.271 240.548 307.019C240.548 306.78 240.846 306.625 241.215 306.54L242.761 306.92L247.414 308.018L248.945 308.37H249.499C249.581 308.374 249.663 308.36 249.739 308.328C249.815 308.296 249.883 308.248 249.938 308.187C250.082 308.045 250.206 307.884 250.307 307.709C250.42 307.522 250.51 307.324 250.577 307.117C250.641 306.96 250.679 306.794 250.69 306.625V306.456C250.66 306.384 250.611 306.321 250.548 306.273C250.507 306.207 250.454 306.15 250.392 306.104V305.442C250.392 305.091 250.392 304.725 250.392 304.345C250.392 303.965 250.392 303.599 250.392 303.261C250.392 302.923 250.392 302.684 250.392 302.557C250.392 302.43 250.392 302.064 250.25 301.614C250.108 301.164 250.08 300.643 249.952 300.066C249.825 299.489 249.683 298.883 249.527 298.25C249.371 297.617 249.229 297.04 249.073 296.505C248.917 295.97 248.789 295.519 248.662 295.097C248.534 294.675 248.421 294.534 248.307 294.478C248.194 294.422 247.683 294.267 247.201 294.126L245.612 293.718C245.045 293.563 244.449 293.394 243.853 293.197C243.294 293.027 242.749 292.816 242.222 292.564C241.804 292.354 241.413 292.094 241.059 291.79C240.92 291.679 240.81 291.537 240.739 291.375C240.667 291.213 240.636 291.037 240.648 290.861C240.654 290.684 240.701 290.511 240.785 290.355C240.868 290.199 240.986 290.064 241.13 289.96C241.419 289.734 241.752 289.571 242.109 289.481C242.293 289.566 242.605 289.664 243.016 289.805L244.435 290.255L246.109 290.776L247.768 291.297C248.293 291.466 248.775 291.607 249.187 291.719L250.109 291.987L251.073 292.17L252.69 292.493L254.321 292.803C254.641 292.847 254.958 292.908 255.272 292.986C255.541 292.986 255.981 293.113 256.69 293.183C257.399 293.253 258.108 293.366 258.874 293.493C259.64 293.619 260.548 293.788 261.427 293.971C262.248 294.146 263.054 294.381 263.839 294.675C264.475 294.906 265.069 295.239 265.598 295.66C265.805 295.812 265.972 296.012 266.083 296.243C266.194 296.473 266.247 296.728 266.236 296.983C266.24 297.185 266.19 297.384 266.09 297.56C265.99 297.736 265.845 297.882 265.669 297.983C265.301 298.169 264.888 298.247 264.477 298.208C264.199 298.186 263.926 298.119 263.669 298.011L262.108 297.265C261.851 297.14 261.579 297.046 261.3 296.983L260.633 296.871L259.215 296.617L257.413 296.294C256.775 296.181 256.123 296.082 255.484 295.956L253.655 295.632L252.236 295.393H251.967C251.987 295.832 252.034 296.269 252.108 296.702C252.208 297.434 252.35 298.32 252.52 299.348C252.69 300.375 252.874 301.473 253.059 302.627L253.612 305.851C253.796 306.822 253.995 307.976 254.236 309.285C254.621 309.688 255.113 309.976 255.655 310.115C256.321 310.302 256.998 310.447 257.683 310.552C258.392 310.664 259.101 310.749 259.74 310.805C260.262 310.837 260.78 310.922 261.286 311.058L262.066 311.34C262.435 311.467 262.817 311.621 263.229 311.79L264.364 312.283L265.101 312.621C265.169 312.725 265.222 312.839 265.257 312.959C265.328 313.142 265.356 313.254 265.385 313.296V313.465C265.395 313.67 265.335 313.873 265.214 314.039C265.093 314.206 264.918 314.326 264.718 314.38C264.326 314.489 263.919 314.536 263.513 314.521C262.56 314.478 261.612 314.365 260.676 314.183Z" fill="#231F20"></path> <path d="M261.669 289.34C260.25 288.928 258.832 288.491 257.413 288.032L253.243 286.624C251.848 286.156 250.427 285.766 248.988 285.456L248.392 285.048C247.499 284.752 246.761 284.527 246.151 284.344L244.293 283.795L242.69 283.344C242.265 283.218 242.009 283.035 241.924 282.781C241.855 282.452 241.855 282.112 241.924 281.782C241.952 281.455 242.038 281.136 242.18 280.839C242.293 280.684 242.591 280.642 243.087 280.712H243.726L257.612 285.104C257.81 285.104 258.193 285.259 258.761 285.371L260.732 285.808L263.016 286.385C263.753 286.588 264.477 286.832 265.186 287.117C265.754 287.342 266.293 287.635 266.789 287.989C266.96 288.08 267.102 288.217 267.2 288.383C267.298 288.55 267.347 288.74 267.342 288.932C267.3 289.263 267.157 289.572 266.931 289.819C266.818 289.938 266.678 290.027 266.522 290.079C266.366 290.13 266.199 290.143 266.037 290.115C264.564 289.965 263.103 289.707 261.669 289.34Z" fill="#231F20"></path> <path d="M267.555 282.993C265.81 282.078 264.094 281.121 262.392 280.178C260.69 279.235 259.044 278.137 257.442 277.039C257.208 276.886 256.962 276.754 256.704 276.645L255.881 276.321C255.615 276.218 255.355 276.1 255.101 275.969C254.851 275.834 254.626 275.658 254.435 275.448L246.066 270.789C245.951 270.508 245.747 270.271 245.484 270.114C245.142 269.9 244.781 269.716 244.406 269.565L243.13 269.044C242.707 268.884 242.307 268.671 241.938 268.411C241.607 268.154 241.344 267.82 241.173 267.44C240.983 267.045 240.938 266.597 241.045 266.173V266.032C241.167 265.931 241.295 265.837 241.428 265.751C241.612 265.624 241.754 265.553 241.825 265.511H242.137L243.683 266.145L243.995 266.215H244.321L245.343 266.088C245.541 266.088 245.896 266.088 246.406 266.088H249.612C250.108 266.088 250.449 266.088 250.647 266.088L252.988 265.891L255.229 265.68L257.569 265.455L259.583 265.258C260.179 265.258 260.605 265.145 260.832 265.103L261.739 264.962L263.087 264.751L264.59 264.456C265.101 264.343 265.569 264.23 266.009 264.104C266.372 264.002 266.728 263.875 267.073 263.724C267.356 263.583 267.512 263.442 267.541 263.287C267.569 263.133 267.356 262.668 266.832 262.232C266.167 261.72 265.471 261.249 264.746 260.824C263.895 260.318 262.959 259.783 261.91 259.22C260.86 258.657 259.91 258.122 259.073 257.587C258.236 257.052 257.385 256.588 256.732 256.179C256.254 255.921 255.853 255.543 255.569 255.082L255.016 254.856L254.165 254.505L253.342 254.139C253.16 254.065 252.984 253.975 252.818 253.871L251.754 253.224C251.272 252.928 250.818 252.618 250.335 252.281C249.913 251.978 249.524 251.634 249.172 251.253C249.04 251.141 248.935 251 248.866 250.842C248.797 250.683 248.766 250.511 248.775 250.338C248.817 249.983 248.948 249.644 249.158 249.353C249.3 249.226 249.64 249.212 250.179 249.353C250.589 249.43 250.989 249.553 251.371 249.719C251.706 249.876 252.033 250.049 252.35 250.24L253.257 250.859C253.555 251.07 253.896 251.295 254.264 251.521L259.612 254.772C259.906 255.231 260.317 255.605 260.803 255.856C261.484 256.292 262.321 256.757 263.3 257.263C264.278 257.77 265.342 258.291 266.477 258.826C267.612 259.36 268.69 259.881 269.711 260.402C270.732 260.923 271.626 261.387 272.392 261.809C272.96 262.102 273.481 262.477 273.938 262.921L273.782 263.724C273.74 264.002 273.643 264.27 273.498 264.512C273.397 264.673 273.241 264.793 273.058 264.85C272.819 264.893 272.574 264.893 272.335 264.85L271.243 264.709C270.975 265.089 270.614 265.394 270.193 265.596C269.613 265.9 269.005 266.15 268.378 266.342C267.683 266.553 266.959 266.75 266.108 266.919C265.257 267.088 264.52 267.243 263.754 267.355L261.598 267.651C260.931 267.735 260.392 267.777 259.981 267.82L258.789 267.946L256.747 268.171L254.704 268.411L253.513 268.537C253.248 268.559 252.983 268.559 252.718 268.537H249.073L248.52 268.608H248.052V268.706C248.031 268.761 248.031 268.821 248.052 268.875L248.718 269.199L249.839 269.762L251.158 270.452L252.435 271.155L253.385 271.732C253.515 271.805 253.635 271.895 253.74 272L262.761 276.785C263.057 277.051 263.386 277.278 263.739 277.461L265.243 278.277L266.959 279.164C267.555 279.474 268.08 279.783 268.562 280.093C268.977 280.362 269.362 280.673 269.711 281.022C269.835 281.129 269.931 281.264 269.99 281.416C270.05 281.569 270.071 281.733 270.051 281.895C270.031 282.006 269.986 282.112 269.92 282.204C269.854 282.297 269.768 282.374 269.668 282.43C269.445 282.557 269.2 282.643 268.945 282.683C268.686 282.71 268.424 282.71 268.165 282.683L267.555 282.993Z" fill="#231F20"></path> <path d="M271.285 252.689L270.193 252.238L269.087 251.83L268.349 251.577L268.037 251.478L252.435 244.441H252.25C252.1 244.383 251.933 244.383 251.782 244.441L251.385 244.68C251.25 244.766 251.107 244.842 250.96 244.905C250.795 244.97 250.613 244.97 250.449 244.905C250.112 244.796 249.828 244.565 249.655 244.258C249.544 244.107 249.464 243.937 249.42 243.755C249.376 243.574 249.369 243.386 249.399 243.202L251.343 234.56C251.272 233.943 251.272 233.319 251.343 232.702C251.413 232.077 251.541 231.46 251.725 230.858C251.798 230.505 251.959 230.176 252.194 229.901C252.335 229.789 252.69 229.803 253.229 229.901C253.698 230.01 254.126 230.249 254.463 230.591C254.741 231.041 254.851 231.574 254.775 232.097C254.534 232.097 254.364 232.209 254.279 232.505C254.194 232.801 254.137 232.955 254.108 233.068L253.981 233.518C253.981 233.73 253.896 233.842 253.896 233.884C253.825 234.349 253.725 234.87 253.626 235.447C253.527 236.024 253.413 236.629 253.314 237.248C253.215 237.868 253.13 238.473 253.03 239.078C252.931 239.683 252.874 240.232 252.832 240.739C252.756 241.101 252.806 241.477 252.973 241.807C253.141 242.136 253.416 242.4 253.754 242.555C254.1 242.723 254.461 242.86 254.832 242.963C255.269 243.085 255.696 243.24 256.108 243.427C256.402 243.578 256.671 243.732 256.917 243.892L257.64 244.328C257.867 244.469 258.108 244.596 258.349 244.722C258.613 244.869 258.894 244.982 259.186 245.06L259.739 245.215L260.293 245.356C260.378 245.159 260.52 244.779 260.732 244.23C260.945 243.681 261.172 243.09 261.399 242.456C261.626 241.823 261.825 241.246 262.023 240.683L262.406 239.5C262.701 238.701 263.047 237.92 263.442 237.164C263.825 236.383 264.389 235.704 265.087 235.179H265.243C265.414 235.244 265.569 235.345 265.697 235.475C265.843 235.624 265.972 235.789 266.08 235.968C266.191 236.142 266.286 236.325 266.363 236.516L266.576 236.953L266.449 237.389C266.449 237.572 266.321 237.783 266.264 238.037C266.207 238.29 266.137 238.501 266.08 238.712L265.768 239.712C265.697 239.937 265.626 240.176 265.541 240.415C265.456 240.655 265.385 240.866 265.328 241.049L265.243 241.33C265.216 241.414 265.177 241.495 265.129 241.569L264.903 241.921C264.82 242.039 264.744 242.161 264.676 242.287L264.562 242.484C264.554 242.592 264.554 242.7 264.562 242.808C264.547 242.977 264.547 243.146 264.562 243.315V243.836C264.571 243.939 264.571 244.042 264.562 244.145C264.505 244.249 264.428 244.34 264.335 244.413C264.179 244.553 264.094 244.652 264.066 244.68V244.835C263.951 245.143 263.913 245.474 263.955 245.8C263.997 246.126 264.118 246.437 264.307 246.707C264.723 247.242 265.244 247.687 265.839 248.016C266.49 248.374 267.174 248.67 267.881 248.903L269.654 249.437L270.009 249.55L270.519 249.677L271.044 249.817L271.385 249.93C271.678 249.542 271.917 249.116 272.094 248.663C272.307 248.157 272.491 247.636 272.661 247.115C272.831 246.594 272.987 246.088 273.101 245.609C273.214 245.13 273.328 244.75 273.413 244.483C273.555 244.004 273.753 243.427 273.98 242.766C274.224 242.085 274.423 241.389 274.576 240.683C274.739 239.995 274.82 239.292 274.817 238.586C274.833 237.96 274.666 237.344 274.335 236.812L275.484 233.054C275.489 233.017 275.502 232.981 275.521 232.949C275.54 232.917 275.566 232.889 275.596 232.866C275.627 232.844 275.661 232.828 275.698 232.819C275.735 232.81 275.773 232.809 275.81 232.815L276.207 232.885L276.392 232.955C276.916 233.096 277.271 233.575 277.455 234.363C277.651 235.288 277.722 236.234 277.668 237.178C277.629 238.358 277.506 239.534 277.299 240.697C277.101 241.935 276.874 243.118 276.633 244.216C276.392 245.313 276.165 246.271 275.952 247.031C275.739 247.791 275.612 248.326 275.555 248.509C275.42 248.945 275.259 249.372 275.073 249.789C274.859 250.236 274.618 250.668 274.349 251.084C274.086 251.493 273.766 251.863 273.399 252.182C273.054 252.499 272.642 252.735 272.193 252.872L271.285 252.689Z" fill="#231F20"></path> </svg> 