<?xml version="1.0" encoding="UTF-8"?> <svg xmlns="http://www.w3.org/2000/svg" width="1122" height="510" viewBox="0 0 1122 510" fill="none"> <path d="M1120.99 1C972.507 47.6558 381.944 85.9386 209.164 108.951C175.819 113.392 -53.9452 119.786 13.2399 131.478C83.8665 143.769 563.195 171.538 635.68 181.427C696.664 189.747 763.262 198.631 818.322 213.213C827.762 215.712 856.68 225.559 832.673 227.403C808.735 229.24 752.682 253.302 741.352 263.161C713.765 287.166 928.793 334.454 961.827 343.761C1001.98 355.073 1108.39 375.795 1120.99 398.818C1121.79 400.279 1086.09 405.626 1083.15 406.197C969.271 428.335 829.811 471.013 741.352 509.5" stroke="black" stroke-linecap="round"></path> </svg> 