<?xml version="1.0" encoding="UTF-8"?> <svg xmlns="http://www.w3.org/2000/svg" width="1162" height="331" viewBox="0 0 1162 331" fill="none"> <path d="M425.714 1C425.714 1 1106.89 8.08348 1161 10.9697C1161 10.9697 647.573 87.1245 386.462 94.0505C349.875 95.021 313.299 96.6774 276.773 98.8843C272.432 99.1466 246.537 98.0178 257.248 103.114C268.066 108.261 282.099 112.176 272.169 124.111C243.432 158.653 196.022 168.23 155.019 183.174C114.391 197.98 74.7416 203.072 31.5189 206.285C27.4046 206.591 -12.0976 205.321 5.48549 213.687C51.3784 235.523 105.81 247.187 154.701 260.514C248.187 285.998 342.97 307.424 437.259 330" stroke="black" stroke-linecap="round"></path> </svg> 