<?xml version="1.0" encoding="UTF-8"?> <svg xmlns="http://www.w3.org/2000/svg" width="409" height="309" viewBox="0 0 409 309" fill="none"> <path d="M133.78 81.4362C126.697 77.4633 116.025 65.1917 112.53 61.8535C103.677 53.4139 97.0656 43.6578 95.7198 31.2922C94.4448 19.7025 80.798 18.4095 69.7484 21.7712C59.6903 24.8273 50.4351 29.8817 52.6308 42.1532C54.6141 53.2493 62.5236 58.6093 74.3288 56.517C76.5718 56.1409 79.8536 55.0125 81.0341 56.0469C89.8015 63.742 98.4586 71.4999 107.006 79.3204C110.618 82.5882 130.616 95.9881 124.477 100.901C119.519 104.898 98.8364 94.46 93.1699 92.5793C81.3647 88.6534 69.5595 84.6334 57.8959 80.2843C55.0863 79.2499 53.953 72.785 52.7725 68.53C48.9004 54.6834 39.5743 50.3343 26.1872 52.9437C15.0194 55.1065 5.66973 59.5732 7.48773 73.2552C9.30573 86.9373 19.836 88.8885 31.4051 91.4744C41.6756 93.8253 118.764 108.636 117.441 117.781C116.544 124.151 84.8118 123.211 78.7911 123.517C59.2181 124.457 45.0755 117.757 28.5954 108.871C22.7637 105.721 3.07258 102.829 0.758765 112.938C-0.964795 120.39 3.1198 131.745 8.92796 137.528C13.4139 142.112 23.9206 142.23 31.712 141.995C57.5418 141.407 83.348 139.644 109.154 138.656C124.241 138.139 139.375 138.327 154.462 138.398C166.645 138.398 173.138 133.884 174.531 120.578C176.892 98.7621 180.481 77.0401 184.825 55.5297C186.691 46.3613 192.9 38.1097 194.954 28.9414C196.536 21.8888 197.315 11.8976 193.609 7.45444C186.927 -0.350436 168.747 -1.38482 163.364 8.1597C162.059 10.9247 161.39 13.9442 161.404 16.999C161.014 20.4646 161.085 23.9663 161.616 27.4133C162.443 31.5038 165.064 34.4659 165.701 38.3683C166.527 43.4227 165.252 49.6995 165.087 54.8244C164.946 58.9854 166.858 75.5591 163.836 78.192C160.814 80.825 151.842 77.8159 151.606 73.6078C151.11 63.6402 147.072 54.3307 145.089 44.5981C143.768 39.6567 143.907 34.4406 145.491 29.5761C147.049 25.1565 150.567 21.7712 150.661 16.8344C150.803 10.4636 143.248 2.7292 137.109 2.16499C129.672 1.3657 120.723 4.51586 114.325 8.98251C111.822 10.6751 112.837 20.5723 115.009 25.4386C119.614 35.9234 124.595 46.2437 129.648 56.517C131.513 60.3254 144.617 80.4018 138.36 82.3766C136.769 82.6619 135.128 82.3251 133.78 81.4362Z" fill="black"></path> <path d="M277.425 82.212C284.674 78.5917 295.936 66.8373 299.619 63.6637C308.851 55.6707 315.934 46.2437 317.894 33.9252C319.735 22.4295 333.429 21.7712 344.361 25.6972C354.254 29.2235 363.249 34.7245 360.463 46.855C357.937 57.8335 349.791 62.7233 338.104 60.1609C335.861 59.6672 332.65 58.3742 331.422 59.3616C322.285 66.6023 313.266 73.9605 304.247 81.3422C300.493 84.4218 279.905 96.8579 285.76 102.053C290.482 106.285 311.731 96.8579 317.422 95.2593C329.416 91.8976 341.386 88.4418 353.262 84.6804C356.095 83.7636 357.559 77.3692 358.929 73.2787C363.485 59.6202 373.095 55.7412 386.246 58.9854C397.295 61.6889 406.433 66.6022 403.93 80.1432C401.427 93.6842 390.873 95.0712 379.186 97.1165C368.798 98.9267 291.143 110.023 291.969 119.238C292.56 125.633 324.292 126.291 330.313 126.808C349.815 128.712 364.265 122.694 381.146 114.607C387.119 111.762 406.929 109.905 408.77 120.014C410.116 127.56 405.37 138.656 399.326 144.204C394.604 148.553 384.121 148.107 376.329 147.543C350.57 145.709 324.906 142.653 299.147 140.49C284.107 139.221 268.997 138.703 253.91 138.139C241.75 137.598 235.493 132.732 234.738 119.332C233.51 97.4456 230.913 75.5591 227.655 53.8841C226.238 44.6216 220.572 36.0645 218.824 26.8256C217.597 19.773 217.195 9.68776 221.185 5.40919C228.269 -2.06657 246.449 -2.20762 251.36 7.59549C252.527 10.4236 253.043 13.476 252.871 16.5288C253.09 20.0016 252.844 23.488 252.139 26.8961C251.123 30.9631 248.385 33.6666 247.417 37.6631C246.354 42.6704 247.417 48.9943 247.251 54.1191C247.251 58.3037 244.442 74.7597 247.251 77.6278C250.061 80.4959 259.245 77.8394 259.67 73.6313C260.686 63.6872 265.124 54.5893 267.604 44.9978C269.151 40.1245 269.266 34.9119 267.934 29.9757C266.588 25.4621 263.212 21.9358 263.377 16.9755C263.543 10.6046 271.452 3.34042 277.544 2.9878C285.004 2.54113 293.764 6.2555 299.973 10.8867C302.334 12.6969 300.871 22.641 298.462 27.3428C293.363 37.6161 287.885 47.6543 282.336 57.6925C280.306 61.3833 266.234 80.8015 272.373 83.1524C273.234 83.3534 274.129 83.3736 274.999 83.2117C275.868 83.0498 276.695 82.7093 277.425 82.212Z" fill="black"></path> <path d="M275.324 226.861C282.407 230.787 293.15 243.035 296.573 246.373C305.451 254.789 312.086 264.522 313.502 276.934C314.801 288.524 328.448 289.77 339.474 286.338C349.508 283.258 358.74 278.18 356.52 265.909C354.49 254.813 346.58 249.453 334.775 251.616C332.414 251.992 329.274 253.12 328.07 252.086C319.287 244.445 310.598 236.688 301.933 228.906C298.321 225.662 278.323 212.309 284.391 207.372C289.325 203.376 310.055 213.743 315.722 215.6C327.527 219.503 339.332 223.476 351.137 227.801C353.947 228.812 355.104 235.277 356.284 239.438C360.204 253.285 369.553 257.587 382.917 254.954C394.084 252.744 403.434 248.254 401.545 234.572C399.657 220.89 389.173 219.056 377.604 216.494C367.334 214.143 290.246 199.614 291.497 190.446C292.371 184.075 324.103 184.921 330.147 184.616C349.697 183.605 363.863 190.258 380.367 199.097C386.269 202.224 406.102 205.068 408.274 195.054C409.951 187.578 405.748 176.247 400.034 170.464C395.525 165.903 384.994 165.762 377.203 166.091C351.397 166.749 325.614 168.653 299.785 169.641C284.697 170.228 269.587 170.064 254.476 170.04C242.317 170.04 235.824 174.742 234.455 187.931C232.235 209.747 228.646 231.469 224.373 253.003C222.531 262.171 216.369 270.446 214.315 279.614C212.78 286.667 211.954 296.658 215.731 301.101C222.437 308.906 240.64 309.87 246 300.302C247.281 297.523 247.934 294.497 247.912 291.439C248.287 287.972 248.2 284.47 247.653 281.025C246.826 276.934 244.206 274.113 243.545 270.07C242.718 265.039 243.97 258.762 244.111 253.614C244.111 249.429 242.27 232.856 245.315 230.223C248.361 227.59 257.309 230.552 257.546 234.783C258.112 244.774 262.126 254.06 264.156 263.746C265.486 268.693 265.355 273.917 263.779 278.792C262.244 283.211 258.75 286.596 258.655 291.557C258.655 297.928 266.116 305.662 272.255 306.179C279.692 306.955 288.617 303.64 295.015 299.291C297.518 297.598 296.455 287.701 294.283 282.835C289.561 272.35 284.65 262.053 279.55 251.804C277.685 247.995 264.511 227.966 270.744 225.944C271.53 225.787 272.34 225.787 273.127 225.944C273.913 226.101 274.66 226.413 275.324 226.861Z" fill="black"></path> <path d="M131.702 226.579C124.454 230.317 113.333 242.071 109.556 245.198C100.347 253.214 93.2879 262.665 91.3755 274.983C89.5811 286.502 75.8871 287.184 64.9318 283.305C55.0155 279.802 46.0435 274.325 48.7587 262.147C51.2614 251.145 59.3834 246.232 71.0942 248.771C73.3135 249.265 76.5246 250.534 77.7759 249.547C86.8659 242.283 95.8851 234.901 104.857 227.496C108.635 224.392 129.176 211.886 123.297 206.714C118.575 202.506 97.3253 211.98 91.6588 213.625C79.6647 217.011 67.7179 220.49 55.8418 224.298C53.0086 225.215 51.5684 231.61 50.2226 235.7C45.713 249.382 36.198 253.285 22.9525 250.087C11.8793 247.407 2.74204 242.541 5.19752 228.93C7.653 215.318 18.2069 213.931 29.894 211.862C40.259 210.029 117.89 198.674 117.04 189.482C116.426 183.088 84.6937 182.571 78.6731 182.006C59.1709 180.243 44.863 186.285 27.8635 194.419C21.9137 197.405 2.10456 199.309 0.239336 189.106C-1.13007 181.56 3.5684 170.464 9.44739 164.892C14.1695 160.519 24.6525 160.943 32.4439 161.483C58.2029 163.223 83.891 166.185 109.65 168.301C124.69 169.523 139.8 169.993 154.887 170.652C167.047 171.145 173.327 175.988 174.13 189.459C175.429 211.345 178.073 233.208 181.449 254.883C182.866 264.122 188.698 272.656 190.35 281.918C191.578 288.971 192.027 299.032 187.989 303.311C180.906 310.81 162.726 311.022 157.792 301.242C156.628 298.413 156.104 295.363 156.257 292.309C156.033 288.838 156.264 285.353 156.942 281.942C157.957 277.875 160.696 275.148 161.522 271.175C162.561 266.167 161.522 259.82 161.664 254.719C161.664 250.534 164.379 234.055 161.475 231.21C158.571 228.365 149.481 231.022 149.056 235.23C148.064 245.198 143.649 254.295 141.217 263.911C139.673 268.786 139.574 274.002 140.934 278.933C142.28 283.423 145.656 286.949 145.514 291.909C145.372 298.28 137.487 305.568 131.348 306.015C123.887 306.485 115.104 302.794 108.894 298.186C106.533 296.376 107.95 286.432 110.358 281.73C115.411 271.457 120.865 261.395 126.366 251.357C128.42 247.643 142.421 228.177 136.282 225.873C134.722 225.501 133.077 225.754 131.702 226.579Z" fill="black"></path> </svg> 