<?xml version="1.0" encoding="UTF-8"?> <svg xmlns="http://www.w3.org/2000/svg" viewBox="0 0 674.08 128.15"> <defs> <style>.cls-1{fill:#1d1d1b;}</style> </defs> <g id="Слой_2" data-name="Слой 2"> <g id="Слой_1-2" data-name="Слой 1"> <path class="cls-1" d="M291.87,60.6c15.6-5.75,30.12-13.47,44.52-21.85,11.93-6.95,8.77-13.62,3.39-14.8-3.45-.76-11.88,0-22.84,6-15.6,8.59-30.87,17.78-38.83,22.55C274,55,266.78,59.66,255.76,66.17,238.94,72,199.33,85.65,198.45,84.36c-.52-.77,4.34-3.45,14.82-9.55,9.31-5.43,12.77-7.34,20.4-11.45,2.23-1.21,2.38-5.16-2.11-6.62-1-.33-4.5-.05-6.51-.19-3.47-.25-4.13-.62-6.66-.38-7.15.7-12.2,3.41-20.88,7.9-18.6,9.62-28.29,14.63-37.27,19.11-5,2.51-9,.78-2.61-3.08C162.87,77,179.78,66.62,187.82,62c4.56-2.62,3.63-4.43,2-5.46-1.3-.83-3.75-.17-5.28.74C180,60,169,66.6,163.69,69.77c-6.4,3.83-11,6.41-18.29,10.19-8.19,4.26-11.18,4.63-12.29,4-1.32-.77-.21-3,5.53-6.85,3.55-2.41,14.56-9.2,25.48-15.76,2.65-1.59,3.25-5.35-2.11-4.16-22.4,5-34.08,7.55-47.72,9.73a104.73,104.73,0,0,1,13.79-39.08C137,13.36,145.49,9,152.53,6.89c3.63-1.06,11.67-2.5,14.64,1.29,2.36,3,5.87-.81,3.7-3.88-1.43-2-4.26-3.75-10.4-4.21C144.12-1.13,129.83,10.39,120.86,26a127.87,127.87,0,0,0-15,42.29C67.7,75.37,30.55,78.6,13.43,88.66c-18,10.57-17.27,28.27-1.71,34.74s46.26,7.67,71.51-5c20.4-10.24,25.82-25.65,30-45.29,12.41-2.51,21.5-4.73,30.94-7.32l3-.65-3.11,1.78c-16.85,10.26-20.86,14.4-22.2,16.33-2.89,4.17,0,9.7,5.56,9.6,6.62-.11,13.39-3.33,19.61-7,.2-.12,1.07-.65,1.28-.72a10.3,10.3,0,0,0-1.07.81,3.83,3.83,0,0,0-1,4.65c1.34,2.41,5.77,3.68,16.07-1.64,11.57-6,38.65-20.32,46.1-24,3.1-1.55,5.85-3,8.78-3.54,2.21-.42,2.72,0,5.5,0,1,0,2.12-.1,2.39-.09C221.71,63,213.4,67.82,207,71.32c-9.51,5.21-18,10.87-19.41,13.37-2,3.47.07,8.74,3.57,8,6.42-1.36,24.08-6.68,35.8-10.84.42-.14,6.21-1.89,6.65-2-.33.2-4.51,2.62-4.83,2.83-18.33,11.68-43.73,27.15-64.6,40-3,1.88,1.27,6.44,4.32,4.54,18.83-11.77,45.62-28.66,69.91-43.65h63.51c3.58,0,3.58-5.55,0-5.55H247.43c2.88-1.77,5.71-3.5,8.46-5.17C268.4,68.48,277.8,65.79,291.87,60.6Zm-7.53-4.81c16-9.45,28-17.52,44.46-24.54,10.86-4.63,9.06.41.93,5.09a229.12,229.12,0,0,1-37.26,17.6c-3.44,1.33-12,4.44-15.47,5.64C277.84,59.09,283.5,56.29,284.34,55.79ZM78.46,112.14c-19.9,9.82-54.78,11-66.66,1.77-5-3.89-6-11.35,4.41-18.76,16.52-11.81,57.33-14.63,88.3-20.61C100.86,87.7,98.36,102.32,78.46,112.14Z"></path> <path class="cls-1" d="M600.66,73.34a40.19,40.19,0,0,0-5,4.66c-16.29,3.67-30.92,6.34-34.61,6.87-4.69.67-6.3-2.06-2.42-6a171.78,171.78,0,0,0,21.5-3.79c21.19-5.47,28.13-9.64,25-15.19-6.25-11.11-30.61-3.06-50.06,12.51-.57.45-1.1.9-1.61,1.34-12.79,1.47-26.19,2.2-39,2.45,7-4.32,13.54-8.27,19.3-11.78,22.28-3.29,48.79-15.69,66.37-26.19,8.55-5.1,12-13,2.78-14.71-6.85-1.3-15.09,1.19-33.88,12.2-6.7,3.91-21.69,12.88-40,24-2.11.21-4.2.35-6.2.35-2.68,0-6.85.09-10,.09a2.06,2.06,0,0,0-1.38,3.61c1.2,1.21,4.57,1.49,7.59,1.49h.9l-18.1,11H461.7l.2-.12c5.91-3.56,12.64-7.25,19.72-11.17C502.87,62,529,50.9,548.84,38.75c9.7-5.94,11.29-12.58,2.78-14.71-7.21-1.81-20,4-33.89,12.19-16,9.41-25.45,15-40.21,24.1-1.56.14-3.07.24-4.48.24-5.19,0-17.14.15-25.8.24,1-2.58-.31-4.46-4.9-4.46-7.77,0-15.63,1.2-16,4.1s1.85,5.26,5,5.26h2a59.7,59.7,0,0,1-5.67,4.16C417.54,76.45,406.41,82,399.19,84.41c-3.16,1-4-1.16-.42-4.45a67.65,67.65,0,0,1,13.16-9.4c3-1.28,5.94-2.57,8.84-3.85s3.3-5.94-.06-5.36c-5.56,1-10.12,3.36-16.73,7.68-12,4.77-25.8,9.79-36.1,13.06-14.92,4.72-21.31,4.24-18-1.2,3.51-5.75,14.57-14.84,25-21.4a259.29,259.29,0,0,1,43.9-22c15.56-5.74,25.62-8.47,33.59-8.47,3,0,5.11.8,5.68,2,1,2.16,4.72,1.32,4.72-2.28,0-1.9-2.83-4.84-10.31-4.84-9.68,0-21.82,2.34-34.05,6.65-17.92,6.3-32.14,12.73-48.08,22.5-13.52,8.3-26.67,19.27-31.67,26.77s1.67,13,6.93,13c7.57,0,13.17-1.73,28-7,4.4-1.57,9.74-3.6,15.56-5.9-3.06,3.07-4.5,5.81-4.5,8,0,9.17,16.47,2.89,24.64-1,11.47-5.41,18.18-9.54,31-18.61a31.6,31.6,0,0,0,3.2-2.61l25.08.06Q460,71.08,451.44,76.25H439c-3.58,0-10.24,5.63-6.66,5.63h9.8c-22.75,13.66-45.53,27.06-69.53,41.59-3.07,1.86,2.57,6.1,5.62,4.2,25.81-16,48.94-30.5,74.18-45.79h40.21c-22.44,13.67-44.49,27.06-67.69,41.08-3.06,1.85,3.32,6.17,6.39,4.28,25.5-15.74,51.73-31.83,73.84-45.36,12.36,0,27.78-.57,42.38-1.88-5.32,7.63.29,11.18,6.22,11.18,5.43,0,22-3.42,38.53-7.18-1.08,5.17,4.26,7.69,9.67,7.18,14.05-1.29,36-7.23,41-9.64,3.09-1.48,1.74-4.24-4.26-2.23-7.73,2.6-21.76,5.1-29.4,5.84-4.3.42-6.17-.56-6-2.36a4,4,0,0,1,.51-1.47c9.73-2.3,18.37-4.45,23.28-5.71,16.52-4.24,27.75-9.4,24.18-16.12C645.06,47.81,619.25,58.47,600.66,73.34Zm-20-9c5.18-2.66,10.47-4.82,14-4.45,3.7.39,6.19,3.31-6.76,7.22a165.26,165.26,0,0,1-19.53,4.51C572.51,68.83,577.14,66.09,580.61,64.31ZM555.46,51.16c8.35-5.08,25-14.79,36.46-19.77,8.29-3.61,12-2.18,2,4.12a192.62,192.62,0,0,1-46.58,20.57Zm-52.78,1.76c16.05-9.69,28.24-16.8,38.08-20.85,9.45-3.9,11.23-1.85,1.41,4.27-12,7.51-29.43,15.29-45.18,19.95Q499.84,54.63,502.68,52.92ZM635,67.28c-6.74,2.44-15.3,4.88-24.21,7.13a79.45,79.45,0,0,1,7.68-5.1c9.49-5.43,17-9.26,22-9.26C646,60.05,644.94,63.66,635,67.28Z"></path> <path class="cls-1" d="M663,28a11.08,11.08,0,1,0,11.07,11.07A11.09,11.09,0,0,0,663,28Zm0,18.9a7.83,7.83,0,1,1,7.82-7.83A7.84,7.84,0,0,1,663,46.92Z"></path> <path class="cls-1" d="M667.67,37.19a3.65,3.65,0,0,0-1.23-2.57,4.89,4.89,0,0,0-3.13-.94h-4.54V44H662V41h.84l1.68,3h3.56l-2-3.51A3.39,3.39,0,0,0,667.67,37.19Zm-3.5.89a1.44,1.44,0,0,1-1.13.31h-1.11v-2.1h1a1.83,1.83,0,0,1,1.14.27,1.07,1.07,0,0,1,.35.77A1,1,0,0,1,664.17,38.08Z"></path> </g> </g> </svg> 