<?xml version="1.0" standalone="no"?>
<!DOCTYPE svg PUBLIC "-//W3C//DTD SVG 20010904//EN"
 "http://www.w3.org/TR/2001/REC-SVG-20010904/DTD/svg10.dtd">
<svg version="1.0" xmlns="http://www.w3.org/2000/svg"
 width="20555.000000pt" height="11224.000000pt" viewBox="0 0 20555.000000 11224.000000"
 preserveAspectRatio="xMidYMid meet">

<g transform="translate(0.000000,11224.000000) scale(0.100000,-0.100000)"
fill="#000000" stroke="none">
<path d="M10 56115 l0 -56115 102765 0 102765 0 0 56115 0 56115 -102765 0
-102765 0 0 -56115z m205510 5 l0 -56090 -102745 0 -102745 0 0 56090 0 56090
102745 0 102745 0 0 -56090z"/>
<path d="M49780 73420 l0 -2820 -1655 0 -1655 0 0 -1460 0 -1460 1655 0 1655
0 0 -7620 0 -7620 1488 2 1487 3 3 7618 2 7617 1635 0 1635 0 0 1460 0 1460
-1635 0 -1635 0 0 2820 0 2820 -1490 0 -1490 0 0 -2820z"/>
<path d="M94970 71039 c-1197 -78 -2237 -475 -3105 -1185 -609 -497 -1115
-1118 -1450 -1779 -285 -562 -451 -1139 -521 -1811 -23 -211 -26 -796 -6 -974
53 -476 130 -783 322 -1290 182 -480 349 -812 582 -1158 360 -532 771 -912
1347 -1244 577 -332 1732 -819 3116 -1313 526 -188 767 -303 1098 -522 271
-179 568 -447 752 -678 261 -326 459 -708 554 -1066 136 -510 112 -1109 -64
-1585 -240 -650 -817 -1208 -1506 -1457 -343 -124 -692 -175 -1133 -164 -495
12 -866 97 -1243 283 -769 381 -1330 1250 -1508 2334 -48 297 -74 675 -75
1092 l0 156 -1342 -4 c-739 -2 -1417 -7 -1507 -10 l-164 -6 6 -392 c7 -424 17
-610 48 -926 171 -1739 834 -3111 1969 -4075 474 -403 1076 -738 1698 -945
962 -320 2171 -413 3304 -254 908 127 1719 424 2398 877 669 447 1252 1074
1661 1787 385 671 609 1404 696 2270 22 222 25 879 5 1100 -65 719 -226 1313
-512 1895 -255 520 -553 929 -987 1355 -434 427 -885 747 -1473 1044 -388 197
-643 300 -1210 491 -217 73 -528 180 -690 238 -343 122 -485 168 -705 231
-503 145 -1078 414 -1448 677 -271 194 -507 436 -647 664 -123 200 -211 448
-257 726 -22 133 -25 673 -5 814 40 276 106 511 201 710 104 218 193 345 361
519 331 342 748 541 1290 618 147 20 702 18 847 -4 473 -72 834 -235 1100
-497 211 -207 355 -428 478 -736 129 -321 205 -649 276 -1187 l22 -168 1568 0
1568 0 -5 33 c-2 17 -11 120 -19 227 -33 411 -79 759 -145 1093 -303 1526
-1005 2670 -2075 3382 -849 564 -1841 830 -3074 824 -146 -1 -322 -6 -391 -10z"/>
<path d="M111055 71013 c-2034 -80 -3763 -691 -5347 -1891 -388 -293 -665
-537 -1064 -936 -384 -385 -606 -639 -897 -1026 -1013 -1345 -1607 -2929
-1766 -4700 -35 -396 -44 -650 -38 -1158 5 -482 17 -692 58 -1057 237 -2132
1100 -3935 2599 -5435 1429 -1428 3125 -2326 5035 -2664 863 -153 1809 -194
2670 -115 1940 176 3774 985 5143 2266 68 64 124 114 125 112 2 -2 0 -283 -4
-624 -4 -341 -7 -2052 -8 -3802 l-1 -3183 1460 0 1460 0 0 11895 0 11895
-1425 0 -1425 0 0 -1101 0 -1101 -188 183 c-1404 1374 -2984 2147 -4862 2378
-459 57 -1067 82 -1525 64z m885 -2837 c208 -21 412 -51 600 -87 1419 -275
2641 -1068 3663 -2378 1005 -1287 1486 -2774 1419 -4390 -44 -1064 -271 -1967
-712 -2836 -318 -627 -731 -1196 -1264 -1742 -1081 -1109 -2304 -1743 -3661
-1897 -462 -53 -1105 -45 -1585 19 -1426 192 -2637 808 -3661 1862 -989 1019
-1545 2136 -1689 3393 -36 311 -45 623 -32 1041 21 626 61 1069 143 1569 304
1851 1074 3258 2314 4225 417 326 984 636 1541 844 571 213 1210 346 1879 391
198 13 862 4 1045 -14z"/>
<path d="M131605 71014 c-536 -23 -956 -66 -1414 -144 -1717 -295 -3240 -1040
-4551 -2229 -164 -149 -488 -471 -645 -641 -1057 -1147 -1783 -2407 -2190
-3800 -334 -1143 -448 -2359 -349 -3715 156 -2153 864 -3958 2113 -5390 147
-168 477 -501 666 -673 835 -756 1869 -1361 3070 -1797 838 -304 1694 -498
2576 -584 382 -38 565 -46 1034 -45 492 0 732 13 1140 59 1600 181 3014 751
4188 1687 231 185 374 314 621 560 l228 229 -6 -188 c-4 -103 -13 -487 -21
-853 -8 -366 -17 -752 -21 -857 l-6 -193 1461 0 1461 0 0 9075 0 9075 -1470 0
-1470 0 6 -122 c4 -107 54 -1926 54 -1988 0 -18 -51 27 -237 211 -333 328
-578 539 -910 786 -764 568 -1584 971 -2487 1222 -574 160 -1155 256 -1826
301 -156 11 -867 20 -1015 14z m775 -2834 c1460 -136 2656 -713 3715 -1791
1118 -1139 1780 -2458 1964 -3914 41 -322 46 -420 46 -885 0 -447 -4 -535 -41
-860 -171 -1534 -843 -2897 -1999 -4055 -1010 -1013 -2161 -1623 -3400 -1804
-374 -55 -874 -75 -1270 -52 -1445 84 -2668 575 -3745 1505 -144 124 -488 464
-624 616 -422 471 -721 907 -971 1415 -317 643 -495 1311 -545 2045 -21 310
-10 920 25 1385 134 1760 630 3175 1487 4247 282 352 647 706 1002 971 903
673 2060 1093 3246 1176 85 7 175 13 200 15 90 8 798 -3 910 -14z"/>
<path d="M151405 70944 c-27 -2 -122 -8 -210 -14 -1217 -81 -2403 -437 -3400
-1022 -354 -208 -725 -467 -1016 -709 -59 -49 -110 -89 -113 -89 -3 0 -6 333
-6 740 l0 740 -1422 -2 -1423 -3 0 -9070 0 -9070 1422 -3 1422 -2 4 5067 c4
5292 3 5154 48 5698 151 1840 701 3149 1637 3901 820 658 2064 986 3647 961
477 -8 728 -32 1105 -107 1037 -207 1803 -715 2281 -1510 423 -706 675 -1688
759 -2965 27 -411 30 -937 30 -5887 l0 -5158 1455 0 1455 0 0 5378 c0 3430 -4
5462 -10 5612 -97 2273 -684 4011 -1794 5316 -146 172 -508 533 -676 674 -820
690 -1777 1137 -2921 1365 -341 67 -655 109 -1089 146 -119 10 -1080 20 -1185
13z"/>
<path d="M57063 65043 c2 -4237 6 -5594 15 -5708 41 -503 66 -737 112 -1048
180 -1208 551 -2264 1108 -3157 170 -273 383 -560 606 -820 127 -149 507 -526
660 -656 871 -740 1891 -1221 3126 -1473 862 -175 1914 -235 2740 -156 1462
141 2784 721 3930 1724 l105 92 5 -698 5 -698 1458 -3 1457 -2 0 9080 0 9080
-1457 -2 -1458 -3 -6 -5215 c-4 -2868 -9 -5235 -13 -5260 -3 -25 -13 -141 -21
-259 -80 -1091 -310 -2030 -681 -2776 -627 -1260 -1690 -1994 -3204 -2209
-357 -51 -502 -60 -990 -61 -479 0 -609 7 -955 50 -1317 166 -2264 714 -2828
1635 -484 792 -744 1880 -797 3335 -6 168 -10 2258 -10 5518 l0 5247 -1455 0
-1455 0 3 -5557z"/>
<path d="M72799 70578 c5 -13 1551 -4003 3435 -8867 l3427 -8844 -1234 -3036
-1234 -3036 206 -2 c113 -2 822 1 1575 5 l1368 7 4829 11890 c2656 6540 4829
11893 4829 11898 0 4 -755 7 -1678 7 l-1678 0 -2673 -6712 c-1471 -3692 -2679
-6723 -2685 -6735 -10 -20 -351 866 -2586 6712 l-2575 6735 -1667 0 -1668 0 9
-22z"/>
<path d="M115850 42442 c-377 -625 -825 -1370 -997 -1654 l-312 -518 604 0
603 0 1264 1643 c695 903 1267 1648 1272 1655 6 9 -171 12 -871 12 l-878 -1
-685 -1137z"/>
<path d="M109895 42529 c-523 -32 -994 -119 -1363 -255 -238 -87 -520 -246
-693 -390 -480 -400 -741 -1097 -809 -2159 -5 -88 -10 -197 -10 -242 l0 -83
-590 0 -590 0 0 -710 0 -710 620 0 620 0 0 -4130 0 -4130 760 0 760 0 0 4130
0 4130 968 2 967 3 0 705 0 705 -968 3 -968 2 6 88 c25 359 65 600 135 815 34
102 136 298 193 367 126 154 310 256 587 323 223 55 549 87 883 87 l167 0 0
730 0 730 -267 -1 c-148 -1 -331 -6 -408 -10z"/>
<path d="M89310 39660 c-1206 -94 -2219 -550 -3040 -1370 -419 -417 -736 -869
-1016 -1445 -232 -478 -375 -912 -468 -1416 -84 -455 -99 -1052 -40 -1554 109
-926 425 -1728 955 -2426 811 -1067 2131 -1791 3549 -1946 205 -22 775 -25
970 -5 631 66 1144 213 1665 476 780 395 1419 977 1902 1731 207 325 376 663
538 1080 42 110 79 203 82 208 2 4 -385 7 -860 7 l-863 0 -67 -137 c-357 -740
-842 -1255 -1472 -1563 -318 -156 -622 -244 -1015 -297 -193 -26 -749 -26
-930 0 -372 53 -649 136 -965 292 -302 148 -553 331 -820 599 -626 628 -971
1384 -1056 2316 -18 196 -15 621 5 810 76 707 302 1295 700 1818 609 802 1408
1238 2422 1323 188 15 634 7 769 -15 308 -50 551 -127 810 -255 311 -154 525
-311 801 -586 292 -292 500 -570 767 -1025 l62 -105 883 -3 c626 -1 882 1 882
9 0 16 -251 525 -337 684 -671 1233 -1464 2032 -2420 2439 -415 177 -865 286
-1407 342 -178 18 -812 27 -986 14z"/>
<path d="M115575 39630 c-945 -53 -1767 -306 -2500 -770 -927 -586 -1610
-1485 -1985 -2610 -196 -587 -283 -1219 -259 -1890 47 -1330 534 -2456 1464
-3385 737 -736 1583 -1200 2545 -1394 314 -63 567 -90 930 -98 1544 -33 2813
529 3759 1666 313 377 612 849 852 1346 72 150 239 520 239 530 0 3 -393 5
-874 5 l-874 0 -65 -123 c-311 -590 -722 -1067 -1190 -1380 -279 -187 -598
-327 -937 -412 -606 -152 -1367 -136 -1976 40 -476 138 -897 389 -1221 729
-358 375 -620 832 -814 1419 -46 141 -147 526 -164 624 l-7 43 4174 2 4173 3
-3 265 c-8 774 -97 1412 -282 2026 -333 1103 -987 2010 -1875 2598 -204 135
-288 184 -499 288 -526 258 -1137 417 -1796 468 -194 15 -629 20 -815 10z
m525 -1500 c1136 -79 1942 -557 2491 -1477 136 -228 287 -563 387 -858 47
-136 122 -391 122 -412 0 -11 -534 -13 -3280 -13 -1804 0 -3280 2 -3280 6 0
18 78 310 116 432 130 418 327 829 544 1132 350 489 821 837 1381 1021 277 91
623 154 939 172 134 8 447 6 580 -3z"/>
<path d="M99975 39613 c-747 -44 -1362 -199 -1960 -493 -531 -261 -1007 -618
-1438 -1078 -841 -897 -1298 -1933 -1388 -3142 -13 -179 -7 -815 10 -980 37
-353 77 -594 145 -875 201 -818 576 -1506 1131 -2074 383 -391 788 -680 1309
-932 969 -467 2064 -650 3116 -518 527 66 994 203 1437 424 400 198 718 424
1037 735 l159 155 -7 -195 c-3 -107 -8 -348 -12 -535 -3 -187 -7 -350 -10
-362 l-4 -23 780 0 780 0 0 4835 0 4835 -780 0 -780 0 0 -112 c0 -104 15 -702
23 -931 l4 -98 -141 139 c-346 339 -671 575 -1071 778 -513 259 -1064 402
-1710 444 -144 9 -502 11 -630 3z m655 -1518 c538 -75 1004 -264 1424 -578
507 -378 962 -952 1206 -1522 144 -334 227 -658 265 -1035 21 -203 16 -643 -9
-840 -91 -700 -332 -1267 -775 -1825 -124 -157 -452 -484 -616 -615 -511 -408
-1056 -633 -1668 -691 -164 -15 -599 -6 -757 16 -785 108 -1414 429 -1975
1006 -485 500 -773 1049 -875 1669 -59 360 -47 931 30 1455 73 489 219 951
422 1335 496 938 1386 1517 2513 1635 175 19 655 13 815 -10z"/>
</g>
</svg>
