<?xml version="1.0" encoding="UTF-8"?> <svg xmlns="http://www.w3.org/2000/svg" width="444" height="596" viewBox="0 0 444 596" fill="none"> <path d="M130.685 0C129.881 1.88314 131.46 2.66031 132.473 2.30162C134.588 1.52445 135.988 2.95923 137.716 3.28803C138.818 3.52716 139.98 3.49727 141.053 3.76629C142.365 4.03475 143.63 4.49819 144.806 5.14128C147.517 6.81519 150.079 8.72822 152.79 10.432C153.472 10.628 154.194 10.628 154.876 10.432C155.456 10.2879 156.06 10.2696 156.647 10.3784C157.235 10.4872 157.793 10.7205 158.283 11.0628C158.774 11.4052 159.186 11.8486 159.493 12.3636C159.799 12.8785 159.992 13.453 160.059 14.0488C160.735 14.8584 161.592 15.4967 162.56 15.9122C163.528 16.3276 164.58 16.5085 165.63 16.4401C167.477 15.8722 168.609 16.0516 169.056 18.2934C169.503 20.5352 171.558 21.8206 174.329 21.6711C175.333 21.719 176.33 21.8591 177.308 22.0896C176.444 25.0787 179.036 26.9021 180.794 29.0243C181.062 29.383 182.045 29.0243 182.462 29.383C185.65 31.6249 188.807 33.9863 191.965 36.258C192.412 36.5868 192.948 36.7362 193.395 37.0352C193.842 37.3341 194.795 37.6928 195.093 38.2308C196.583 40.8911 196.702 41.0406 199.592 42.0569C200.09 42.242 200.503 42.6034 200.753 43.0732C201.975 46.6601 205.58 47.2579 208.201 49.3503C207.856 49.5392 207.536 49.7701 207.248 50.0378C207.01 50.2769 206.622 50.7552 206.712 50.9047C206.801 51.0541 207.337 51.353 207.665 51.5922C207.993 51.8313 208.797 52.4889 209.393 52.9074L208.618 53.296L214.576 56.0758C214.159 56.6438 213.712 57.0622 213.772 57.1519C214.845 58.7063 215.977 60.141 217.109 61.7552C218.658 63.7878 220.296 65.7606 221.816 67.7334C222.384 68.466 222.855 69.2699 223.216 70.1247C223.692 71.2605 224.02 72.4861 224.407 73.6518L234.179 83.217C234.282 83.7703 234.351 84.3293 234.387 84.8909C234.655 89.1953 237.366 92.0648 239.958 95.1735C240.534 96.0079 241.042 96.8876 241.478 97.8039L240.971 98.1925L242.55 98.7006V99.1191L240.971 99.3583C241.239 99.8365 241.358 100.285 241.597 100.404C244.784 101.989 245.589 105.366 247.376 107.967C247.395 108.035 247.395 108.108 247.376 108.176C247.376 111.404 249.64 113.885 250.355 116.934C250.844 118.018 251.486 119.024 252.262 119.923L250.683 120.701L253.424 123.032C253.994 121.688 254.682 120.398 255.479 119.176C257.922 116.187 260.454 113.198 263.076 110.209C263.626 109.77 264.285 109.491 264.983 109.402L267.783 106.771C268.111 106.472 268.617 106.173 268.706 105.785C269.362 102.586 271.924 101.241 274.337 99.8066C275.288 99.2548 276.055 98.4332 276.541 97.4452C278.12 93.649 281.963 91.467 283.095 87.1925C283.542 85.4589 285.866 84.2034 287.236 82.7089C288.607 81.2143 290.215 79.092 291.794 77.2986C292.301 76.7306 292.777 75.8638 293.403 75.6844C296.799 74.6383 299.063 71.7986 302.072 70.3339C304.187 69.2877 304.009 67.3448 305.051 66.1193C306.153 64.9478 307.418 63.9411 308.805 63.1301C311.675 61.1225 314.108 58.5494 315.955 55.5677C317.39 53.9795 319.082 52.6456 320.96 51.6221L321.377 52.0704C321.47 51.2165 321.609 50.3684 321.794 49.5297C321.928 49.0233 322.247 48.5859 322.688 48.3041C324.713 47.2878 326.828 46.421 328.854 45.315C329.605 44.8427 330.304 44.2916 330.94 43.671C331.923 44.0297 333.233 45.0161 334.336 44.8069C335.438 44.5976 335.289 42.565 336.153 41.8177C337.316 41.106 338.615 40.6477 339.966 40.4726C341.684 40.0512 343.442 39.8207 345.209 39.7851C346.269 40.0229 347.278 40.448 348.188 41.0406C350.036 39.0678 350.363 39.008 352.985 41.2797L355.368 40.1139L354.921 39.1574C357.513 38.5596 360.015 38.0515 362.518 37.4536C364.789 36.4415 367.3 36.0994 369.757 36.4672C372.345 36.7234 374.957 36.5823 377.503 36.0488C379.149 36.168 380.802 36.168 382.448 36.0488C386.47 35.2716 391.058 37.065 394.543 33.5977C394.781 33.3287 395.407 33.5977 395.854 33.3884L398.356 33.0895C398.584 33.0631 398.814 33.0631 399.041 33.0895C401.236 33.3579 403.444 33.5076 405.655 33.5379C408.117 33.3608 410.566 33.0213 412.984 32.5216C414.712 32.2526 416.38 31.6846 418.108 31.5651C418.852 31.5651 419.657 32.3422 420.461 32.4618C423.202 32.8803 425.943 33.239 428.683 33.4482C429.786 33.5306 430.892 33.3354 431.901 32.8803C434.935 31.1576 438.314 30.1364 441.791 29.8912C442.271 30.86 442.689 31.8584 443.043 32.8803C443.43 34.3151 442 35.6901 440.302 36.1683C438.604 36.6466 437.323 36.4074 435.863 37.8721C434.403 39.3368 432.05 38.3803 430.56 38.4998C429.13 39.7553 427.939 40.8911 426.628 41.9074C425.374 42.9222 424.039 43.832 422.636 44.6275C420.773 45.5665 418.853 46.3852 416.886 47.0786C413.907 48.0949 410.928 48.9916 407.949 50.0677C407.74 50.0677 407.413 50.0677 407.323 50.2769C405.357 53.1166 402.527 51.5922 400.054 51.7715C399.25 51.7715 398.267 51.7715 397.76 52.2199C395.854 53.8639 394.096 55.6872 392.577 57.122L385.487 58.2878C384.2 58.5668 382.896 58.7565 381.584 58.8557C379.022 58.8557 376.46 58.6465 373.898 58.7063C372.931 58.8251 371.988 59.087 371.098 59.4834C369.28 60.1111 367.493 60.9182 365.616 61.3666C364.181 61.6948 362.702 61.7857 361.237 61.6356C360.257 61.3838 359.322 60.9804 358.466 60.4399C358.154 60.7482 357.815 61.0282 357.453 61.2769L354.325 63.3394C354.087 63.5187 353.819 63.9372 353.61 63.9073C351.168 63.6981 349.618 65.4318 347.652 66.3883C347.309 66.5131 347.008 66.7345 346.786 67.026C346.564 67.3175 346.431 67.6668 346.401 68.0323C346.193 69.0187 345.984 70.0051 345.746 71.0214C344.852 74.6084 341.783 76.0431 339.013 77.7768C338.898 77.8776 338.767 77.9584 338.626 78.016C336.153 78.016 336.153 78.016 335.319 78.8529L339.013 88.5974C335.766 90.5403 332.578 92.3936 329.45 94.3664C328.886 94.7735 328.502 95.3843 328.378 96.0702C328.199 97.6544 327.514 97.6843 326.411 96.9371C326.173 99.9262 325.19 100.135 322.36 100.135C318.07 100.135 313.423 99.7169 309.609 102.048C307.256 103.423 305.081 105.038 302.668 106.293C301.455 106.619 300.195 106.73 298.944 106.622L291.914 106.921C290.96 108.654 290.305 109.91 289.53 111.285C288.705 112.866 287.706 114.35 286.551 115.709C285.747 116.546 284.317 116.755 283.244 117.353C282.172 117.951 280.891 118.847 279.669 119.535C279.431 119.684 278.984 119.535 278.627 119.535C278.359 122.912 275.946 126.081 273.473 125.872L274.128 128.861C276.482 127.702 278.91 126.703 281.397 125.872C283.61 125.49 285.708 124.611 287.534 123.301C289.685 121.975 292.073 121.081 294.565 120.671C297.544 119.834 301.03 120.91 304.098 119.385C304.664 119.116 305.498 119.385 306.183 119.385C307.762 119.206 309.311 118.877 310.89 118.758C312.469 118.638 313.482 118.758 314.972 118.758C315.613 117.907 316.557 117.338 317.607 117.171C318.657 117.004 319.73 117.251 320.602 117.861C321.496 118.429 321.943 118.04 322.598 118.1C323.163 118.188 323.69 118.437 324.117 118.817C326.59 118.817 329.033 117.98 331.506 119.565C332.131 119.983 333.382 119.415 334.276 119.296L334.604 121.149L337.583 121.298C339.132 119.236 341.188 120.73 343.124 121.059C345.06 121.388 347.503 121.926 349.618 122.345C349.618 122.345 349.41 122.853 349.38 122.942L354.594 122.404L355.13 120.94C358.142 121.354 360.93 122.763 363.054 124.945C363.412 125.334 364.722 124.736 365.586 124.646C366.45 124.557 367.106 124.437 367.314 124.646C368.685 126.559 369.846 126.948 370.949 126.35L377.443 128.024C377.86 128.024 378.396 128.024 378.754 128.024C380.808 129.4 383.198 130.186 385.665 130.296C387.212 130.571 388.596 131.426 389.538 132.687C391.534 135.168 394.186 134.899 396.837 135.048C397.697 135.097 398.538 135.321 399.31 135.706C401.276 136.842 403.123 138.366 405.596 137.141C408.753 139.652 413.728 138.725 415.963 143.298C416.856 145.092 419.538 145.959 421.414 147.244C421.802 147.483 422.368 147.513 422.695 147.782C426.389 151.219 430.918 153.76 433.539 158.334C433.612 158.459 433.71 158.567 433.829 158.649C433.947 158.732 434.082 158.787 434.225 158.812C438.187 158.812 438.604 162.04 439.527 164.551C439.757 165.461 440.179 166.312 440.765 167.044C441.351 167.777 442.087 168.374 442.923 168.795C444.234 169.393 444.353 170.081 443.251 171.187C442.275 170.248 441.092 169.553 439.798 169.158C438.504 168.763 437.135 168.68 435.803 168.915C434.403 168.915 433.033 167.689 431.603 167.391C430.173 167.092 428.624 167.66 427.343 167.391C424.306 166.47 421.323 165.382 418.406 164.132C416.29 163.236 414.354 161.98 412.298 160.964C411.397 160.568 410.471 160.229 409.528 159.948C408.766 159.792 408.019 159.572 407.294 159.29C405.566 158.393 403.897 157.377 402.199 156.301L401.693 156.988C402.616 157.855 403.421 159.111 404.493 159.469C406.787 160.217 407.234 162.219 408.366 163.863C409.498 165.507 411.137 167.032 412.239 168.825C412.805 169.752 413.103 170.888 413.728 171.814C415.754 175.013 417.363 178.48 419.18 181.828C419.632 182.692 420.204 183.487 420.878 184.189C421.891 185.146 421.683 185.863 421.176 187.029C420.702 188.167 420.638 189.436 420.997 190.616C421.266 191.572 422.368 192.26 422.904 192.888C422.668 194.146 422.339 195.385 421.921 196.594C421.129 198.334 420.192 200.004 419.121 201.586C418.823 201.793 418.475 201.916 418.113 201.943C417.752 201.969 417.39 201.897 417.065 201.735C415.682 200.443 414.426 199.022 413.311 197.491C412.596 196.505 412.298 195.189 411.613 194.143C411.081 193.586 410.469 193.112 409.796 192.738L409.975 191.662C409.738 191.55 409.488 191.47 409.23 191.423C406.787 191.423 405.536 190.257 405.715 187.926C405.923 185.116 404.076 183.412 402.736 181.499C400.846 178.777 398.733 176.218 396.42 173.847C394.821 172.413 393.107 171.113 391.296 169.961C390.551 169.393 389.836 168.795 389.032 168.287C388.164 167.753 387.269 167.264 386.351 166.823V165.717L385.904 166.195C385.316 165.955 384.764 165.633 384.265 165.238C383.593 164.331 382.723 163.59 381.721 163.072C380.719 162.554 379.613 162.272 378.486 162.249C377.771 162.249 377.056 161.472 376.49 160.695L368.983 159.948V161.173H368.476C368.41 160.524 368.281 159.883 368.089 159.26C367.89 158.434 367.467 157.678 366.867 157.078C365.295 156.077 364.108 154.57 363.501 152.804C362.627 153.612 361.619 154.259 360.522 154.717C359.089 154.924 357.628 154.833 356.232 154.448C354.602 154.02 353 153.491 351.436 152.863C351.436 150.203 348.903 149.874 346.729 149.456C345.746 149.456 344.584 150.532 343.482 151.07C343.083 151.323 342.606 151.419 342.141 151.339C340.277 150.343 338.357 149.455 336.391 148.679C335.199 148.431 333.958 148.633 332.906 149.247C330.85 150.532 329.033 152.236 326.948 153.581C326.441 153.91 325.011 153.88 324.803 153.581C323.343 151.13 320.662 151.399 318.487 150.592C316.312 149.785 314.167 149.546 312.142 148.738C310.116 147.931 308.686 146.766 306.869 146.018C305.737 145.75 304.573 145.649 303.413 145.719C302.877 145.719 302.191 145.719 301.893 145.51C300.166 143.806 297.872 143.956 295.935 143.478C294.039 143.015 292.12 142.656 290.186 142.402C289.739 142.402 289.203 142.999 288.726 143.298L289.083 144.225C291.705 144.882 294.356 145.421 296.889 146.287C299.075 147.169 301.213 148.167 303.294 149.276C303.294 149.276 303.472 148.649 303.651 147.961C306.362 151.13 310.265 152.146 313.452 154.268C315.776 155.793 319.023 156.241 320.394 159.32C320.9 160.456 322.241 161.203 323.015 162.309C324.147 163.923 325.011 165.776 326.143 167.391C326.769 168.257 327.812 168.825 328.527 169.632C329.241 170.439 330.195 171.874 331.089 172.92C332.399 174.445 333.77 175.91 335.17 177.374C336.175 178.497 337.249 179.555 338.387 180.543C340.234 182.097 342.201 183.532 344.137 184.937L351.019 190.198C352.866 191.602 354.802 192.918 356.56 194.442C358.317 195.967 360.015 197.76 361.714 199.434C361.714 199.434 361.714 199.793 361.892 199.793C365.765 199.015 366.778 202.782 369.102 204.426C369.995 205.053 371.157 205.681 371.455 206.578C372.259 209.029 374.643 209.388 376.281 210.494C379.26 212.496 382.656 213.812 385.785 215.575C386.922 216.297 387.929 217.206 388.764 218.265C391.355 221.254 394.037 224.244 396.36 227.651C397.431 228.769 398.244 230.108 398.743 231.574C399.242 233.041 399.415 234.599 399.25 236.14C399.252 236.769 399.405 237.387 399.695 237.944C399.985 238.5 400.405 238.979 400.918 239.339C403.659 241.192 402.497 243.852 402.408 246.034C402.034 248.18 401.362 250.263 400.412 252.222C399.957 251.905 399.454 251.662 398.922 251.504C394.841 251.056 392.964 248.276 391.713 244.809C390.67 242.208 390.045 239.159 387.185 237.575C386.857 237.396 386.827 236.738 386.589 236.349C386.053 235.423 385.576 233.958 384.831 233.779C381.852 233.061 381.107 230.042 378.873 228.488L377.771 231.089C380.75 231.926 381.197 233.57 379.767 236.14C379.297 236.684 379.039 237.379 379.039 238.098C379.039 238.817 379.297 239.512 379.767 240.056C380.498 240.807 381.008 241.746 381.239 242.77C381.47 243.793 381.415 244.861 381.078 245.855C380.896 246.692 380.896 247.558 381.078 248.396C381.481 249.82 381.559 251.318 381.306 252.777C381.053 254.237 380.476 255.62 379.618 256.825C378.435 258.396 377.03 259.786 375.447 260.95C375.119 261.256 374.838 261.608 374.613 261.996L369.102 259.007V255.39L366.659 252.401L368.089 251.923C367.553 249.98 367.135 248.306 366.599 246.662C366.325 246.017 365.996 245.397 365.616 244.809L363.143 239.129C361.088 239.368 360.164 238.263 359.658 235.961C358.807 233.142 357.813 230.368 356.679 227.651C356.321 226.575 356.202 225.409 355.934 224.303C355.934 223.735 355.606 222.839 355.309 222.779C354.474 222.6 352.955 222.54 352.806 222.779C351.376 226.216 348.784 223.825 347.146 223.616C344.926 222.998 342.884 221.861 341.188 220.298C340.294 219.64 340.085 218.176 339.49 217.129C338.986 216.335 338.429 215.576 337.821 214.858C339.49 211.032 335.11 212.048 333.68 211.181L332.072 206.279L331.148 207.504C330.105 205.562 329.659 203.768 326.441 203.559C324.628 203.425 322.896 202.75 321.468 201.621C320.04 200.492 318.981 198.96 318.427 197.222C317.381 195.202 316.068 193.332 314.525 191.662C314.26 191.36 314.03 191.029 313.84 190.676C312.201 186.67 310.592 182.635 308.954 178.719C308.477 177.554 308.15 176.597 306.303 176.746C305.468 176.746 304.158 174.923 303.592 173.757C302.447 171.253 300.451 169.24 297.961 168.078C295.846 167.032 294.356 164.88 291.824 164.521C290.676 164.324 289.542 164.054 288.428 163.714C287.951 160.725 285.777 159.768 282.976 159.738C282.738 157.228 282.291 157.018 279.997 157.736C278.418 158.244 276.69 158.901 275.26 157.108C275.022 156.779 274.009 156.839 273.473 157.108C272.937 157.377 273.116 158.334 273.473 158.692C275.26 161.024 277.167 163.236 279.014 165.507C281.368 168.497 283.751 171.247 285.985 174.236C286.581 175.043 286.492 176.358 287.028 177.225C287.564 178.092 288.905 179.078 289.62 180.214C290.781 182.007 291.586 184.01 292.777 185.774C293.492 186.79 294.833 187.388 295.757 188.344C296.571 189.325 297.216 190.437 297.663 191.632C298.468 194.113 299.063 196.654 299.719 199.165L301.804 200.301L299.868 201.138C300.344 201.586 300.761 202.333 301.298 202.453C302.15 202.545 302.954 202.899 303.599 203.466C304.244 204.033 304.699 204.785 304.902 205.621C305.026 206.252 305.096 206.892 305.111 207.534C307.426 208.988 309.583 210.681 311.546 212.586C312.574 214.158 313.037 216.035 312.857 217.907C312.721 218.46 312.723 219.039 312.863 219.592C313.003 220.145 313.277 220.654 313.661 221.075C315.303 223.022 316.796 225.091 318.129 227.263C318.32 227.52 318.405 227.841 318.368 228.159C318.241 229.376 318.386 230.606 318.794 231.759C319.201 232.912 319.859 233.96 320.721 234.825C321.526 236.021 321.138 238.053 322.002 239.219C322.866 240.385 322.002 243.493 324.981 243.703C325.16 243.703 325.25 244.839 325.369 245.436C327.782 244.868 328.348 247.26 329.45 248.426C331.863 251.116 334.008 254.045 336.481 257.184L333.948 257.781C334.287 258.655 334.706 259.496 335.2 260.292C335.979 261.582 336.989 262.717 338.179 263.64C339.817 264.686 340.651 266.121 339.698 267.885C339.043 269.11 338.149 270.126 340.532 270.366C340.979 270.366 341.337 271.352 341.754 271.89L342.29 270.605C342.715 271.284 342.916 272.08 342.862 272.88C342.809 273.68 342.504 274.443 341.992 275.059C341.575 275.642 341.35 276.343 341.35 277.061C341.35 277.78 341.575 278.48 341.992 279.064C342.379 279.841 343.213 280.678 343.094 281.366C342.588 284.355 344.465 286.387 345.12 288.868C345.507 290.273 345.775 291.678 346.103 293.173C344.882 293.86 343.809 294.697 345.626 296.162C345.924 296.401 345.954 297.208 345.865 297.716C345.507 299.988 344.971 302.23 344.733 304.501C344.733 305.279 345.329 306.115 345.448 306.982C345.567 307.849 346.878 309.344 344.911 310.211C344.643 310.211 344.911 311.825 344.911 312.602C345.299 313.917 345.805 315.143 344.345 316.189C343.958 316.458 344.107 317.355 343.899 317.922C343.263 319.315 342.735 320.754 342.32 322.227C342.065 324.21 341.916 326.206 341.873 328.205C341.873 330.058 341.575 331.912 341.456 333.496L338.477 333.914C336.779 331.104 336.779 330.118 338.685 327.936C338.238 326.77 337.911 325.754 337.523 324.947C337.333 324.475 337.093 324.024 336.808 323.602C335.698 322.137 334.702 320.588 333.829 318.969C332.548 315.98 331.506 312.781 330.522 309.613C329.688 307.042 329.152 304.352 328.378 301.751C327.931 300.227 327.275 298.762 326.62 296.999C326.233 297.716 325.369 298.673 325.398 299.569C325.398 303.664 325.905 307.759 326.084 311.884C326.084 312.542 325.458 313.259 325.041 314.066L325.845 314.306C324.535 315.591 326.769 318.132 324.177 319.028C323.879 319.028 323.671 319.716 323.551 320.134C322.985 322.137 322.628 324.229 321.883 326.113C321.634 326.773 321.242 327.37 320.735 327.859C320.227 328.348 319.618 328.718 318.95 328.941C318.282 329.165 317.574 329.236 316.875 329.15C316.177 329.064 315.506 328.823 314.912 328.444C312.082 327.189 312.261 324.648 311.605 322.466C311.425 321.95 311.285 321.42 311.188 320.882C310.92 319.477 310.712 317.893 310.503 316.637C310.503 316.637 310.503 316.458 310.503 316.398C308.596 311.795 310.682 307.042 309.907 302.409C309.728 301.423 309.043 299.808 309.371 299.42C310.741 298.433 310.086 297.387 309.997 296.221C309.639 292.395 309.52 288.569 308.954 284.773C308.735 284.213 308.398 283.706 307.966 283.288C307.534 282.871 307.018 282.551 306.451 282.352C302.728 280.977 302.46 277.779 301.804 274.64C301.804 274.102 301.447 273.146 301.119 273.116C298.378 272.637 297.842 270.126 296.591 268.363C295.198 266.664 294.356 264.578 294.178 262.385C294.276 261.188 293.946 259.995 293.248 259.02C292.549 258.045 291.527 257.351 290.364 257.064C290.364 255.091 291.228 252.82 288.1 252.79C287.892 252.79 287.564 252.222 287.475 251.863C287.249 250.35 286.93 248.853 286.521 247.379C286.253 246.692 285.27 246.303 284.764 245.676C282.708 243.601 281.042 241.171 279.848 238.502C279.401 236.977 279.014 235.214 278.567 233.54L277.763 230.162L278.388 229.833C277.882 229.654 277.167 229.146 276.929 229.325C275.38 230.461 274.218 229.146 272.967 228.697C271.715 228.249 270.673 227.412 270.762 227.113C271.656 224.303 267.783 223.317 268.379 221.135C269.511 217.488 267.902 214.26 267.485 210.852C267.217 208.879 267.485 206.817 267.038 204.874C266.606 202.453 266.039 200.058 265.34 197.7C264.804 195.937 263.821 194.293 263.344 192.529C262.391 189.151 261.646 185.714 260.871 182.276C260.871 181.679 261.08 180.961 260.871 180.393C260.54 179.099 259.964 177.881 259.173 176.806C259.172 177.897 258.906 178.971 258.397 179.934C257.888 180.898 257.153 181.723 256.254 182.336C255.658 182.665 255.926 184.399 255.658 185.325C255.658 185.744 255.152 186.073 254.794 186.551C256.731 189.151 256.731 193.097 254.794 193.695C255.122 194.412 255.807 195.219 255.658 195.787C255.122 197.73 254.258 199.613 253.543 201.526C253.3 201.983 253.139 202.479 253.066 202.991C253.066 206.488 253.066 210.015 252.828 213.513C252.828 214.23 251.994 214.917 251.547 215.605C252.023 218.275 251.807 221.023 250.921 223.586C250.508 226.245 250.338 228.937 250.415 231.627C251.228 231.545 252.034 231.405 252.828 231.208C254.496 230.58 256.075 230.551 256.939 232.314C257.471 233.72 257.88 235.171 258.16 236.648C258.16 236.648 258.16 236.798 258.16 236.858C259.441 242.836 257.892 248.814 257.892 254.792C257.892 256.108 257.892 257.453 257.892 258.798C257.892 260.143 259.263 261.578 257.237 262.534C257.249 262.828 257.299 263.12 257.386 263.401C257.386 264.029 257.833 264.746 257.654 265.254C256.254 269.14 256.879 273.235 256.373 277.211C255.867 281.186 256.075 284.474 255.956 288.151C255.956 291.349 255.688 294.548 255.598 297.746C255.598 302.14 255.598 306.504 255.42 310.898C255.42 312.602 255.42 314.306 255.42 316.009H256.254C256.254 312.422 256.254 308.836 256.254 305.249C256.178 300.111 256.718 294.983 257.863 289.974C257.983 287.734 257.983 285.489 257.863 283.249C258.011 282.026 258.451 280.858 259.144 279.841C259.471 279.303 260.425 279.154 261.11 278.825C261.277 279.403 261.476 279.972 261.706 280.529C261.808 280.897 262.028 281.223 262.331 281.455C264.119 282.352 263.88 283.428 262.331 285.042C264.744 284.235 264.595 285.401 264.566 286.776C264.566 291.2 264.566 295.743 264.566 300.077C264.521 301.575 264.342 303.066 264.029 304.531C263.553 306.833 263.523 309.224 263.225 311.466C262.51 316.667 264.089 321.569 263.999 326.621C263.999 329.251 263.255 331.852 263.195 334.482C263.27 336.491 263.509 338.491 263.91 340.46C263.94 340.848 263.94 341.238 263.91 341.626C263.91 344.286 263.91 346.977 263.91 349.697L262.987 348.591C262.987 351.58 263.314 351.58 265.102 353.762C265.881 355.183 266.358 356.75 266.502 358.365C266.502 358.933 266.234 359.591 266.323 360.189C266.681 363.178 267.157 366.167 267.545 369.156C267.603 369.782 267.603 370.413 267.545 371.039C267.545 373.221 267.545 375.403 267.545 377.585C267.271 379.103 267.171 380.648 267.247 382.188C268.2 386.612 266.323 390.917 266.859 395.281C267.102 396.804 267.241 398.342 267.276 399.884C267.091 400.995 266.77 402.079 266.323 403.112L264.893 403.68C265.74 405.363 266.448 407.112 267.008 408.911C267.515 411.004 268.319 410.436 269.183 409.748C270.21 410.118 271.206 410.567 272.162 411.093C273.123 411.587 273.943 412.317 274.545 413.216C275.96 415.425 276.695 418.003 276.661 420.629C276.452 423.169 278.269 425.83 278.835 428.52C279.401 431.21 279.372 433.781 279.669 436.381C279.908 438.503 280.176 440.596 280.474 442.688C280.861 445.378 281.219 448.099 281.695 450.759C282.172 453.419 282.857 455.9 283.215 458.501C283.393 459.876 282.768 461.49 282.917 462.745C283.572 469.022 284.227 475.27 285.151 481.487C285.628 484.476 286.938 487.465 287.445 490.454C288.449 495.805 289.086 501.218 289.352 506.655C289.037 509.927 289.679 513.219 291.199 516.131C292.059 518.083 292.417 520.221 292.241 522.348C292.241 524.59 293.582 524.769 295.22 524.68C296.046 524.529 296.897 524.641 297.655 525C298.414 525.36 299.042 525.948 299.451 526.682C300.178 528.537 300.794 530.434 301.298 532.362C301.373 532.827 301.557 533.267 301.834 533.647C304.068 535.68 304.128 538.669 305.23 541.18C305.945 542.794 306.898 544.169 307.613 545.932C307.805 546.561 307.875 547.22 307.822 547.875C307.792 549.074 307.852 550.273 308.001 551.462C308.805 555.348 309.848 559.204 310.503 563.12C310.437 564.662 310.218 566.194 309.848 567.693C309.883 568.545 310.064 569.384 310.384 570.174C311.129 572.476 311.993 574.718 312.529 577.049C312.529 577.707 311.903 578.544 311.605 579.201C312.797 579.201 313.72 580.008 313.631 582.19C313.631 584.791 313.78 587.421 313.631 590.052C313.536 591.682 313.307 593.302 312.946 594.894C312.869 595.151 312.731 595.386 312.544 595.578C312.358 595.771 312.128 595.916 311.873 596C311.486 596 310.861 595.671 310.563 595.283C308.626 592.772 306.72 590.231 304.873 587.63C303.889 586.255 302.311 585.179 302.698 582.938C302.698 582.19 301.655 580.965 300.821 580.337C298.882 578.695 297.433 576.548 296.634 574.132C295.835 571.716 295.717 569.126 296.293 566.647C296.591 565.272 295.429 563.658 295.042 562.044C294.748 560.982 294.588 559.887 294.565 558.786C294.565 557.321 294.922 555.976 292.777 555.617C291.228 555.348 288.517 551.044 288.488 549.4C288.444 548.533 288.444 547.665 288.488 546.799C288.666 545.215 288.309 544.229 286.551 543.989C284.794 543.75 283.572 541.807 283.125 540.074C281.656 535.231 280.285 530.339 279.014 525.397C278.66 523.613 278.441 521.804 278.359 519.987C278.359 519.598 278.359 519.09 278.359 518.821C276.214 515.443 278.091 511.797 277.644 508.299C277.692 507.862 277.692 507.421 277.644 506.984C276.78 504.593 277.078 501.903 275.469 499.661C274.746 498.633 274.285 497.442 274.128 496.193C273.89 492.995 274.128 489.737 273.503 486.568C273.175 484.446 271.924 482.443 271.388 480.351C270.464 476.914 269.809 473.416 269.034 469.949C268.409 467.139 267.813 464.359 267.217 461.55C266.8 459.726 265.251 458.56 264.238 457.275C262.756 454.747 261.614 452.033 260.842 449.204C260.305 447.501 260.842 445.259 259.978 443.974C259.271 442.654 258.865 441.195 258.786 439.699C258.086 436.588 258.293 433.34 259.382 430.343C259.962 427.576 259.606 424.694 258.369 422.153C257.753 419.909 257.255 417.634 256.879 415.338C256.483 413.246 256.234 411.128 256.135 409.001C256.135 406.49 256.492 403.979 256.343 401.498C256.164 397.851 255.688 394.235 255.301 390.618C255.032 388.286 254.586 385.985 254.317 383.653C254.055 381.671 253.906 379.675 253.871 377.675C253.993 376.373 254.223 375.083 254.556 373.819L253.334 362.968C252.798 364.852 250.623 365.958 250.951 368.229C251.624 372.995 252.032 377.795 252.173 382.607C252.173 387.24 251.428 391.873 251.755 396.476C251.758 399.179 251.366 401.868 250.594 404.457L249.044 403.949C246.423 402.963 245.023 403.949 245.44 406.639C246.304 411.943 246.603 417.324 246.333 422.691C246.513 425.712 246.951 428.713 247.644 431.658C248.31 434.059 248.503 436.567 248.21 439.042C247.257 442.3 249.134 444.631 249.551 447.381C250.147 451.177 250.028 455.063 250.474 458.859C250.981 463.403 251.785 467.827 252.441 472.46C252.977 476.047 253.483 479.664 254.049 483.251C254.288 484.835 254.735 486.24 254.883 487.973C254.834 488.984 254.674 489.986 254.407 490.962C255.198 492.019 255.659 493.287 255.733 494.606C255.807 495.925 255.491 497.236 254.824 498.375C255.591 499.555 256.22 500.819 256.701 502.142C257.594 505.759 258.25 509.435 258.935 513.082C258.933 513.595 258.873 514.107 258.756 514.606C258.756 515.503 258.339 516.788 258.756 517.207C260.961 519.359 259.829 521.84 259.471 524.082C259.173 525.875 255.092 526.623 253.9 525.188C252.969 524.102 252.26 522.843 251.815 521.481C250.385 516.639 249.044 511.767 247.972 506.865C247.495 504.653 247.972 502.261 247.615 500.019C247.113 497.302 246.416 494.625 245.529 492.009C244.54 489.877 243.973 487.572 243.861 485.223C243.967 481.073 243.557 476.926 242.639 472.878C241.895 469.052 242.431 465.435 242.014 461.759C241.8 459.84 241.482 457.934 241.061 456.05C240.226 452.194 239.154 448.427 238.409 444.571C238.239 442.154 237.931 439.749 237.486 437.368C236.563 433.916 236.092 430.359 236.085 426.786C235.847 423.438 236.503 420.061 236.503 416.683C236.503 415.009 235.847 413.335 235.758 411.631C235.599 409.642 235.599 407.643 235.758 405.653C235.996 402.993 236.473 400.392 236.86 397.582H237.277C236.472 394.359 236.575 390.976 237.575 387.808C237.74 387.11 237.74 386.384 237.575 385.686C237.575 383.952 237.277 382.248 237.217 380.544C237.039 377.077 236.89 373.64 236.771 370.202C236.771 368.409 236.771 366.615 236.771 364.822C236.771 363.028 236.354 360.487 236.294 358.335C236.145 354.36 236.056 350.414 236.026 346.379C236.026 344.526 236.234 342.672 236.294 340.819C236.294 337.142 236.294 333.436 236.294 329.729C236.294 328.145 236.294 326.531 236.294 324.947C235.898 321.449 234.89 318.049 233.315 314.903C233.315 313.289 233.583 312.094 233.643 310.898C233.643 308.626 233.911 306.325 234.03 304.053C234.272 301.97 234.352 299.871 234.268 297.776C234.03 296.042 232.898 294.428 232.481 292.694C232.064 290.961 231.706 288.27 231.378 286.058C230.919 283.87 231.291 281.589 232.421 279.662C233.106 278.556 232.093 276.493 232.004 274.849C231.915 273.205 232.004 270.904 232.004 268.871C232.004 268.124 232.004 267.347 232.213 266.599C232.421 265.852 232.451 264.836 232.6 263.969C232.77 263.493 232.9 263.003 232.987 262.504C232.987 260.442 232.689 258.379 232.719 256.317C232.719 252.281 232.719 248.216 233.047 244.181C233.047 242.447 233.97 240.773 234.268 239.04C234.417 238.292 233.911 237.455 233.97 236.678C233.97 235.214 234.536 233.689 234.566 232.314C234.566 230.252 234.328 228.219 234.238 226.336C234.153 223.313 234.84 220.319 236.234 217.638C236.642 216.128 236.833 214.568 236.8 213.004C236.984 212.439 237.213 211.889 237.486 211.36C235.698 210.374 236.443 208.371 236.741 206.638C237.188 203.649 237.843 200.899 238.379 198.119C235.758 195.937 233.851 199.195 231.438 198.507L230.932 197.282L226.761 202.991L227.565 204.157C227.533 204.335 227.473 204.506 227.386 204.665C225.361 206.638 223.365 208.7 221.19 210.643C220.265 211.182 219.259 211.566 218.211 211.779L217.526 210.793C217.483 212.647 217.304 214.495 216.989 216.322C216.504 217.469 215.915 218.57 215.232 219.61C214.696 220.896 214.01 221.195 212.551 221.015C211.657 221.015 210.704 222.241 209.572 222.51C208.586 222.677 207.579 222.677 206.592 222.51C206.592 224.214 206.265 225.678 206.265 227.143C206.265 231.686 206.265 236.11 206.265 240.743C206.265 243.523 206.652 246.273 206.533 249.023C206.48 250.146 206.168 251.242 205.619 252.223C205.071 253.203 204.303 254.042 203.375 254.673C202.571 255.3 202.481 257.184 202.511 258.499C202.541 259.814 203.405 261.488 202.869 263.491C202.568 265.528 202.879 267.609 203.762 269.469C205.163 273.056 204.09 276.553 203.971 280.08C203.971 280.873 203.657 281.633 203.098 282.194C202.54 282.754 201.782 283.069 200.992 283.069C199.055 283.069 197.03 282.651 196.255 280.289C195.993 279.64 195.685 279.011 195.332 278.406C195.044 279.033 194.843 279.697 194.736 280.379C195.004 283.368 195.391 286.059 195.6 288.898C195.704 290.239 195.614 291.589 195.332 292.904C194.646 295.893 196.315 298.882 194.736 301.871C194.348 302.558 194.736 303.754 194.914 304.681C195.168 307.043 195.078 309.429 194.646 311.765C194.642 316.078 194.861 320.388 195.302 324.678C195.063 326.52 194.603 328.327 193.931 330.058C192.323 328.444 191.518 330.058 190.684 330.566C190.173 330.962 189.589 331.252 188.965 331.42C188.341 331.587 187.691 331.629 187.051 331.543C186.411 331.457 185.794 331.244 185.237 330.918C184.679 330.591 184.192 330.157 183.802 329.64C183.252 328.392 182.929 327.056 182.849 325.694C182.551 323.183 182.372 320.672 182.253 318.132C182.337 317.444 182.538 316.777 182.849 316.159C182.432 315.77 181.658 315.442 181.628 315.083C181.628 312.99 181.866 310.868 181.896 308.776C181.896 305.428 181.896 302.11 181.896 298.762C181.896 298.045 182.521 297.327 182.79 296.61C183.058 295.893 183.594 294.966 183.356 294.607C182.773 293.574 182.449 292.413 182.413 291.226C182.376 290.038 182.628 288.86 183.147 287.792C183.438 286.798 183.342 285.729 182.879 284.803C180.887 281.309 179.782 277.378 179.662 273.355C179.71 271.522 179.311 269.706 178.5 268.064C177.874 266.958 178.5 265.075 178.5 263.58C178.5 263.012 178.887 262.325 178.678 261.877C177.536 259.37 177.429 256.511 178.381 253.925C178.947 252.132 180.228 249.651 178.381 247.559C178.323 247.415 178.323 247.254 178.381 247.11C178.319 243.785 178.761 240.469 179.691 237.276C180.585 235.303 179.483 233.42 180.794 231.627C183.177 228.398 182.104 224.124 183.594 220.507C184.368 218.624 183.981 216.023 185.143 214.529C187.109 212.168 185.322 209.836 185.977 207.594C186.143 206.006 186.203 204.408 186.156 202.812C186.561 201.895 187.092 201.039 187.735 200.271L189.701 192.918L188.152 192.409C189.79 190.467 191.459 188.643 192.978 186.7C193.436 185.963 193.797 185.169 194.051 184.339C194.766 182.366 195.391 180.363 196.225 178.361C196.434 177.882 197.238 177.673 197.774 177.374C198.311 177.075 198.37 177.374 198.43 177.374C198.797 176.512 199.42 175.786 200.215 175.293C201.009 174.801 201.936 174.567 202.869 174.624C204.626 174.624 206.324 172.98 208.052 172.083L207.516 171.695C207.814 171.187 208.022 170.32 208.41 170.23C209.26 170.108 210.066 169.769 210.749 169.245C211.432 168.722 211.97 168.032 212.312 167.241C212.67 166.404 213.981 165.956 215.053 165.208C210.525 165.358 207.427 168.198 203.852 169.543C201.171 170.649 199.234 172.891 196.374 173.518C195.391 173.727 194.587 174.774 193.753 175.491C191.733 176.963 189.893 178.669 188.271 180.573C185.88 183.178 183.213 185.513 180.317 187.537C178.112 189.57 176.385 192.081 174.359 194.263C173.495 195.159 172.154 195.638 171.38 196.564C170.005 197.89 168.919 199.488 168.192 201.257C167.743 202.458 167.018 203.536 166.076 204.404C165.134 205.271 164.001 205.903 162.77 206.249C161.996 206.608 160.685 205.741 159.791 205.412L157.884 204.814C157.797 205.408 157.678 205.997 157.527 206.578C157.08 208.013 156.574 209.418 156.067 210.822C155.561 212.227 156.246 214.918 154.548 216.472C155.978 220.089 151.569 222.181 152.165 225.439C152.165 225.947 151.569 226.665 151.092 227.143C149.781 228.518 149.483 229.773 151.092 231.238C151.42 231.597 151.658 232.703 151.45 232.912C149.513 234.735 149.811 237.336 149.007 239.548C148.894 240.018 148.686 240.46 148.397 240.847C148.107 241.234 147.742 241.558 147.324 241.798C146.906 242.039 146.443 242.192 145.964 242.247C145.485 242.302 145 242.258 144.538 242.118C143.621 242.072 142.701 242.132 141.797 242.298C140.874 245.586 139.831 248.814 139.057 252.102C138.759 253.328 139.235 254.733 139.057 255.988C138.669 257.811 137.925 259.605 137.359 261.398C137.258 261.879 137.087 262.342 136.852 262.773C136.137 263.849 135.541 265.434 134.588 265.762C133.985 265.851 133.438 266.166 133.057 266.643C132.676 267.119 132.488 267.723 132.532 268.333C132.293 271.092 131.906 273.836 131.371 276.553C130.924 278.855 130.119 281.097 129.613 283.398C129.366 285.062 129.207 286.739 129.136 288.42C128.153 287.762 127.349 287.493 127.289 287.105C126.127 280.678 123.684 274.58 123.297 267.885C122.999 262.743 124.042 257.662 123.297 252.55C123.297 252.102 123.625 251.534 123.863 251.056C124.102 250.578 124.459 250.368 124.399 250.309C122.255 247.678 126.276 244.33 123.357 241.64C122.761 241.072 123.118 239.309 123.357 238.143C123.799 236.413 124.128 234.655 124.34 232.882C124.299 231.951 124.456 231.022 124.8 230.156C125.144 229.29 125.667 228.508 126.336 227.86C126.372 227.791 126.391 227.714 126.391 227.636C126.391 227.558 126.372 227.481 126.336 227.412C124.548 225.439 126.336 223.436 126.336 221.434C126.033 218.589 126.869 215.739 128.66 213.513C129.088 212.938 129.38 212.274 129.514 211.57C129.649 210.865 129.621 210.14 129.434 209.447C129.087 208.406 128.982 207.3 129.127 206.212C129.271 205.124 129.662 204.084 130.268 203.17C130.648 202.495 130.853 201.734 130.864 200.958C130.896 197.526 131.932 194.18 133.843 191.333C134.583 189.555 135.2 187.727 135.69 185.863C136.302 183.377 137.308 181.005 138.669 178.839C139.528 178.096 140.222 177.179 140.704 176.149C141.187 175.119 141.448 173.999 141.47 172.861C141.47 171.755 143.704 170.469 144.955 169.274C145.283 168.945 145.849 168.736 145.968 168.347C147.636 162.877 153.029 162.16 156.931 159.38C158.208 158.442 159.333 157.313 160.268 156.032C161.698 154.209 162.83 152.116 164.319 150.353C165.206 149.481 166.208 148.737 167.298 148.141L168.222 147.423C168.937 146.945 169.622 146.377 170.397 145.959C171.171 145.54 171.678 145.719 172.065 145.331C173.495 143.896 174.657 143.986 175.312 145.331C178.827 144.942 182.075 144.703 185.262 144.225C186.404 143.88 187.511 143.43 188.569 142.88C189.731 142.461 190.982 142.252 192.114 141.714C193.408 141.058 194.652 140.309 195.838 139.472C196.464 139.084 197.03 138.247 197.685 138.157C200.026 137.403 202.525 137.29 204.924 137.828C206.26 138.371 207.715 138.551 209.142 138.352C210.569 138.152 211.92 137.58 213.057 136.692L206.622 133.165V133.703L201.796 133.912C199.817 134.118 197.828 134.218 195.838 134.211C192.859 134.032 189.88 134.809 187.318 132.836C186.692 132.358 185.501 132.657 184.607 132.478C183.208 132.418 181.833 132.094 180.555 131.521C179.279 130.839 177.871 130.437 176.428 130.345C174.984 130.252 173.537 130.47 172.184 130.983C171.67 131.057 171.149 131.057 170.635 130.983C169.696 130.697 168.704 130.635 167.737 130.801C166.77 130.967 165.855 131.357 165.064 131.94C164.681 132.216 164.225 132.372 163.753 132.388C161.966 132.388 160.149 132.388 158.361 132.388C157.719 132.378 157.088 132.555 156.544 132.896C154.075 134.613 151.197 135.644 148.202 135.885C143.88 136.879 139.63 138.167 135.482 139.741C133.754 140.339 132.92 140.1 132.503 138.366C132.338 137.44 131.866 136.597 131.162 135.975C131.46 135.108 131.758 134.211 132.115 133.345C132.413 132.734 132.751 132.145 133.128 131.581L132.532 131.521C128.838 135.078 125.204 138.695 121.42 142.162C118.441 144.823 116.594 148.649 112.483 150.233C111.823 150.527 111.279 151.031 110.934 151.668C110.254 152.881 109.312 153.926 108.179 154.727C107.045 155.529 105.747 156.066 104.38 156.301C103.582 156.644 102.847 157.119 102.205 157.706L102.98 153.401L102.086 153.132C101.461 154.836 100.805 156.51 100.179 158.214C100.069 158.555 99.9085 158.877 99.7028 159.17C97.3494 162.16 94.9363 164.91 92.6424 167.869C91.1231 169.842 89.8123 171.964 88.4419 173.847C85.1947 173.847 86.6842 170.469 85.2543 169.035C83.9733 171.037 82.8412 173.01 81.4708 174.833C81.1551 175.246 80.7376 175.569 80.2596 175.77C79.7815 175.971 79.2595 176.043 78.745 175.98C78.2305 175.916 77.7415 175.719 77.3261 175.408C76.9107 175.097 76.5835 174.683 76.3766 174.206C75.6632 172.336 75.0467 170.43 74.5295 168.497C73.6608 169.658 72.9588 170.936 72.4442 172.293C71.7997 174.72 70.5488 176.942 68.8097 178.749C68.4597 179.438 68.209 180.172 68.0649 180.931C67.8266 181.589 67.5883 182.755 67.2904 182.785C65.1156 182.994 65.4433 184.727 65.2646 185.983C64.9369 187.926 65.0561 189.928 64.6986 191.961C64.5198 192.888 63.5069 193.575 63.0601 194.472C62.1961 196.236 61.5407 198.089 60.7066 199.882C59.8724 201.676 58.2935 202.064 56.0294 201.437C52.1566 200.361 53.378 196.505 51.3225 194.532L50.0712 195.1C49.4158 196.953 48.8498 198.657 48.2242 200.361C47.3976 202.505 46.2195 204.495 44.7387 206.249C42.7026 208.838 41.1485 211.775 40.1509 214.918C39.8364 216.055 39.1932 217.074 38.3025 217.845C37.4119 218.616 36.3135 219.106 35.146 219.252C34.2225 219.252 33.0607 218.445 32.1669 217.937C31.9286 217.937 31.6307 217.309 31.7201 217.129C32.435 215.426 31.154 214.14 30.4986 212.437C29.3666 214.051 28.3239 215.426 27.5196 216.86C27.2233 217.537 26.6879 218.079 26.0168 218.382C25.3457 218.686 24.5863 218.729 23.8851 218.504C22.4253 218.116 20.906 217.757 20.6379 215.844C20.3995 214.439 19.6846 214.17 18.4631 215.127C17.4562 215.802 16.3891 216.382 15.2755 216.86C15.9607 218.684 14.1732 219.431 12.6837 220.119C9.90225 221.822 6.67344 222.645 3.41874 222.48C0.707772 222.091 -0.245536 221.583 0.052373 219.013C0.601818 216.676 1.3905 214.402 2.40585 212.227C3.15062 210.254 4.07414 208.341 4.90829 206.249C5.08703 205.801 5.26578 205.113 5.56368 205.024C8.27465 204.306 9.67483 202.034 11.6708 200.271C12.4152 199.548 13.1024 198.769 13.7264 197.939L15.484 198.717C16.7353 194.89 18.4631 193.336 21.4422 193.217L25.9108 186.939H25.5236C23.4355 188.872 21.2265 190.67 18.91 192.32C16.4969 193.844 14.0243 195.877 10.4494 194.801C10.6789 192.507 11.0571 190.23 11.5814 187.986C12.2624 185.513 13.264 183.142 14.5605 180.931C15.6032 179.078 17.9269 178.062 18.761 176.358C19.9229 173.967 22.6636 173.937 23.8553 171.994C25.0469 170.051 25.8513 167.66 27.2216 165.717C28.592 163.774 30.2007 162.728 31.5413 161.263C32.2333 160.292 32.7571 159.21 33.0905 158.064C33.3312 156.931 33.6396 155.813 34.014 154.717C34.9375 152.893 36.0695 151.19 36.993 149.456C37.3207 148.888 37.5889 148.111 38.0655 147.902C39.2075 147.46 40.1805 146.667 40.8443 145.636C41.5082 144.604 41.8287 143.388 41.7596 142.162C41.9979 139.771 44.1131 138.785 45.8707 137.589C48.105 136.094 50.2202 134.6 52.4247 132.986C53.4721 132.266 54.5783 131.636 55.7315 131.103C55.9698 131.103 56.5359 131.521 56.5954 131.551C57.4296 130.923 58.1744 130.325 58.9787 129.787C60.5874 128.741 62.2557 127.785 63.8048 126.619C64.1325 126.38 63.8048 125.393 64.1623 124.945C65.1882 123.361 66.3873 121.897 67.7372 120.581C69.2265 119.452 70.4306 117.988 71.2526 116.307C72.7421 112.749 76.2276 111.076 78.9982 108.774C79.2663 108.535 80.2196 109.163 80.5175 109.282C80.979 108.584 81.5528 107.968 82.2156 107.459C84.4499 106.233 86.7438 105.097 89.0973 104.081C90.4916 103.541 91.9259 103.111 93.3872 102.796C96.7237 101.929 100.15 101.301 103.367 100.135C105.84 99.2686 108.789 99.149 109.534 95.2034C109.852 93.9272 110.561 92.7828 111.56 91.9306C112.559 91.0784 113.798 90.5609 115.105 90.4507C117.518 90.4507 119.841 89.0458 122.403 90.1817C123.327 90.5702 124.697 90.0322 125.859 89.8827C126.157 89.8827 126.515 89.5539 126.723 89.6436C132.175 91.6164 138.103 90.4507 143.615 92.8121C147.112 93.9013 150.812 94.1672 154.429 93.5892C158.897 93.2604 163.366 93.3202 167.894 93.2903C170.401 93.1897 172.913 93.2997 175.401 93.6191C177.679 94.0287 179.886 94.7635 181.955 95.8012C182.879 96.2496 183.266 97.7142 183.773 98.5213L194.468 101.63L194.17 103.304L199.085 103.961C200.426 104.171 201.737 104.5 203.077 104.739C205.341 105.127 205.103 107.519 206.295 108.804C206.609 109.349 206.878 109.919 207.099 110.508L208.439 108.027C208.439 111.644 211.419 111.225 213.295 112.331C214.936 113.774 217.075 114.514 219.254 114.394C220.743 114.124 223.395 118.728 223.484 120.97L225.629 120.581C226.43 122.475 227.429 124.278 228.608 125.961C229.263 126.768 230.932 126.768 232.183 127.037C232.509 126.619 232.687 126.104 232.689 125.573C232.295 124.549 231.838 123.55 231.319 122.584C231.17 122.255 231.319 121.537 231.14 121.537C227.833 121.119 227.714 117.951 226.433 115.918C225.585 114.111 224.099 112.684 222.262 111.913C219.321 110.304 216.555 108.39 214.01 106.203C211.985 104.798 209.869 103.603 207.873 102.168C207.217 101.583 206.645 100.909 206.175 100.165C205.997 100.165 205.431 100.883 205.222 100.763C203.256 99.7169 200.456 98.9996 199.621 97.3257C198.251 94.5159 195.778 93.6789 193.663 92.0947C189.91 89.3447 185.322 89.1056 181.121 87.4915C178.44 86.5349 174.746 86.7741 173.227 83.2768C172.959 82.679 171.737 82.5594 171.409 81.9616C169.413 78.4045 171.409 75.2959 175.491 75.266C175.967 75.266 176.414 75.266 176.802 75.266C175.699 74.0404 174.597 72.8747 173.554 71.679C172.989 71.0054 172.679 70.1533 172.679 69.2728C172.679 68.3923 172.989 67.5401 173.554 66.8665C173.95 66.1335 174.566 65.545 175.315 65.1852C176.065 64.8254 176.908 64.7129 177.725 64.8638C179.261 65.1468 180.836 65.1468 182.373 64.8638L167.477 55.5378L167.03 49.3503L159.374 48.6927C158.63 48.6479 157.884 48.6479 157.14 48.6927C155.62 48.6927 154.161 48.9318 152.582 48.902C151.003 48.8721 149.007 48.6329 147.249 48.603C145.491 48.5221 143.789 47.9543 142.332 46.9624C140.876 45.9705 139.721 44.5933 138.997 42.9835C138.544 42.0755 137.846 41.3136 136.982 40.785C136.118 40.2564 135.123 39.9824 134.111 39.9944C130.894 39.9944 127.647 39.3966 126.515 35.2716C126.187 34.1656 124.191 33.5977 123.267 32.5515C121.778 30.8178 120.974 32.5515 119.841 32.8803C118.053 33.1307 116.238 33.1307 114.449 32.8803C113.279 32.5624 112.141 32.132 111.053 31.595L106.704 29.8912L104.32 27.3803C104.648 25.9455 102.324 23.8532 104.648 22.0298C104.469 22.0298 104.32 21.6711 104.261 21.701C102.343 22.5361 100.347 23.1769 98.3027 23.614C96.8429 23.8532 95.6811 25.7662 94.2213 26.6031C91.3912 28.1276 88.2631 29.2336 85.5224 30.758C83.6158 31.7743 82.8412 30.5787 81.8283 29.4428C81.4112 28.9645 80.6963 28.7553 80.2494 28.3069C79.5124 27.7609 78.9193 27.0427 78.5215 26.2146C78.3851 24.9029 78.3851 23.5806 78.5215 22.2689C77.2496 21.817 75.8903 21.6682 74.5512 21.8342C73.212 22.0002 71.9298 22.4765 70.8057 23.2254C70.2992 23.614 68.8693 22.6575 67.8266 22.5977C66.1881 22.5977 64.0134 22.0298 63.0005 22.8667C60.8853 24.5705 58.5021 24.1521 56.2677 24.6901C54.659 25.0787 52.8716 24.6901 51.2033 25.0189C48.5221 25.4075 45.9005 26.1847 43.2491 26.5135C35.5631 27.4102 27.877 28.1874 20.1612 28.9944C19.8335 28.9944 19.476 28.9944 18.9696 28.277L31.3924 23.2254C32.4752 22.5561 33.5996 21.9571 34.7587 21.432C37.5445 20.2344 40.4511 19.3425 43.4279 18.7717C45.9282 18.2588 48.3315 17.3508 50.5479 16.0814C51.1901 15.8478 51.8622 15.7069 52.5439 15.663C53.2887 15.663 54.0632 15.663 55.2251 15.663L55.4038 17.307C56.1231 15.9911 57.16 14.8774 58.4196 14.0679C59.6792 13.2584 61.1211 12.7791 62.6132 12.6739C63.0855 12.6361 63.5435 12.4931 63.9538 12.2554C65.0858 11.7173 66.1881 11.1195 67.2606 10.5217C67.9215 10.0501 68.6897 9.75205 69.4949 9.65485C71.9675 9.11681 74.4998 8.75811 76.9128 8.04072C78.734 7.40422 80.5063 6.63496 82.2156 5.7391C82.6793 5.56471 83.1045 5.30066 83.4668 4.96193C83.7616 4.57524 84.146 4.26663 84.5867 4.06294C85.0273 3.85925 85.5109 3.76663 85.9954 3.79315C86.4799 3.81966 86.9506 3.9645 87.3665 4.21508C87.7825 4.46566 88.1312 4.81439 88.3823 5.23095C89.6633 4.18476 90.8847 3.10868 92.1955 2.24184C92.3686 2.14498 92.5634 2.09414 92.7616 2.09414C92.9597 2.09414 93.1546 2.14498 93.3276 2.24184C94.4894 3.85596 95.8002 2.63042 97.0812 2.57064C100.954 2.3614 104.857 2.21195 108.759 2.21195C109.564 2.21195 110.368 2.92933 111.083 2.80977L114.896 2.33151V5.97823C115.252 5.37743 115.532 4.73489 115.73 4.0652C115.939 2.80977 116.267 2.45108 117.518 3.22825C117.902 3.42037 118.325 3.52037 118.754 3.52037C119.183 3.52037 119.606 3.42037 119.99 3.22825C121.659 1.97282 122.97 3.22825 123.863 3.22825L126.187 1.82336L129.732 0H130.685ZM280.772 506.476C281.099 505.46 281.487 504.892 281.427 504.354C281.189 501.693 280.861 499.033 280.563 496.403C280.563 495.924 280.563 495.416 280.563 494.968C279.669 490.066 278.776 485.164 277.793 480.291C277.554 479.096 276.899 477.99 276.69 476.794C276.392 475.09 276.392 473.327 276.065 471.653C276.065 471.204 275.052 470.935 274.545 470.577C274.218 471.115 273.533 471.683 273.622 472.161C273.92 474.134 274.456 476.047 274.933 477.99C275.856 481.577 276.958 485.104 277.733 488.721C278.597 492.905 279.193 497.15 279.938 501.335C280.087 502.829 280.355 504.294 280.772 506.476ZM82.0666 149.695C79.8323 150.651 78.5811 151.817 78.7003 153.999C78.7003 154.418 78.2832 154.836 78.0449 155.255C76.5566 157.609 75.9348 160.411 76.2872 163.176C78.1342 158.722 81.1133 154.806 82.0666 149.695ZM26.6556 184.488V185.026C27.2812 184.817 28.3835 184.638 28.4133 184.399C28.4133 182.844 29.307 183.143 30.3199 183.412C30.5312 183.47 30.7524 183.481 30.9683 183.445C31.1843 183.409 31.3899 183.326 31.5711 183.203C34.0985 181.192 35.9071 178.412 36.7249 175.282L26.6556 184.488ZM236.413 172.532C237.132 173.027 237.984 173.291 238.856 173.291C239.728 173.291 240.58 173.027 241.299 172.532C242.117 171.987 242.743 171.196 243.085 170.272C243.428 169.349 243.47 168.34 243.205 167.391C241.954 167.899 240.733 168.347 239.571 168.855C239.248 169.049 238.965 169.303 238.737 169.602L236.413 172.532ZM392.994 150.024L392.309 150.98L394.215 153.132C394.513 152.415 395.228 151.548 395.02 151.01C394.811 150.472 393.709 150.263 392.994 149.934V150.024ZM218.539 100.673L219.075 100.255L217.228 96.4588L215.47 97.3854L218.539 100.673Z" fill="#202020"></path> </svg> 