<?xml version="1.0" encoding="UTF-8"?> <svg xmlns="http://www.w3.org/2000/svg" width="148" height="13" viewBox="0 0 148 13" fill="none"> <g clip-path="url(#clip0_213_574)"> <path d="M-2.44827e-05 12.5C-2.44827e-05 12.3173 -2.4483e-05 12.125 0.0240124 11.9279C0.0480493 11.7308 0.0576641 11.5337 0.081701 11.3366C0.105738 11.1394 0.134582 10.9519 0.158619 10.7692C0.182656 10.5866 0.2115 10.4183 0.23073 10.2885C0.285213 9.96796 0.366939 9.53046 0.475906 8.97598C0.586476 8.41348 0.716275 7.79328 0.865304 7.12021C1.01433 6.44713 1.18259 5.75482 1.34604 5.04809C1.50949 4.34136 1.70179 3.68751 1.87485 3.08655C2.02413 2.5617 2.20064 2.04497 2.40367 1.53847C2.49713 1.24174 2.66224 0.972595 2.8844 0.754821L3.10554 0.721167L3.43725 0.682706H3.76896H3.9901H4.10067C4.1663 0.678356 4.23214 0.678356 4.29777 0.682706L4.60064 0.711552L4.8987 0.745206L5.09099 0.774052C5.09099 0.802898 5.18233 0.846167 5.34098 0.90386L5.87459 1.10097L6.45629 1.32694C6.59763 1.38044 6.73169 1.45151 6.8553 1.53847C6.91953 1.59083 6.98053 1.64703 7.03798 1.70674L7.30239 1.97117C7.39373 2.06251 7.48507 2.14905 7.56679 2.23559C7.64852 2.32213 7.71101 2.37982 7.73986 2.41348C7.75176 2.50813 7.77769 2.60049 7.81678 2.68751L7.93215 2.92309C7.97316 3.00222 8.0085 3.08415 8.03792 3.16828C8.06741 3.26321 8.08201 3.36215 8.08118 3.46155C8.07897 3.53761 8.06267 3.61259 8.03311 3.68271C7.99946 3.76924 7.961 3.85578 7.92254 3.94713C7.88408 4.03848 7.84081 4.1154 7.80716 4.19713C7.77525 4.2541 7.75253 4.31576 7.73986 4.37982L6.52359 5.34136C6.42838 5.35099 6.33371 5.36543 6.23996 5.38463C6.17837 5.39823 6.11864 5.41921 6.06208 5.44713L5.89382 5.53848C5.81261 5.58868 5.72739 5.6321 5.63903 5.66828C5.39308 5.77788 5.12912 5.84143 4.86024 5.85578C4.59102 5.85578 4.32662 5.87982 4.07183 5.87982H3.79781C3.70974 5.87503 3.62147 5.87503 3.5334 5.87982H3.42283L3.22092 5.84617L2.96613 5.80771L2.64884 5.76924L2.56231 5.71636L2.40367 5.62501L2.26425 5.51444L2.19214 5.45674H2.13926H2.09599L1.32201 9.3029L1.21144 9.41348C1.17778 9.73078 1.14413 10.0048 1.1201 10.226C1.09606 10.4471 1.06721 10.6779 1.04318 10.9087C1.01914 11.1394 0.999911 11.3366 0.990296 11.4904C0.980681 11.6442 0.990296 11.7067 0.990296 11.875C0.980848 12.0474 0.961587 12.2192 0.932607 12.3894C0.910865 12.5429 0.865457 12.6922 0.798001 12.8317C0.777784 12.8859 0.741769 12.9327 0.694624 12.9662C0.647479 12.9996 0.591378 13.0181 0.533595 13.0192C0.462082 13.0266 0.389815 13.0194 0.32121 12.9979C0.252605 12.9764 0.189102 12.9411 0.134582 12.8942C0.039578 12.7857 -0.00878854 12.644 -2.44827e-05 12.5ZM2.98536 5.01924L3.11516 5.04809L3.31707 5.07694L3.51898 5.11059C3.56213 5.11506 3.60563 5.11506 3.64878 5.11059H3.86992L4.15355 5.06732L4.59102 5.00001L5.01888 4.93271L5.29771 4.88944C5.39985 4.72623 5.55143 4.5999 5.73037 4.52886C5.92748 4.44232 6.12458 4.34617 6.32649 4.24521C6.52572 4.14572 6.70497 4.01046 6.8553 3.84617C7.02164 3.6311 7.1037 3.36268 7.08605 3.09136C7.08685 2.9107 7.03141 2.73427 6.92741 2.58655C6.81206 2.42739 6.66871 2.29054 6.50436 2.18271C6.32322 2.06179 6.12986 1.96027 5.92748 1.87982C5.71818 1.79959 5.50475 1.73058 5.28809 1.67309C5.08294 1.61694 4.87411 1.57517 4.66313 1.54809C4.50371 1.52652 4.34322 1.51368 4.1824 1.50963C3.97658 1.50596 3.77081 1.51882 3.56705 1.54809C3.44364 1.5637 3.32878 1.61944 3.24015 1.70674C3.15536 1.80092 3.09582 1.91505 3.06708 2.03847L2.8844 2.6154C2.83633 2.78848 2.77864 2.94713 2.72576 3.09617C2.67288 3.24521 2.62 3.38463 2.57673 3.52405C2.53307 3.67423 2.49776 3.8267 2.47097 3.98078C2.4348 4.16152 2.4123 4.34474 2.40367 4.52886C2.47084 4.52712 2.53764 4.53949 2.59974 4.56516C2.66184 4.59083 2.71787 4.62923 2.76422 4.6779C2.86317 4.77318 2.93884 4.88999 2.98536 5.01924Z" fill="#010101"></path> <path d="M13.2683 8.9759C13.2683 8.8509 13.2683 8.72109 13.3068 8.58167C13.3452 8.44225 13.3068 8.31244 13.3308 8.18744C13.3549 8.06244 13.3308 7.9759 13.3308 7.92782V7.81725L14.1 2.13455V2.06725C14.1011 2.01424 14.0822 1.96277 14.0471 1.92302L13.9414 1.82205C13.8982 1.78856 13.8595 1.7498 13.826 1.70667C13.7871 1.66125 13.7665 1.60297 13.7683 1.54321C13.7724 1.42444 13.8204 1.3114 13.9029 1.2259C13.9409 1.17531 13.9884 1.13271 14.0429 1.10054C14.0973 1.06836 14.1576 1.04725 14.2202 1.0384L17.196 0.822054C17.3859 0.741123 17.5842 0.681465 17.7873 0.644169C17.997 0.609457 18.2092 0.591771 18.4218 0.591285C18.5414 0.580767 18.6617 0.598896 18.7728 0.644169C18.8257 0.682631 18.8497 0.793208 18.8497 0.985515C18.861 1.14432 18.8259 1.30299 18.7487 1.44225C18.6247 1.58185 18.4535 1.67085 18.268 1.69225C18.268 1.61052 18.1959 1.57205 18.0901 1.57205H17.6094L17.0806 1.63455L16.4652 1.71148L15.8643 1.81725C15.6624 1.84609 15.4749 1.87494 15.3067 1.9134C15.1732 1.93357 15.0491 1.99395 14.9509 2.08648C14.879 2.17185 14.831 2.27466 14.8115 2.38455C14.7913 2.51336 14.7817 2.6436 14.7827 2.77398C14.7861 2.92501 14.7781 3.07609 14.7586 3.2259C14.7586 3.33648 14.7105 3.43744 14.6865 3.53359C14.6625 3.62975 14.6336 3.71628 14.6144 3.80763C14.5952 3.89898 14.5711 3.98071 14.5519 4.07205C14.5318 4.17175 14.5222 4.27325 14.5231 4.37494C14.5231 4.40378 14.5231 4.46628 14.5231 4.56725C14.5231 4.66821 14.5231 4.7259 14.5231 4.75475L14.9317 4.7884L15.5615 4.82686L16.196 4.85571H16.6143C16.9015 4.87222 17.1874 4.90755 17.47 4.96148C17.7584 5.0077 18.0318 5.12136 18.268 5.29321V5.34609C18.2686 5.40867 18.252 5.47021 18.2199 5.52398C18.1842 5.58307 18.1441 5.63932 18.0997 5.69225C18.0517 5.74513 17.9988 5.79802 17.9507 5.84128L17.8257 5.94705H17.6719H17.4459H16.6431H16.4172H16.3451H16.2537L16.1191 5.90859L15.9797 5.87013H15.9028H15.797L15.6288 5.90859L15.4557 5.94705H15.3499C15.3107 5.93726 15.2733 5.92102 15.2394 5.89898L15.1288 5.84128H15.0759C14.9663 5.83341 14.8563 5.85251 14.7558 5.89693C14.6552 5.94135 14.5671 6.00973 14.499 6.09609C14.3541 6.28371 14.2509 6.50005 14.1962 6.73071C14.1428 6.97402 14.1138 7.22204 14.1096 7.47109C14.1096 7.7259 14.1096 7.95186 14.1096 8.09609V8.21628C14.1096 8.27398 14.1096 8.33648 14.1096 8.39898C14.1096 8.46148 14.1096 8.51917 14.1096 8.57686V8.69705C14.2642 8.7543 14.426 8.7899 14.5904 8.80282C14.773 8.80282 14.9557 8.83167 15.1432 8.83167C15.3307 8.83167 15.5086 8.83167 15.672 8.83167H16.0662H16.6768C16.9184 8.84847 17.161 8.84847 17.4027 8.83167C17.6405 8.81549 17.8758 8.77358 18.1046 8.70667C18.3086 8.65077 18.4922 8.53727 18.6334 8.37975H19.9554C19.98 8.37813 20.0043 8.38555 20.0237 8.4006C20.0432 8.41565 20.0565 8.4373 20.0612 8.46148C20.0649 8.50627 20.0649 8.5513 20.0612 8.59609V8.65378C20.0529 8.75857 20.0158 8.859 19.9538 8.9439C19.8918 9.02879 19.8075 9.09479 19.7102 9.13455C19.4294 9.28674 19.1306 9.40303 18.8209 9.48071C18.4365 9.5791 18.0464 9.65296 17.6527 9.70186C17.2296 9.75955 16.8306 9.79801 16.4508 9.82686C16.071 9.85571 15.7441 9.87975 15.4893 9.88936H14.975C14.8141 9.89002 14.6534 9.87877 14.4942 9.85571C14.3314 9.83543 14.1706 9.80166 14.0135 9.75475C13.8583 9.70794 13.7097 9.64171 13.5712 9.55763C13.4369 9.4761 13.322 9.36615 13.2347 9.23551C13.2395 9.18744 13.2539 9.1009 13.2683 8.9759Z" fill="#010101"></path> <path d="M25.2195 9.89427C25.2199 9.63835 25.2506 9.38338 25.3108 9.13465C25.3749 8.88465 25.447 8.63465 25.5272 8.38465C25.6089 8.13465 25.6906 7.90388 25.7771 7.63465C25.8637 7.36542 25.9358 7.15388 25.9935 6.90388C25.9935 6.86061 26.0223 6.76927 26.056 6.63465C26.0896 6.50004 26.1281 6.34138 26.1762 6.15388L26.3252 5.59138C26.3781 5.39427 26.4261 5.21638 26.4742 5.04811C26.5223 4.87985 26.5655 4.75004 26.5944 4.64427C26.6079 4.58879 26.629 4.53542 26.6569 4.48561C26.6857 4.39908 26.7386 4.24042 26.8107 4.00485C26.8828 3.76927 26.9646 3.52408 27.0463 3.27888L27.277 2.55292C27.3492 2.32215 27.402 2.1635 27.4309 2.07215C27.4982 1.88946 27.5655 1.69235 27.6328 1.476C27.6994 1.27843 27.7831 1.08701 27.8828 0.903884C27.9759 0.714378 28.094 0.538145 28.2337 0.379845C28.3753 0.21862 28.5581 0.0989623 28.7625 0.0336914C28.8404 0.143216 28.9492 0.226936 29.075 0.274076C29.2014 0.321483 29.3197 0.387958 29.4259 0.471191C29.6763 0.670641 29.8743 0.928058 30.0028 1.22119C30.1283 1.50925 30.2311 1.80662 30.3105 2.11061C30.3105 2.27888 30.3345 2.5385 30.349 2.89427C30.3634 3.25004 30.3874 3.64427 30.4115 4.09619C30.4355 4.54811 30.4547 5.00965 30.4788 5.50004C30.5028 5.99042 30.522 6.46158 30.5461 6.90388C30.5701 7.34619 30.5845 7.75485 30.6037 8.10581C30.623 8.45677 30.6374 8.72119 30.6422 8.88946V9.25004C30.6422 9.30773 30.6422 9.37023 30.6422 9.44234C30.6382 9.51066 30.6269 9.57835 30.6086 9.64427C30.593 9.70585 30.5615 9.76224 30.5172 9.80773C30.4612 9.85553 30.3888 9.87966 30.3153 9.87504C30.2722 9.87645 30.2293 9.86707 30.1907 9.84777C30.1521 9.82846 30.1189 9.79983 30.0942 9.76446C30.0469 9.69641 30.0097 9.62194 29.9836 9.54331C29.9836 9.49523 29.9499 9.41831 29.9259 9.31734C29.9019 9.21638 29.873 9.11061 29.8538 9.00965C29.8346 8.90869 29.8105 8.81254 29.7913 8.726C29.7777 8.67228 29.7681 8.61765 29.7625 8.56254C29.7625 8.476 29.7625 8.32215 29.7288 8.10581C29.6952 7.88946 29.7 7.6635 29.6903 7.41831C29.6807 7.17311 29.6903 6.93754 29.6615 6.726C29.6327 6.51446 29.6615 6.351 29.6615 6.24523C29.4836 6.27408 29.2817 6.30773 29.0462 6.33658C28.8106 6.36542 28.5654 6.39908 28.3202 6.42311C28.0751 6.44715 27.8395 6.46158 27.5751 6.47119C27.3477 6.48339 27.1198 6.48339 26.8925 6.47119L26.854 6.59619C26.854 6.65869 26.8155 6.72119 26.7867 6.79331L26.7146 6.99523C26.7025 7.03924 26.688 7.08256 26.6713 7.12504C26.5737 7.34877 26.4902 7.57838 26.4213 7.81254C26.3444 8.07696 26.2771 8.34619 26.2194 8.62504C26.1617 8.90388 26.1088 9.17792 26.0752 9.44715C26.0384 9.69243 26.016 9.93965 26.0079 10.1875C26.0079 10.2164 25.9358 10.2741 25.8541 10.3558C25.8015 10.4124 25.7453 10.4654 25.6858 10.5145H25.6329C25.5534 10.5202 25.4746 10.4962 25.4118 10.4472C25.3599 10.4054 25.3201 10.3507 25.2964 10.2885C25.2669 10.2251 25.2506 10.1564 25.2483 10.0866C25.2347 10.0231 25.2251 9.95891 25.2195 9.89427ZM28.6616 0.798114C28.4702 1.1273 28.3093 1.47329 28.1808 1.83177C28.0318 2.22119 27.8924 2.62504 27.7674 3.0385C27.6424 3.45196 27.5078 3.84619 27.402 4.27408C27.2963 4.70196 27.2049 5.05292 27.1184 5.38946H29.5221L29.6327 5.27888V5.226C29.6304 5.18597 29.6304 5.14584 29.6327 5.10581C29.6351 5.06257 29.6351 5.01924 29.6327 4.976V4.85581C29.6327 4.37504 29.6327 3.89427 29.599 3.4135C29.5654 2.93273 29.5509 2.45196 29.5125 1.97119C29.4629 1.86872 29.3998 1.77332 29.325 1.68754L29.0606 1.39908C28.974 1.30292 28.8923 1.20677 28.8154 1.11061C28.7437 1.01781 28.6914 0.911539 28.6616 0.798114Z" fill="#010101"></path> <path d="M35.8102 6.01929C35.8182 5.66275 35.8798 5.30946 35.9928 4.97121C36.1158 4.56437 36.2767 4.17 36.4736 3.79333C36.6899 3.38542 36.9374 2.99484 37.2139 2.62506C37.4809 2.26083 37.7837 1.92422 38.1177 1.62025C38.4202 1.33949 38.7599 1.10168 39.1272 0.913518C39.4389 0.743675 39.7868 0.651331 40.1416 0.644287C40.2454 0.647847 40.3478 0.66898 40.4445 0.706787C40.5704 0.747863 40.6901 0.806103 40.8002 0.879864C40.9115 0.945921 41.012 1.02861 41.0983 1.12506C41.1734 1.21021 41.216 1.31921 41.2185 1.43275C41.2185 1.60102 41.1752 1.70198 41.079 1.73563C40.9858 1.76564 40.8886 1.78184 40.7906 1.78371C40.7167 1.78524 40.6431 1.77217 40.5743 1.74525L40.4156 1.65871C40.3618 1.62281 40.3056 1.59068 40.2474 1.56256C40.1712 1.53128 40.0893 1.51654 40.007 1.51929C39.9011 1.51679 39.7959 1.53815 39.6993 1.58179C39.611 1.61995 39.5258 1.66496 39.4445 1.7164L39.1994 1.87025C39.1086 1.92347 39.0094 1.96086 38.9061 1.98083C38.5904 2.25938 38.2963 2.56153 38.0264 2.88467C37.7576 3.20014 37.5209 3.54157 37.3197 3.9039C37.115 4.26172 36.9537 4.6426 36.8389 5.03852C36.7259 5.44552 36.6693 5.86611 36.6707 6.28852C36.6708 6.59633 36.708 6.90301 36.7812 7.20198C36.8516 7.48316 36.9704 7.74995 37.1322 7.99044C37.2903 8.22115 37.5013 8.41071 37.7475 8.54333C38.0317 8.68724 38.3473 8.75827 38.6657 8.75006C39.0478 8.75765 39.4297 8.72542 39.8051 8.6539C40.1799 8.57651 40.5617 8.53784 40.9444 8.53852H41.7713C41.8162 8.58336 41.8506 8.63752 41.8723 8.69717C41.8801 8.75298 41.8801 8.80963 41.8723 8.86544C41.877 8.93813 41.8653 9.01095 41.8378 9.07842C41.8103 9.14588 41.7678 9.20621 41.7136 9.25486C41.592 9.35407 41.4487 9.42324 41.2954 9.45679C41.1095 9.5028 40.9194 9.53018 40.7281 9.53852L40.1272 9.56736C39.9301 9.56736 39.7522 9.5914 39.5888 9.61063C39.4564 9.62202 39.3291 9.66667 39.2186 9.74044H38.5215C38.0753 9.75498 37.6344 9.63974 37.2524 9.40871C36.909 9.19047 36.6223 8.89389 36.4159 8.54333C36.1915 8.17312 36.0292 7.76876 35.9351 7.34621C35.8467 6.90957 35.8048 6.46477 35.8102 6.01929Z" fill="#010101"></path> <path d="M47.1123 8.97591C47.1123 8.85091 47.1411 8.72111 47.1508 8.58168C47.1604 8.44226 47.1508 8.31245 47.1796 8.18745C47.2084 8.06245 47.1796 7.97591 47.1796 7.92784V7.81726L47.944 2.13457V2.06726C47.9446 2.04057 47.9399 2.01402 47.9299 1.98922C47.92 1.96443 47.9052 1.94191 47.8863 1.92303L47.7709 1.82207C47.7301 1.78605 47.6916 1.74751 47.6555 1.70668C47.6149 1.66198 47.5926 1.60363 47.593 1.54322C47.5995 1.42589 47.6452 1.31414 47.7228 1.22591C47.7613 1.17479 47.8097 1.13188 47.865 1.09968C47.9203 1.06748 47.9815 1.04665 48.0449 1.03841L51.0159 0.822068C51.2091 0.741123 51.4106 0.681476 51.6168 0.644184C51.8266 0.609879 52.0388 0.592195 52.2514 0.591299C52.3709 0.580211 52.4914 0.598361 52.6023 0.644184C52.6552 0.682645 52.6792 0.793222 52.6792 0.98553C52.6927 1.15217 52.6577 1.31916 52.5783 1.4663C52.4524 1.60348 52.2822 1.69198 52.0976 1.7163C52.0976 1.63457 52.0206 1.59611 51.9197 1.59611H51.4389L50.9101 1.65861L50.2996 1.73553L49.6794 1.82688C49.4775 1.85572 49.2949 1.88457 49.1266 1.92303C48.9922 1.94453 48.8669 2.00467 48.766 2.09611C48.6957 2.18188 48.6493 2.2847 48.6314 2.39418C48.6064 2.52238 48.5967 2.65311 48.6026 2.78361C48.6068 2.93481 48.5971 3.08608 48.5737 3.23553C48.5559 3.33945 48.5318 3.4422 48.5016 3.54322L48.4295 3.81726C48.4295 3.9038 48.3863 3.99034 48.3718 4.08168C48.3518 4.18138 48.3421 4.28288 48.343 4.38457C48.343 4.41341 48.343 4.47591 48.343 4.57688C48.343 4.67784 48.343 4.73553 48.343 4.76438L48.7516 4.79803L49.3862 4.83649L50.0208 4.86534H50.439C50.7247 4.88157 51.009 4.91691 51.2899 4.97111C51.5798 5.01731 51.8548 5.13093 52.0927 5.30284V5.35572C52.0916 5.41873 52.0734 5.48023 52.0399 5.53361C52.006 5.59385 51.9657 5.65027 51.9197 5.70188C51.8737 5.75512 51.8239 5.80494 51.7707 5.85091L51.6505 5.95668H51.4966H51.2707H50.4775H50.2515H50.1506H50.064L49.9246 5.91822L49.7852 5.87976H49.7083H49.6073L49.4343 5.91822L49.2612 5.95668H49.1602C49.1207 5.94776 49.0832 5.93145 49.0497 5.90861L48.9391 5.85091H48.8814C48.7719 5.84427 48.6624 5.86393 48.562 5.90826C48.4617 5.95259 48.3734 6.02029 48.3045 6.10572C48.1672 6.29129 48.0721 6.50458 48.0257 6.73072C47.9684 6.97346 47.9378 7.22172 47.9344 7.47111C47.9344 7.72591 47.9344 7.95188 47.9344 8.09611V8.2163C47.9344 8.27399 47.9344 8.33649 47.9344 8.39899C47.9344 8.46149 47.9344 8.51918 47.9344 8.57688V8.69707C48.0888 8.7548 48.2507 8.79041 48.4151 8.80284C48.5978 8.80284 48.7853 8.83168 48.9728 8.83168C49.1602 8.83168 49.3381 8.83168 49.5016 8.83168H49.891H50.5015C50.7448 8.84853 50.9889 8.84853 51.2322 8.83168C51.4684 8.81554 51.7022 8.77362 51.9293 8.70668C52.1338 8.65181 52.3176 8.53814 52.4581 8.37976H53.7801C53.8049 8.37701 53.8298 8.38399 53.8495 8.39924C53.8693 8.41449 53.8823 8.43681 53.8859 8.46149C53.8893 8.5063 53.8893 8.5513 53.8859 8.59611V8.6538C53.8767 8.75896 53.8386 8.85952 53.7758 8.94438C53.7131 9.02923 53.628 9.09505 53.5302 9.13457C53.2511 9.2868 52.9539 9.4031 52.6456 9.48072C52.2613 9.57911 51.8711 9.65298 51.4774 9.70188C51.0544 9.75957 50.6553 9.79803 50.2756 9.82688C49.8958 9.85572 49.5689 9.87976 49.29 9.88938H48.7708C48.618 9.88926 48.4654 9.87801 48.3141 9.85572C48.1514 9.83544 47.9906 9.80167 47.8334 9.75476C47.6765 9.70874 47.5262 9.64247 47.3863 9.55764C47.2541 9.47344 47.1397 9.36398 47.0498 9.23553C47.069 9.18745 47.0786 9.10091 47.1123 8.97591Z" fill="#010101"></path> <path d="M69.5243 9.13464C69.5243 9.06733 69.5243 9.02887 69.5243 9.02406L69.7454 8.91348C69.7142 8.45568 69.7142 7.99629 69.7454 7.53849C69.7791 7.05772 69.8272 6.57695 69.8993 6.09618C69.9714 5.61541 70.0483 5.13464 70.1396 4.65387C70.231 4.1731 70.3175 3.7356 70.3992 3.30772C70.4159 3.21095 70.4416 3.11597 70.4762 3.02406L70.5915 2.7356C70.6348 2.63464 70.6684 2.53849 70.6973 2.44714C70.7257 2.35362 70.7403 2.25643 70.7406 2.15868C70.7422 2.13306 70.7422 2.10737 70.7406 2.08175C70.739 2.05453 70.739 2.02724 70.7406 2.00002L70.3704 1.92791C70.2851 1.90527 70.205 1.86606 70.1348 1.81252C70.0759 1.75862 70.0312 1.69088 70.005 1.61541C69.9693 1.5169 69.953 1.41242 69.957 1.30772C69.9531 1.25687 69.9616 1.20586 69.9817 1.15899C70.0018 1.11212 70.0329 1.07079 70.0723 1.03849C70.1547 0.977404 70.2502 0.936262 70.3512 0.918293C70.4563 0.903057 70.5629 0.901442 70.6684 0.913485H70.9617C71.6967 0.907351 72.4302 0.981508 73.1491 1.13464C73.7757 1.25815 74.3699 1.51025 74.8941 1.87502C75.3947 2.23341 75.7939 2.71543 76.0527 3.27406C76.353 3.96138 76.4959 4.70711 76.471 5.45675C76.488 6.19633 76.3402 6.93042 76.0383 7.60579C75.7104 8.26458 75.2544 8.85134 74.697 9.33175C74.4818 9.53175 74.2236 9.67977 73.9423 9.76445C73.6611 9.85064 73.3706 9.9023 73.0769 9.91829C72.7712 9.93753 72.4645 9.93753 72.1587 9.91829C71.8382 9.89906 71.5354 9.88945 71.2501 9.88945C71.0819 9.88945 70.8944 9.88945 70.6925 9.91829C70.5039 9.93764 70.3138 9.93764 70.1252 9.91829C69.9644 9.90071 69.8106 9.84283 69.6781 9.75002C69.6117 9.69018 69.5604 9.61535 69.5286 9.53174C69.4969 9.44813 69.4855 9.35814 69.4954 9.26925C69.5147 9.2356 69.5195 9.18272 69.5243 9.13464ZM71.3078 3.53368C71.1925 4.01445 71.1011 4.49522 71.0242 4.97599C70.9473 5.45675 70.8848 5.93752 70.8271 6.45675C70.7694 6.97599 70.7069 7.52406 70.6396 8.13945C70.6396 8.16829 70.6396 8.22118 70.6396 8.29329C70.6396 8.36541 70.6396 8.44233 70.6396 8.52406C70.6396 8.60579 70.6396 8.67791 70.6396 8.75002C70.6396 8.82214 70.6396 8.87502 70.6396 8.90387H73.3269C73.6949 8.91187 74.0528 8.78343 74.3317 8.54329C74.6083 8.29255 74.8336 7.99049 74.9951 7.65387C75.1749 7.30388 75.309 6.93225 75.3941 6.5481C75.4707 6.20867 75.5126 5.86234 75.5191 5.51445C75.5266 4.99614 75.4585 4.4795 75.3172 3.98079C75.1947 3.56169 74.9795 3.17554 74.6874 2.85098C74.3874 2.5359 74.0166 2.29692 73.6058 2.15387C73.1012 1.98383 72.5709 1.9025 72.0386 1.91349H71.7597C71.5674 2.49522 71.4184 3.02887 71.3078 3.51925V3.53368Z" fill="#010101"></path> <path d="M81.7687 8.02891C81.8392 7.53852 81.9257 7.05775 82.0283 6.5866C82.1244 6.10583 82.2254 5.62506 82.3264 5.14429C82.4222 4.66738 82.4944 4.18603 82.5427 3.70199L82.6484 3.48564C82.7109 3.17795 82.7542 2.92314 82.7879 2.71641C82.8215 2.50968 82.8552 2.29333 82.8936 2.07218C82.9321 1.85102 82.9609 1.66352 82.9802 1.51929C82.9994 1.37506 83.0523 1.27891 83.134 1.24045C83.2391 1.19755 83.3523 1.17788 83.4657 1.18276C83.5765 1.17482 83.6877 1.18954 83.7926 1.22602C83.8455 1.25487 83.8743 1.35102 83.8743 1.51929C83.8743 1.51929 83.8743 1.57218 83.8743 1.62987C83.8743 1.68756 83.8743 1.72122 83.8743 1.73564L82.9898 6.54333C82.9676 6.67378 82.9532 6.80542 82.9465 6.93756C82.9465 7.13468 82.9129 7.35583 82.884 7.60583C82.8552 7.85583 82.8263 8.12025 82.7879 8.39429C82.7501 8.64846 82.6987 8.90042 82.634 9.1491C82.582 9.34597 82.5078 9.53629 82.4129 9.71641C82.3263 9.86545 82.2302 9.93756 82.1196 9.93756C82.0081 9.93805 81.8991 9.90451 81.8072 9.84141C81.7625 9.80916 81.7264 9.76643 81.7021 9.71697C81.6778 9.66751 81.666 9.61284 81.6677 9.55775C81.6626 9.04632 81.6964 8.53523 81.7687 8.02891Z" fill="#010101"></path> <path d="M89.0423 3.36529V2.59125C89.0423 2.53356 89.0759 2.49991 89.1384 2.48548H89.3163H89.3836C89.5615 2.48548 89.7201 2.62491 89.8644 2.89895C90.0307 3.23356 90.1659 3.58279 90.2682 3.94222C90.3932 4.35568 90.5085 4.80279 90.6095 5.28356C90.7105 5.76433 90.8114 6.21625 90.9028 6.62972C90.9941 7.04318 91.0806 7.38933 91.1672 7.66818C91.2537 7.94702 91.3354 8.08164 91.4171 8.08164C91.5232 8.06996 91.6257 8.03663 91.7183 7.9837C91.8109 7.93077 91.8917 7.85938 91.9556 7.77395C92.18 7.52061 92.3781 7.24516 92.5469 6.95183C92.7488 6.61529 92.9507 6.22587 93.1622 5.79318C93.3737 5.36049 93.5805 4.91818 93.7824 4.46625C93.9843 4.01433 94.191 3.57202 94.3833 3.13452C94.5756 2.69702 94.7631 2.31722 94.941 1.97587C95.0829 1.69308 95.2435 1.42004 95.4217 1.15856C95.5707 0.951831 95.7005 0.846061 95.8111 0.846061C95.8886 0.839376 95.9661 0.857927 96.0322 0.898946C96.0581 0.929175 96.0774 0.964427 96.089 1.00249C96.1006 1.04054 96.1042 1.08059 96.0995 1.1201C96.0846 1.37107 96.0345 1.6187 95.9505 1.85568C95.8495 2.1826 95.7197 2.55279 95.5515 2.97587C95.3832 3.39895 95.1861 3.84606 94.9746 4.32683C94.7631 4.8076 94.4939 5.28837 94.2583 5.76914C94.0227 6.24991 93.7439 6.73068 93.4747 7.15856C93.2055 7.58645 92.9459 7.9951 92.6959 8.34125C92.4811 8.63812 92.2362 8.91201 91.9652 9.15856C91.8062 9.33247 91.589 9.44196 91.3546 9.46625H91.2441C90.9717 9.2613 90.7565 8.9898 90.6191 8.67779C90.4394 8.30245 90.2946 7.91139 90.1865 7.50952C90.0711 7.07683 89.9701 6.62972 89.8884 6.16818C89.8067 5.70664 89.7298 5.27875 89.648 4.88452C89.5794 4.54204 89.4928 4.20342 89.3884 3.8701C89.338 3.66546 89.215 3.48609 89.0423 3.36529Z" fill="#010101"></path> <path d="M101.383 8.02875C101.457 7.53837 101.543 7.0576 101.642 6.58645C101.739 6.10568 101.84 5.62491 101.94 5.14414C102.037 4.66754 102.108 4.18607 102.152 3.70183L102.263 3.48548C102.32 3.17779 102.368 2.92298 102.402 2.71625C102.436 2.50952 102.469 2.29318 102.508 2.07202C102.546 1.85087 102.57 1.66337 102.594 1.51914C102.618 1.37491 102.666 1.27875 102.748 1.24029C102.961 1.17316 103.189 1.17316 103.402 1.24029C103.46 1.26914 103.488 1.36529 103.488 1.53356C103.488 1.53356 103.488 1.58645 103.488 1.64414C103.488 1.70183 103.488 1.73548 103.488 1.74991L102.609 6.5576C102.587 6.68804 102.572 6.81968 102.565 6.95183C102.565 7.14895 102.532 7.3701 102.503 7.6201C102.474 7.8701 102.445 8.13452 102.407 8.40856C102.368 8.66283 102.315 8.9148 102.248 9.16337C102.198 9.36001 102.125 9.55032 102.032 9.73068C101.945 9.87971 101.849 9.95183 101.739 9.95183C101.627 9.95326 101.518 9.91963 101.426 9.85568C101.38 9.82436 101.344 9.78181 101.319 9.73212C101.295 9.68244 101.284 9.6273 101.287 9.57202C101.279 9.0559 101.311 8.53996 101.383 8.02875Z" fill="#010101"></path> <path d="M108.647 7.04318C108.652 6.9369 108.693 6.83545 108.762 6.75471C108.824 6.67726 108.895 6.60781 108.974 6.54798H109.031C109.13 6.54522 109.226 6.57953 109.301 6.64414C109.372 6.71018 109.435 6.78442 109.488 6.86529L109.652 7.12491C109.704 7.20301 109.775 7.2673 109.858 7.31241C110.371 7.61663 110.959 7.77304 111.555 7.76433C111.771 7.7621 111.986 7.74443 112.199 7.71144C112.418 7.68561 112.631 7.62389 112.829 7.52875C113.017 7.43956 113.182 7.30788 113.31 7.14414C113.446 6.9595 113.514 6.73364 113.502 6.50471C113.51 6.22239 113.436 5.94381 113.291 5.70183C113.144 5.47564 112.962 5.27437 112.752 5.10567C112.534 4.92859 112.302 4.76789 112.06 4.62491C111.819 4.48041 111.587 4.31979 111.368 4.14414C111.16 3.98569 110.98 3.79401 110.834 3.57683C110.687 3.3532 110.611 3.08981 110.618 2.82202C110.614 2.67529 110.639 2.52927 110.692 2.39232C110.745 2.25537 110.824 2.13018 110.925 2.02394C111.145 1.79504 111.406 1.61057 111.695 1.48068C112.002 1.33896 112.324 1.23406 112.656 1.16818C112.941 1.11001 113.231 1.07783 113.521 1.07202C113.683 1.07204 113.845 1.0914 114.002 1.12971C114.156 1.16854 114.302 1.23185 114.435 1.31721C114.557 1.40009 114.662 1.50629 114.743 1.62971C114.823 1.76128 114.865 1.91296 114.863 2.06721H114.045C113.971 1.97202 113.882 1.88926 113.781 1.82202C113.684 1.75806 113.57 1.72457 113.454 1.72587C113.278 1.73355 113.103 1.76426 112.935 1.81721C112.712 1.87362 112.496 1.95423 112.291 2.0576C112.09 2.15037 111.905 2.27363 111.743 2.42298C111.677 2.48083 111.624 2.5518 111.588 2.6313C111.552 2.71081 111.532 2.79707 111.531 2.88452C111.537 2.96302 111.558 3.03965 111.593 3.10986C111.629 3.18006 111.678 3.24241 111.738 3.29318C111.899 3.4511 112.071 3.59731 112.252 3.73068L112.921 4.21144C113.152 4.39166 113.367 4.59109 113.565 4.8076C113.769 5.01901 113.943 5.25862 114.079 5.51914C114.217 5.78334 114.288 6.07709 114.286 6.37491C114.293 6.71547 114.226 7.05352 114.089 7.36529C113.96 7.63697 113.773 7.87672 113.541 8.06721C113.297 8.25628 113.02 8.39813 112.723 8.48548C112.398 8.58409 112.059 8.63272 111.719 8.62971C111.558 8.62624 111.397 8.6134 111.238 8.59125C111.046 8.56241 110.834 8.52394 110.603 8.47106C110.37 8.41364 110.14 8.34138 109.916 8.25471C109.698 8.17418 109.489 8.07275 109.291 7.95183C109.109 7.84301 108.947 7.70493 108.81 7.54317C108.7 7.39995 108.643 7.22358 108.647 7.04318Z" fill="#010101"></path> <path d="M120.112 8.02891C120.183 7.53852 120.269 7.05775 120.372 6.5866C120.473 6.10583 120.569 5.62506 120.67 5.14429C120.768 4.66779 120.84 4.18631 120.886 3.70199L120.997 3.48564C121.055 3.17795 121.098 2.92314 121.132 2.71641C121.165 2.50968 121.199 2.29333 121.237 2.07218C121.276 1.85102 121.305 1.66352 121.324 1.51929C121.326 1.46406 121.341 1.4101 121.368 1.36169C121.394 1.31329 121.432 1.27178 121.478 1.24045C121.583 1.19755 121.696 1.17788 121.809 1.18276C121.92 1.17482 122.031 1.18954 122.136 1.22602C122.189 1.25487 122.218 1.35102 122.218 1.51929C122.218 1.51929 122.218 1.57218 122.218 1.62987C122.218 1.68756 122.218 1.72122 122.218 1.73564L121.333 6.54333C121.311 6.67378 121.297 6.80542 121.29 6.93756C121.29 7.13468 121.257 7.35583 121.232 7.60583C121.208 7.85583 121.146 8.07699 121.146 8.35102C121.111 8.6056 121.059 8.8577 120.992 9.10583C120.942 9.30339 120.868 9.49396 120.771 9.67314C120.684 9.82218 120.588 9.89429 120.478 9.89429C120.366 9.89478 120.257 9.86124 120.165 9.79814C120.121 9.76589 120.084 9.72316 120.06 9.6737C120.036 9.62424 120.024 9.56957 120.026 9.51449C120.018 9.01784 120.047 8.5213 120.112 8.02891Z" fill="#010101"></path> <path d="M127.396 6.64432C127.392 6.25502 127.441 5.86703 127.54 5.49047C127.629 5.13569 127.741 4.78717 127.876 4.4472C128.016 4.11067 128.16 3.77413 128.314 3.43759C128.467 3.10172 128.599 2.75647 128.708 2.40394H128.597C128.505 2.43903 128.418 2.48589 128.338 2.54336C128.255 2.60545 128.176 2.6729 128.102 2.74528C128.03 2.8174 127.958 2.88951 127.891 2.96644L127.718 3.16836C127.646 3.1207 127.587 3.05563 127.546 2.97916C127.506 2.9027 127.485 2.8173 127.487 2.73086C127.485 2.60374 127.509 2.47761 127.558 2.36021C127.607 2.24281 127.679 2.13662 127.771 2.04817C127.97 1.84313 128.209 1.67973 128.472 1.5674C128.743 1.43904 129.027 1.3407 129.318 1.27413C129.568 1.21759 129.822 1.18698 130.078 1.18278C130.483 1.1764 130.885 1.24486 131.265 1.3847C131.599 1.50765 131.901 1.70305 132.15 1.95682C132.399 2.21234 132.589 2.51917 132.708 2.85586C132.842 3.23878 132.907 3.64248 132.9 4.04817C132.898 4.40558 132.857 4.76173 132.78 5.11067C132.609 5.91807 132.298 6.68933 131.862 7.38951C131.647 7.73761 131.394 8.0602 131.107 8.35105C130.836 8.61937 130.524 8.84328 130.184 9.01451C129.855 9.18126 129.49 9.26697 129.121 9.26451C128.813 9.27815 128.508 9.1922 128.251 9.01932C128.025 8.85522 127.842 8.63921 127.718 8.38951C127.586 8.12127 127.497 7.83419 127.453 7.53855C127.411 7.24242 127.392 6.94344 127.396 6.64432ZM128.275 6.7549C128.275 6.95201 128.275 7.14913 128.275 7.34624C128.283 7.52899 128.32 7.70927 128.386 7.8799C128.446 8.03273 128.548 8.16586 128.679 8.26451C128.854 8.37873 129.062 8.43274 129.27 8.41836C129.552 8.42022 129.828 8.34364 130.068 8.1972C130.33 8.03872 130.563 7.83902 130.761 7.60586C130.982 7.35075 131.174 7.07178 131.333 6.77413C131.501 6.46541 131.644 6.14389 131.761 5.81259C131.874 5.51074 131.964 5.20051 132.03 4.8847C132.088 4.6258 132.121 4.36163 132.126 4.09624C132.122 3.89453 132.101 3.69351 132.063 3.49528C132.024 3.24853 131.958 3.00676 131.866 2.77413C131.782 2.5512 131.655 2.34703 131.491 2.17317C131.417 2.09308 131.327 2.02945 131.227 1.98638C131.127 1.94332 131.019 1.92178 130.91 1.92317H129.588C129.524 1.93088 129.463 1.95768 129.415 2.00009C129.354 2.0348 129.301 2.08239 129.261 2.13951C129.341 2.17019 129.419 2.20884 129.492 2.2549C129.527 2.27747 129.556 2.30887 129.575 2.34597C129.594 2.38307 129.604 2.4246 129.602 2.46644C129.604 2.59163 129.57 2.71477 129.506 2.8222C129.443 2.93033 129.374 3.03468 129.299 3.1347C129.222 3.23567 129.15 3.33663 129.078 3.4424C129.002 3.54041 128.952 3.65628 128.934 3.77893C128.934 3.77893 128.934 3.83182 128.934 3.88951C128.94 3.9261 128.94 3.9635 128.934 4.00009C128.903 4.02778 128.864 4.04612 128.823 4.05297C128.761 4.05297 128.722 4.09143 128.718 4.10586C128.622 4.2775 128.553 4.46215 128.511 4.65393C128.458 4.88951 128.415 5.1347 128.376 5.39913C128.338 5.66355 128.314 5.91355 128.295 6.15874C128.275 6.40393 128.266 6.61067 128.266 6.7549H128.275Z" fill="#010101"></path> <path d="M138.073 9.84134C138.265 9.20673 138.467 8.57692 138.683 7.95192C138.9 7.32692 139.14 6.72115 139.395 6.125C139.433 6.03728 139.46 5.94526 139.477 5.85096L139.534 5.55769C139.552 5.46358 139.574 5.37049 139.602 5.27884C139.628 5.18891 139.671 5.10433 139.726 5.02884L140.717 1.96634C140.805 1.91498 140.872 1.83286 140.904 1.73557C140.952 1.60895 140.989 1.47872 141.015 1.34615C141.044 1.19711 141.073 1.04807 141.101 0.889419C141.132 0.739693 141.178 0.593217 141.236 0.451919C141.29 0.325703 141.372 0.213751 141.476 0.124996C141.595 0.0383935 141.739 -0.0056624 141.885 -3.91711e-06H141.928C141.971 0.030238 142.01 0.0657774 142.044 0.105765C142.084 0.139606 142.119 0.178376 142.149 0.22115V0.326919L142.039 0.874996V1.09134L142.149 1.42307C142.149 1.48557 142.188 1.60577 142.217 1.76923C142.246 1.93269 142.279 2.11538 142.318 2.30288C142.356 2.49038 142.385 2.66346 142.414 2.82692C142.443 2.99038 142.467 3.10577 142.481 3.17307C142.563 3.45673 142.635 3.70673 142.702 3.92788C142.77 4.14903 142.837 4.38461 142.919 4.64903L143.14 5.40384C143.217 5.64423 143.279 5.86057 143.342 6.05288C143.404 6.24519 143.443 6.3798 143.471 6.45192C143.5 6.52403 143.529 6.61538 143.577 6.74038L143.736 7.16826L143.928 7.64903C144 7.80769 144.068 7.95673 144.14 8.09134C144.195 8.20612 144.261 8.31556 144.337 8.41827C144.399 8.5 144.457 8.54327 144.51 8.54327C144.563 8.54327 144.707 8.4423 144.813 8.23557C144.939 7.98471 145.05 7.7262 145.144 7.46153C145.255 7.14903 145.37 6.80288 145.491 6.42788C145.611 6.05288 145.721 5.70192 145.837 5.37019C145.952 5.03846 146.058 4.75 146.164 4.5048C146.217 4.33212 146.315 4.17639 146.447 4.05288C146.447 4.01442 146.447 3.94711 146.486 3.85577C146.524 3.76442 146.524 3.65865 146.548 3.55288C146.572 3.44711 146.591 3.35096 146.611 3.25961C146.626 3.19445 146.645 3.13024 146.668 3.0673C146.697 2.98077 146.745 2.84615 146.813 2.67307C146.88 2.5 146.952 2.32692 147.034 2.15384C147.104 1.99487 147.193 1.84478 147.298 1.70673C147.325 1.6554 147.365 1.61124 147.412 1.57783C147.46 1.54441 147.515 1.52269 147.572 1.51442C147.692 1.50159 147.813 1.52153 147.923 1.57211C147.976 1.61538 148 1.72596 148 1.90865C148.001 2.04767 147.987 2.18639 147.957 2.32211C147.929 2.44322 147.892 2.56213 147.846 2.67788C147.803 2.79327 147.755 2.90384 147.702 3.01923C147.649 3.13461 147.601 3.2548 147.548 3.39423L146.889 5.36057C146.754 5.49297 146.656 5.65885 146.606 5.84134C146.51 6.09134 146.409 6.39903 146.303 6.7548C146.197 7.11057 146.101 7.49519 145.995 7.90384C145.89 8.3125 145.789 8.69711 145.688 9.0673C145.587 9.4375 145.486 9.75961 145.39 10.0288C145.333 10.2355 145.243 10.4318 145.125 10.6106H144.851C144.755 10.6142 144.659 10.6012 144.568 10.5721C144.508 10.5495 144.46 10.5046 144.433 10.4471C144.4 10.3725 144.381 10.2928 144.375 10.2115C144.375 10.1154 144.375 9.99038 144.375 9.84615C144.23 9.78336 144.105 9.68394 144.01 9.55769C143.872 9.38611 143.75 9.20271 143.645 9.00961C143.529 8.79326 143.414 8.55769 143.303 8.30288C143.193 8.04807 143.096 7.79807 143.005 7.55288C142.914 7.30769 142.842 7.07211 142.77 6.86538L142.611 6.34615C142.611 6.29326 142.553 6.16826 142.491 5.96153C142.428 5.7548 142.351 5.54326 142.279 5.30769C142.207 5.07211 142.135 4.85577 142.072 4.65384C142.01 4.45192 141.962 4.32211 141.948 4.26923C141.917 4.18466 141.893 4.09787 141.875 4.00961C141.847 3.87019 141.808 3.72115 141.774 3.55769C141.741 3.39423 141.702 3.25 141.673 3.11057C141.645 2.97115 141.625 2.88461 141.621 2.84615C141.596 2.78808 141.576 2.72869 141.558 2.66827C141.534 2.58173 141.515 2.53365 141.51 2.51923C141.505 2.5048 141.51 2.51923 141.486 2.51923H141.452C141.435 2.51253 141.416 2.51253 141.399 2.51923C141.399 2.5625 141.371 2.64423 141.337 2.75961L141.222 3.16346C141.178 3.3173 141.13 3.47596 141.077 3.64423C141.024 3.8125 140.976 3.96634 140.928 4.125C140.88 4.28365 140.842 4.38461 140.803 4.47596C140.765 4.5673 140.746 4.61057 140.736 4.61057L139.746 7.89423C139.677 8.00845 139.624 8.13132 139.587 8.25961C139.529 8.42307 139.472 8.60576 139.414 8.80288L139.231 9.42788C139.174 9.62835 139.107 9.82573 139.029 10.0192C138.97 10.1734 138.892 10.3202 138.799 10.4567C138.771 10.5039 138.733 10.5437 138.687 10.573C138.641 10.6023 138.589 10.6201 138.534 10.625C138.495 10.6257 138.457 10.6178 138.421 10.6021C138.385 10.5863 138.353 10.5629 138.328 10.5336C138.272 10.4677 138.228 10.393 138.198 10.3125C138.165 10.232 138.141 10.1482 138.126 10.0625C138.092 9.95673 138.082 9.88942 138.073 9.84134Z" fill="#010101"></path> </g> <defs> <clipPath id="clip0_213_574"> <rect width="148" height="13" fill="white"></rect> </clipPath> </defs> </svg> 