<?xml version="1.0" encoding="UTF-8"?> <svg xmlns="http://www.w3.org/2000/svg" width="337" height="215" viewBox="0 0 337 215" fill="none"> <path d="M335.996 1C280.531 1.00049 98.8839 25.4427 62.8011 29.9321C26.7182 34.4216 -13.69 38.7886 6.30582 44.0453C27.3259 49.5714 169.985 62.056 191.558 66.5018C209.708 70.2422 229.529 74.2366 245.916 80.7923C248.726 81.9162 257.82 85.3023 250.187 87.172C242.554 89.0416 226.38 98.8159 223.008 103.249C214.798 114.041 278.795 135.301 288.627 139.485C300.577 144.571 332.246 153.888 335.996 164.239C336.234 164.895 325.611 167.299 324.736 167.556C290.842 177.509 249.336 196.697 223.008 214" stroke="black" stroke-linecap="round"></path> </svg> 