<!-- Generated by IcoMoon.io -->
<svg version="1.1" xmlns="http://www.w3.org/2000/svg" width="20" height="20" viewBox="0 0 1024 1024">
<title></title>
<g id="icomoon-ignore">
</g>
<path fill="#fff" d="M512 80c-117.363 0-132.009 0.54-178.092 2.592-46.008 2.16-77.328 9.396-104.868 20.088-28.404 11.016-52.521 25.812-76.539 49.821s-38.847 48.093-49.821 76.539c-10.692 27.54-17.961 58.86-20.088 104.868-2.16 46.083-2.592 60.729-2.592 178.092s0.54 132.009 2.592 178.092c2.16 45.975 9.396 77.328 20.088 104.868 11.016 28.371 25.812 52.521 49.821 76.539 24.009 23.976 48.093 38.847 76.539 49.821 27.573 10.659 58.893 17.961 104.868 20.088 46.083 2.16 60.729 2.592 178.092 2.592s132.009-0.54 178.092-2.592c45.975-2.16 77.328-9.429 104.868-20.088 28.371-11.016 52.521-25.845 76.539-49.821 23.976-24.009 38.847-48.060 49.821-76.539 10.659-27.54 17.961-58.893 20.088-104.868 2.16-46.083 2.592-60.729 2.592-178.092s-0.54-132.009-2.592-178.092c-2.16-45.975-9.429-77.361-20.088-104.868-11.016-28.404-25.845-52.521-49.821-76.539-24.009-24.009-48.060-38.847-76.539-49.821-27.54-10.692-58.893-17.961-104.868-20.088-46.083-2.16-60.729-2.592-178.092-2.592zM512 157.76c115.311 0 129.060 0.573 174.603 2.559 42.12 1.977 64.983 8.964 80.169 14.937 20.229 7.809 34.56 17.172 49.755 32.259 15.087 15.12 24.441 29.484 32.259 49.713 5.907 15.195 12.96 38.049 14.871 80.169 2.052 45.576 2.517 59.259 2.517 174.603s-0.54 129.060-2.667 174.603c-2.193 42.12-9.213 64.983-15.153 80.169-8.067 20.229-17.247 34.56-32.367 49.755-15.087 15.087-29.667 24.441-49.68 32.259-15.12 5.907-38.34 12.96-80.46 14.871-45.867 2.052-59.367 2.517-174.927 2.517-115.593 0-129.093-0.54-174.927-2.667-42.153-2.193-65.373-9.213-80.493-15.153-20.487-8.067-34.56-17.247-49.647-32.367-15.153-15.087-24.84-29.667-32.4-49.68-5.94-15.12-12.927-38.34-15.12-80.46-1.62-45.36-2.193-59.367-2.193-174.387 0-115.053 0.573-129.093 2.193-174.993 2.193-42.12 9.18-65.307 15.12-80.427 7.56-20.52 17.247-34.56 32.4-49.713 15.087-15.087 29.16-24.807 49.647-32.325 15.12-5.973 37.833-12.993 79.953-15.153 45.9-1.62 59.4-2.16 174.927-2.16zM512 290.168c-122.58 0-221.832 99.36-221.832 221.832 0 122.58 99.36 221.832 221.832 221.832 122.58 0 221.832-99.36 221.832-221.832 0-122.58-99.36-221.832-221.832-221.832zM512 655.997c-79.563 0-143.997-64.443-143.997-143.997s64.443-143.997 143.997-143.997 143.997 64.443 143.997 143.997-64.443 143.997-143.997 143.997zM794.453 281.42c0 28.62-23.253 51.84-51.84 51.84-28.62 0-51.84-23.253-51.84-51.84s23.253-51.807 51.84-51.807c28.545-0.033 51.84 23.22 51.84 51.807z"></path>
</svg>
